SplineFontDB: 3.2
FontName: PonomarUnicode-Regular
FullName: Ponomar Unicode Regular
FamilyName: Ponomar Unicode
Weight: Regular
Copyright: Copyright 2013-2020 Aleksandr Andreev and Nikita Simmons (https://sci.ponomar.net/).
Version: 1.4
StyleMapFamilyName: Ponomar Unicode
ItalicAngle: 0
UnderlinePosition: -39
UnderlineWidth: 7
Ascent: 800
Descent: 200
InvalidEm: 0
UFOAscent: 800
UFODescent: -200
LayerCount: 2
Layer: 0 0 "Back" 1
Layer: 1 0 "Fore" 0
StyleMap: 0x0040
FSType: 0
OS2Version: 0
OS2_WeightWidthSlopeOnly: 0
OS2_UseTypoMetrics: 0
CreationTime: 1710886553
ModificationTime: 1710886553
PfmFamily: 16
TTFWeight: 400
TTFWidth: 5
LineGap: 0
VLineGap: 0
Panose: 2 0 5 0 9 0 0 2 0 3
OS2TypoAscent: 800
OS2TypoAOffset: 0
OS2TypoDescent: -200
OS2TypoDOffset: 0
OS2TypoLinegap: 100
OS2WinAscent: 750
OS2WinAOffset: 0
OS2WinDescent: 250
OS2WinDOffset: 0
HheadAscent: 955
HheadAOffset: 0
HheadDescent: -460
HheadDOffset: 0
OS2SubXSize: 203
OS2SubYSize: 203
OS2SubXOff: 0
OS2SubYOff: 286
OS2SupXSize: 203
OS2SupYSize: 203
OS2SupXOff: 0
OS2SupYOff: 286
OS2StrikeYSize: 50
OS2StrikeYPos: 250
OS2CapHeight: 700
OS2XHeight: 500
OS2CodePages: 00000005.00000000
OS2UnicodeRanges: 800002e3.1000c044.00000000.00000000
DEI: 91125
LangName: 1033 "Copyright 2013-2020 Aleksandr Andreev and Nikita Simmons (https://sci.ponomar.net/)." "" "" "" "" "Version 1.004" "" "" "" "" "" "" "" "This Font Software is licensed under the SIL Open Font License, Version 1.1. This license is available with a FAQ at: https://scripts.sil.org/OFL" "https://scripts.sil.org/OFL" "" "Ponomar Unicode" "Regular"
PickledDataWithLists: "(dp0
Vcom.fontlab.v2.tth
p1
(dp2
Vstems
p3
(dp4
V115
p5
(dp6
Vhorizontal
p7
I00
sVwidth
p8
I115
ssV120
p9
(dp10
g7
I00
sg8
I120
ssV127
p11
(dp12
g7
I00
sg8
I127
ssV20
p13
(dp14
g7
I01
sg8
I20
ssV24
p15
(dp16
g7
I01
sg8
I24
ssV31
p17
(dp18
g7
I01
sg8
I31
ssV46
p19
(dp20
g7
I01
sg8
I46
ssV56
p21
(dp22
g7
I00
sg8
I56
sssVzones
p23
(dp24
VB1
p25
(dp26
Vposition
p27
I-282
sVtop
p28
I00
sg8
I28

StartChar: .notdef
Encoding: 256 -1 0
GlifName: _notdef
Width: 427
VWidth: 0
Flags: W
LayerCount: 2
Fore
SplineSet
0 770 m 257
 427 770 l 257
 427 0 l 257
 0 0 l 257
 0 770 l 257
29 748 m 257
 213 398 l 257
 398 748 l 257
 29 748 l 257
221 383 m 257
 405 34 l 257
 405 733 l 257
 221 383 l 257
398 19 m 257
 213 369 l 257
 29 19 l 257
 398 19 l 257
22 733 m 257
 22 34 l 257
 206 383 l 257
 22 733 l 257
EndSplineSet
PickledDataWithLists: "(dp0
Vpublic.postscript.hints
p1
(dp2
VformatVersion
p3
V1
p4
sVhintSetList
p5
(lp6
(dp7
Vstems
p8
(lp9
Vhstem 0 19
p10
aVhstem 748 22
p11
aVvstem 0 22
p12
aVvstem 405 22
p13
asasVid
p14
Vw427m0,770l427,770l427,0l0,0m29,748l213,398l398,748m221,383l405,34l405,733m398,19l213,369l29,19m22,733l22,34l206,383
p15
ss."
EndChar

StartChar: AE
Encoding: 257 198 1
GlifName: A_E_
Width: 871
VWidth: 0
Flags: W
LayerCount: 2
Fore
SplineSet
822 167 m 257
 852 160 l 257
 830.667 62.6667 818.667 9.333 816 0 c 257
 339 0 l 257
 339 29 l 257
 381 31.6667 407 38.8333 417 50.5 c 256
 427 62.1667 432 90.6667 432 136 c 258
 432 296 l 257
 256 296 l 257
 218.667 223.333 187.667 159.667 163 105 c 256
 154.842 87.8248 150.763 74.1757 150.763 64.0526 c 256
 150.763 58.4582 152.009 53.9407 154.5 50.5 c 256
 161.5 40.8333 183.667 33.6667 221 29 c 257
 221 0 l 257
 -11 0 l 257
 -11 29 l 257
 21 33 44.1667 40 58.5 50 c 256
 72.8333 60 89.3333 81.6667 108 115 c 256
 174.667 233 253.667 382.333 345 563 c 257
 353.325 578.089 357.488 589.422 357.488 597 c 256
 357.488 599.133 357.159 600.967 356.5 602.501 c 256
 353.5 609.501 340.333 614.334 317 617.001 c 258
 273 623.001 l 257
 273 650.001 l 257
 792 650.001 l 257
 794 600.668 797.333 553.001 802 507.001 c 257
 771 503.001 l 257
 761 543.001 750 570.668 738 586.001 c 256
 730 596.001 718.667 603.001 704 607.001 c 256
 689.333 611.001 665.667 613.001 633 613.001 c 258
 556 613.001 l 258
 540.665 613.001 531.331 611.334 528 608.001 c 256
 524.667 604.668 523 595.668 523 581.001 c 258
 523 336.001 l 257
 608 336.001 l 258
 652 336.001 679.667 340.001 691 348.001 c 256
 702.333 356.001 711.333 377.334 718 412.001 c 257
 749 412.001 l 257
 749 216.001 l 257
 718 216.001 l 257
 711.333 252.668 702.333 275.168 691 283.501 c 256
 679.667 291.834 652 296.001 608 296.001 c 258
 523 296.001 l 257
 523 132.001 l 258
 523 105.334 524.667 86.001 528 74.001 c 256
 531.333 62.001 537.667 53.3343 547 48 c 256
 559.667 40.6667 593 37 647 37 c 256
 681.669 37 708.336 39.3333 727 44 c 256
 745.67 48.6667 760.336 57.6667 771 71 c 257
 789 91.6667 806 123.667 822 167 c 257
 822 167 l 257
432 336 m 257
 432 608 l 257
 424 608 415 602.333 405 591 c 257
 275 336 l 257
 432 336 l 257
EndSplineSet
PickledDataWithLists: "(dp0
Vpublic.postscript.hints
p1
(dp2
VformatVersion
p3
V1
p4
sVhintSetList
p5
(lp6
(dp7
Vstems
p8
(lp9
Vhstem 0 37
p10
aVhstem 0 29
p11
aVhstem 296 40
p12
aVhstem 613 37
p13
aVhstem 623 27
p14
aVvstem 432 91
p15
aVvstem 718 31
p16
aVvstem 771 31
p17
aVvstem 822 30
p18
asasVid
p19
V501c6214e7d50cbd73fd5ec33591ccf6fdba556839ad029d9ca6f9287c64841ab1ce9178bee77538d68eee79d07514a6748c62bd117c8fede9e75bb23789c5cc
p20
ss."
EndChar

StartChar: Aacute
Encoding: 258 193 2
GlifName: A_acute
Width: 694
VWidth: 0
Flags: W
LayerCount: 2
Fore
SplineSet
676 0 m 257
 423 0 l 257
 423 29 l 257
 454.333 33 473.5 38.5 480.5 45.5 c 256
 483.919 48.9186 485.628 53.8875 485.628 60.4067 c 256
 485.628 67.2364 483.752 75.7675 480 86 c 257
 471.333 113.333 454 162 428 232 c 257
 218 232 l 257
 175 108 l 258
 169.231 90.3077 166.346 76.2211 166.346 65.7404 c 256
 166.346 58.0545 167.897 52.3077 171 48.5 c 256
 178.333 39.5 200.667 33 238 29 c 257
 238 0 l 257
 19 0 l 257
 19 29 l 257
 52.3333 33.6667 75.1667 41.5 87.5 52.5 c 256
 99.8333 63.5 114.333 90 131 132 c 258
 338 655 l 257
 373 665 l 257
 566 132 l 258
 582 89.3333 596 62.3333 608 51 c 256
 620 39.6666 642.667 32.3333 676 29 c 257
 676 0 l 257
413 277 m 257
 328 525 l 257
 325 525 l 257
 234 277 l 257
 413 277 l 257
508 756 m 257
 506 747 l 257
 317 684 l 257
 304 710 l 257
 464 815 l 257
 470 813.667 478.5 805.667 489.5 791 c 256
 500.5 776.333 506.667 764.667 508 756 c 257
 508 756 l 257
EndSplineSet
PickledDataWithLists: "(dp0
Vpublic.postscript.hints
p1
(dp2
VformatVersion
p3
V1
p4
sVhintSetList
p5
(lp6
(dp7
Vstems
p8
(lp9
Vhstem 0 29
p10
aVhstem 232 45
p11
asasVid
p12
Vf590da0a64e8d31b29918834973654df175d63aa06b73cf8e934ecdc20cea478711a6c10b8b11ccc76ad75d03afa7b6f87c535a6a6abfed943fe74e5a16dab13
p13
ss."
EndChar

StartChar: Acircumflex
Encoding: 259 194 3
GlifName: A_circumflex
Width: 694
VWidth: 0
Flags: W
LayerCount: 2
Fore
SplineSet
676 0 m 257
 423 0 l 257
 423 29 l 257
 454.333 33 473.5 38.5 480.5 45.5 c 256
 483.919 48.9186 485.628 53.8875 485.628 60.4067 c 256
 485.628 67.2364 483.752 75.7675 480 86 c 257
 471.333 113.333 454 162 428 232 c 257
 218 232 l 257
 175 108 l 258
 169.231 90.3077 166.346 76.2211 166.346 65.7404 c 256
 166.346 58.0545 167.897 52.3077 171 48.5 c 256
 178.333 39.5 200.667 33 238 29 c 257
 238 0 l 257
 19 0 l 257
 19 29 l 257
 52.3333 33.6667 75.1667 41.5 87.5 52.5 c 256
 99.8333 63.5 114.333 90 131 132 c 258
 338 655 l 257
 373 665 l 257
 566 132 l 258
 582 89.3333 596 62.3333 608 51 c 256
 620 39.6666 642.667 32.3333 676 29 c 257
 676 0 l 257
413 277 m 257
 328 525 l 257
 325 525 l 257
 234 277 l 257
 413 277 l 257
497 709 m 257
 481 684 l 257
 453 695.333 412 716 358 746 c 257
 302 715.333 261.333 694.667 236 684 c 257
 220 709 l 257
 280 756.333 322.333 793 347 819 c 257
 370 819 l 257
 394.667 793 437 756.333 497 709 c 257
 497 709 l 257
EndSplineSet
PickledDataWithLists: "(dp0
Vpublic.postscript.hints
p1
(dp2
VformatVersion
p3
V1
p4
sVhintSetList
p5
(lp6
(dp7
Vstems
p8
(lp9
Vhstem 0 29
p10
aVhstem 232 45
p11
asasVid
p12
Ve639672130d8303810877cc57bc5788b622ae4e88a14c5f9be5e60e842f6f5b73055e1701553d2146b77b1d0fabda8d858f37548db8ce79179ed307980a95160
p13
ss."
EndChar

StartChar: Adieresis
Encoding: 260 196 4
GlifName: A_dieresis
Width: 694
VWidth: 0
Flags: W
LayerCount: 2
Fore
SplineSet
676 0 m 257
 423 0 l 257
 423 29 l 257
 453.667 33 472.5 38.5 479.5 45.5 c 256
 483.085 49.0853 484.878 54.3759 484.878 61.3718 c 256
 484.878 68.0345 483.252 76.2439 480 86 c 256
 471.333 113.333 454 162 428 232 c 257
 219 232 l 257
 203 187.333 189 146 177 108 c 257
 170.679 89.8271 167.519 75.4586 167.519 64.8944 c 256
 167.519 57.6315 169.013 52.1667 172 48.5 c 256
 179.333 39.5 201.667 33 239 29 c 257
 239 0 l 257
 20 0 l 257
 20 29 l 257
 53.3333 33.6667 76.3333 41.5 89 52.5 c 256
 101.667 63.5 116.333 90 133 132 c 258
 339 655 l 257
 373 665 l 257
 566 132 l 258
 582 89.3333 596 62.3333 608 51 c 256
 620 39.6666 642.667 32.3333 676 29 c 257
 676 0 l 257
413 277 m 257
 328 525 l 257
 326 525 l 257
 235 277 l 257
 413 277 l 257
452 800 m 257
 466 800 477.833 794.833 487.5 784.5 c 256
 497.167 774.167 502 761.667 502 747 c 256
 502 733 497 721 487 711 c 256
 477 701 465 696 451 696 c 256
 437 696 425 701.167 415 711.5 c 256
 405 721.833 400 733.667 400 747 c 256
 400 761.667 405 774.167 415 784.5 c 256
 425 794.833 437.333 800 452 800 c 257
 452 800 l 257
258 800 m 257
 272 800 283.833 794.833 293.5 784.5 c 256
 303.167 774.167 308 761.667 308 747 c 256
 308 733 303.167 721 293.5 711 c 256
 283.832 701 271.666 696 257 696 c 256
 243 696 231 701 221 711 c 256
 211 721 206 733 206 747 c 256
 206 761.667 211 774.167 221 784.5 c 256
 231 794.833 243.333 800 258 800 c 257
 258 800 l 257
EndSplineSet
PickledDataWithLists: "(dp0
Vpublic.postscript.hints
p1
(dp2
VformatVersion
p3
V1
p4
sVhintSetList
p5
(lp6
(dp7
Vstems
p8
(lp9
Vhstem 0 29
p10
aVhstem 232 45
p11
aVhstem 696 104
p12
aVvstem 206 102
p13
aVvstem 400 102
p14
asasVid
p15
V392715a5090f651acbc99dd1c774f94ebcec454fbd53ff2fc19225f87e66d52fe4845fb495757a0ec4e7c34e148f86d22917ca58e569929ea46912bab6d1935f
p16
ss."
EndChar

StartChar: Aring
Encoding: 261 197 5
GlifName: A_ring
Width: 694
VWidth: 0
Flags: W
LayerCount: 2
Fore
SplineSet
675 0 m 257
 422 0 l 257
 422 29 l 257
 453.333 33 472.5 38.5 479.5 45.5 c 256
 483.085 49.0853 484.878 54.3759 484.878 61.3718 c 256
 484.878 68.0345 483.252 76.2439 480 86 c 258
 428 232 l 257
 218 232 l 257
 175 108 l 258
 169.231 90.3077 166.346 76.2211 166.346 65.7404 c 256
 166.346 58.0545 167.897 52.3077 171 48.5 c 256
 178.333 39.5 200.667 33 238 29 c 257
 238 0 l 257
 19 0 l 257
 19 29 l 257
 52.3333 33.6667 75.1667 41.5 87.5 52.5 c 256
 99.8333 63.5 114.333 90 131 132 c 258
 338 655 l 257
 372 665 l 257
 565 132 l 258
 580.333 89.3333 594.333 62.3333 607 51 c 256
 619.669 39.6666 642.336 32.3333 675 29 c 257
 675 0 l 257
412 277 m 257
 327 525 l 257
 325 525 l 257
 234 277 l 257
 412 277 l 257
356 857 m 257
 379.333 857 400 849.167 418 833.5 c 256
 436 817.833 445 797.333 445 772 c 256
 445 746.667 436 726 418 710 c 256
 400 694 379 686 355 686 c 256
 331 686 310.167 694 292.5 710 c 256
 274.833 726 266 746.667 266 772 c 256
 266 797.333 275 817.833 293 833.5 c 256
 311 849.167 332 857 356 857 c 257
 356 857 l 257
355 824 m 257
 342.333 824 331.833 819.167 323.5 809.5 c 256
 315.167 799.833 311 787.333 311 772 c 256
 311 756 315.167 743 323.5 733 c 256
 331.834 723 342.667 718 356 718 c 256
 368.667 718 379 723 387 733 c 256
 395 743 399 756 399 772 c 256
 399 787.333 395 799.833 387 809.5 c 256
 379 819.167 368.333 824 355 824 c 257
 355 824 l 257
EndSplineSet
PickledDataWithLists: "(dp0
Vpublic.postscript.hints
p1
(dp2
VformatVersion
p3
V1
p4
sVhintSetList
p5
(lp6
(dp7
Vstems
p8
(lp9
Vhstem 0 29
p10
aVhstem 232 45
p11
aVhstem 686 32
p12
aVhstem 824 33
p13
aVvstem 266 45
p14
aVvstem 399 46
p15
asasVid
p16
Vd11d0ed5a0f41751c52961383db5adf9194ce4baa954ef972a84f0f95a502f54d8fe4f1f676910ef97b48ccf52e6023fdaa1e48b51310ebf9eb747e236ff5ca1
p17
ss."
EndChar

StartChar: Atilde
Encoding: 262 195 6
GlifName: A_tilde
Width: 694
VWidth: 0
Flags: W
LayerCount: 2
Fore
SplineSet
676 0 m 257
 423 0 l 257
 423 29 l 257
 454.333 33 473.5 38.5 480.5 45.5 c 256
 483.919 48.9186 485.628 53.8875 485.628 60.4067 c 256
 485.628 67.2364 483.752 75.7675 480 86 c 257
 471.333 113.333 454 162 428 232 c 257
 218 232 l 257
 175 108 l 258
 169.231 90.3077 166.346 76.2211 166.346 65.7404 c 256
 166.346 58.0545 167.897 52.3077 171 48.5 c 256
 178.333 39.5 200.667 33 238 29 c 257
 238 0 l 257
 19 0 l 257
 19 29 l 257
 52.3333 33.6667 75.1667 41.5 87.5 52.5 c 256
 99.8333 63.5 114.333 90 131 132 c 258
 338 655 l 257
 373 665 l 257
 566 132 l 258
 582 89.3333 596 62.3333 608 51 c 256
 620 39.6666 642.667 32.3333 676 29 c 257
 676 0 l 257
413 277 m 257
 328 525 l 257
 325 525 l 257
 234 277 l 257
 413 277 l 257
305 790 m 257
 319 790 339.667 783.667 367 771 c 256
 390.333 760.333 409 755 423 755 c 256
 440.333 755 456 769.333 470 798 c 257
 496 784 l 257
 476.667 726 448.333 697 411 697 c 256
 395.667 697 372.333 704 341 718 c 257
 322.333 727.333 307.333 732 296 732 c 256
 278.667 732 262.333 717.333 247 688 c 257
 222 706 l 257
 244 762 271.667 790 305 790 c 257
 305 790 l 257
EndSplineSet
PickledDataWithLists: "(dp0
Vpublic.postscript.hints
p1
(dp2
VformatVersion
p3
V1
p4
sVhintSetList
p5
(lp6
(dp7
Vstems
p8
(lp9
Vhstem 0 29
p10
aVhstem 232 45
p11
aVhstem 697 58
p12
aVhstem 732 58
p13
asasVid
p14
V98c07c186ded704e0cded55e120d9b560ad4131163d0545e2bb98f837d0b28edfe91758867b33029f86190d64a491338d9f0fd9ab73752335ea504e06f65a26d
p15
ss."
EndChar

StartChar: Eth
Encoding: 263 208 7
GlifName: E_th
Width: 741
VWidth: 0
Flags: W
LayerCount: 2
Fore
SplineSet
53 650 m 257
 333 650 l 258
 459 650 551.667 621.333 611 564 c 256
 668.333 508.667 697 437.333 697 350 c 256
 697 235.333 655.333 146.333 572 83 c 256
 498.667 27.6667 401 0 279 0 c 258
 45 0 l 257
 45 29 l 257
 87.6667 32.3333 113.833 39.5 123.5 50.5 c 256
 133.167 61.5 138 90.3333 138 137 c 258
 138 319 l 257
 37 319 l 257
 37 362 l 257
 138 362 l 257
 138 513 l 258
 138 559.667 133.5 588.5 124.5 599.5 c 256
 115.5 610.5 91.6667 617.667 53 621 c 257
 53 650 l 257
232 319 m 257
 232 133 l 258
 232 97 237.833 72.3333 249.5 59 c 256
 261.167 45.6667 286.667 39 326 39 c 256
 410.667 39 475.5 66.6667 520.5 122 c 256
 565.5 177.333 588 248.333 588 335 c 256
 588 445.667 552 525 480 573 c 257
 440.667 601 387.333 615 320 615 c 256
 280 615 254.667 611.333 244 604 c 257
 236 599.333 232 585 232 561 c 258
 232 362 l 257
 386 362 l 257
 386 319 l 257
 232 319 l 257
EndSplineSet
PickledDataWithLists: "(dp0
Vpublic.postscript.hints
p1
(dp2
VformatVersion
p3
V1
p4
sVhintSetList
p5
(lp6
(dp7
Vstems
p8
(lp9
Vhstem 0 39
p10
aVhstem 0 29
p11
aVhstem 319 43
p12
aVhstem 615 35
p13
aVvstem 138 94
p14
aVvstem 588 109
p15
asasVid
p16
Vf89d6022c0efa6e8c44b6dbd88120f9a950771ec1882ffe6664866004825558bd92b730bb97889d9ee18e1b83d85e055102332543e3d1f89c3231e4a0328cdf5
p17
ss."
EndChar

StartChar: Iacute
Encoding: 264 205 8
GlifName: I_acute
Width: 347
VWidth: 0
Flags: W
LayerCount: 2
Fore
SplineSet
309 0 m 257
 37 0 l 257
 37 29 l 257
 77.6667 32.3333 102.667 38.8333 112 48.5 c 256
 121.333 58.1667 126 84 126 126 c 258
 126 524 l 258
 126 566 121.333 591.833 112 601.5 c 256
 102.667 611.167 77.6667 617.667 37 621 c 257
 37 650 l 257
 309 650 l 257
 309 621 l 257
 268.333 617.667 243.333 611.167 234 601.5 c 256
 224.667 591.833 220 566 220 524 c 258
 220 126 l 258
 220 84 224.667 58.1667 234 48.5 c 256
 243.333 38.8333 268.333 32.3333 309 29 c 257
 309 0 l 257
318 756 m 257
 316 747 l 257
 127 684 l 257
 114 710 l 257
 274 815 l 257
 280 813.667 288.5 805.667 299.5 791 c 256
 310.5 776.333 316.667 764.667 318 756 c 257
 318 756 l 257
EndSplineSet
PickledDataWithLists: "(dp0
Vpublic.postscript.hints
p1
(dp2
VformatVersion
p3
V1
p4
sVhintSetList
p5
(lp6
(dp7
Vstems
p8
(lp9
Vhstem 0 29
p10
aVhstem 621 29
p11
aVvstem 126 94
p12
asasVid
p13
V7387469839668a7e3a1ece9af6e61005a678f1113188e0e1d5cb3a8fc025dd4a7756d310230cf5f552f5d0b487e4759e106cb8c12ea076d60905cf231b41511a
p14
ss."
EndChar

StartChar: Icircumflex
Encoding: 265 206 9
GlifName: I_circumflex
Width: 347
VWidth: 0
Flags: W
LayerCount: 2
Fore
SplineSet
309 0 m 257
 37 0 l 257
 37 29 l 257
 77.6667 32.3333 102.667 38.8333 112 48.5 c 256
 121.333 58.1667 126 84 126 126 c 258
 126 524 l 258
 126 566 121.333 591.833 112 601.5 c 256
 102.667 611.167 77.6667 617.667 37 621 c 257
 37 650 l 257
 309 650 l 257
 309 621 l 257
 268.333 617.667 243.333 611.167 234 601.5 c 256
 224.667 591.833 220 566 220 524 c 258
 220 126 l 258
 220 84 224.667 58.1667 234 48.5 c 256
 243.333 38.8333 268.333 32.3333 309 29 c 257
 309 0 l 257
312 709 m 257
 296 684 l 257
 268 695.333 227 716 173 746 c 257
 117 715.333 76.3333 694.667 51 684 c 257
 35 709 l 257
 95 756.333 137.333 793 162 819 c 257
 185 819 l 257
 209.667 793 252 756.333 312 709 c 257
 312 709 l 257
EndSplineSet
PickledDataWithLists: "(dp0
Vpublic.postscript.hints
p1
(dp2
VformatVersion
p3
V1
p4
sVhintSetList
p5
(lp6
(dp7
Vstems
p8
(lp9
Vhstem 0 29
p10
aVhstem 621 29
p11
aVvstem 126 94
p12
asasVid
p13
Vf726ce7e1874786497a02344da5e4fbf77bfa47ccede99f630babceb8430c2a7b1585221a443b9b42c570b086f0ecb351a2f6468605c486bc8e4d296af7597c6
p14
ss."
EndChar

StartChar: Igrave
Encoding: 266 204 10
GlifName: I_grave
Width: 347
VWidth: 0
Flags: W
LayerCount: 2
Fore
SplineSet
309 0 m 257
 37 0 l 257
 37 29 l 257
 77.6667 32.3333 102.667 38.8333 112 48.5 c 256
 121.333 58.1667 126 84 126 126 c 258
 126 524 l 258
 126 566 121.333 591.833 112 601.5 c 256
 102.667 611.167 77.6667 617.667 37 621 c 257
 37 650 l 257
 309 650 l 257
 309 621 l 257
 268.333 617.667 243.333 611.167 234 601.5 c 256
 224.667 591.833 220 566 220 524 c 258
 220 126 l 258
 220 84 224.667 58.1667 234 48.5 c 256
 243.333 38.8333 268.333 32.3333 309 29 c 257
 309 0 l 257
239 710 m 257
 226 684 l 257
 36 747 l 257
 34 755 l 257
 36 763.667 42.3333 775.5 53 790.5 c 256
 63.6667 805.5 72.3333 814.333 79 817 c 257
 239 710 l 257
EndSplineSet
PickledDataWithLists: "(dp0
Vpublic.postscript.hints
p1
(dp2
VformatVersion
p3
V1
p4
sVhintSetList
p5
(lp6
(dp7
Vstems
p8
(lp9
Vhstem 0 29
p10
aVhstem 621 29
p11
aVvstem 126 94
p12
asasVid
p13
V46e492f3597b668980bf1a555a73bbc6d19cd77ed8a5cde18c383a21a37cdd6ec3dbf5a0fdd01e2622ba0401b06cf28b3c11326e627aaed5283024d7b3a7f7b6
p14
ss."
EndChar

StartChar: OE
Encoding: 267 338 11
GlifName: O_E_
Width: 976
VWidth: 0
Flags: W
LayerCount: 2
Fore
SplineSet
925 164 m 257
 956 159 l 257
 945.333 101.667 933.667 48.667 921 0 c 257
 612 0 l 258
 573.333 0 539 -1.3333 509 -4 c 256
 460.333 -8.66666 426.666 -11 408 -11 c 256
 290.667 -11 200.833 20.6667 138.5 84 c 256
 76.1667 147.333 45 225 45 317 c 256
 45 419.667 81.1667 502.5 153.5 565.5 c 256
 225.833 628.5 317.333 660.333 428 661 c 256
 438.667 661 449.5 660.667 460.5 660 c 256
 471.5 659.333 483.167 658.5 495.5 657.5 c 256
 507.833 656.5 517.667 655.667 525 655 c 256
 561.668 651.667 592.334 650 617 650 c 258
 897 650 l 257
 897 631.333 900 583.667 906 507 c 257
 875 503 l 257
 865.667 542.333 854.667 570.333 842 587 c 257
 835.333 597 824 603.833 808 607.5 c 256
 792 611.167 766.333 613 731 613 c 258
 659 613 l 258
 643.662 613 634.328 611.5 631 608.5 c 256
 627.667 605.5 626 596.667 626 582 c 258
 626 357 l 257
 720 357 l 258
 761.333 357 787.333 361 798 369 c 256
 808.667 377 817 397.333 823 430 c 257
 854 430 l 257
 854 238 l 257
 823 238 l 257
 816.333 273.333 807.833 295 797.5 303 c 256
 787.164 311 761.33 315 720 315 c 258
 626 315 l 257
 626 135 l 258
 626 87.6666 634 59 650 49 c 257
 662.668 40.3333 696.335 36 751 36 c 256
 787 36 813.833 38.1667 831.5 42.5 c 256
 849.167 46.8333 863.667 55.3333 875 68 c 256
 892.333 88 909 120 925 164 c 257
 925 164 l 257
533 108 m 257
 533 548 l 258
 533 578.667 526.333 598 513 606 c 257
 489.667 618.667 458 625 418 625 c 256
 336.667 625 272.667 598.5 226 545.5 c 256
 179.333 492.5 156 420.333 156 329 c 256
 156 288.333 161 250.333 171 215 c 256
 181 179.667 196.167 147.5 216.5 118.5 c 256
 236.833 89.5 264.333 66.6667 299 50 c 256
 333.667 33.3333 373.667 25 419 25 c 256
 453.667 25 480 29.6667 498 39 c 257
 511.333 45 520.5 52.8333 525.5 62.5 c 256
 530.5 72.1667 533 87.3333 533 108 c 257
 533 108 l 257
EndSplineSet
PickledDataWithLists: "(dp0
Vpublic.postscript.hints
p1
(dp2
VformatVersion
p3
V1
p4
sVhintSetList
p5
(lp6
(dp7
Vstems
p8
(lp9
Vhstem -11 36
p10
aVhstem 0 36
p11
aVhstem 315 42
p12
aVhstem 613 37
p13
aVhstem 625 36
p14
aVvstem 45 111
p15
aVvstem 533 93
p16
aVvstem 823 31
p17
aVvstem 875 31
p18
asasVid
p19
Vee3f0ecb0898d0d5d00d308c7b4cdc6dfd322794ac5c6a1d17d9a2d44516411ba8730c5d66000c8882a5823a61a7c88a688429d3346140cfe469f259cf45a8bd
p20
ss."
EndChar

StartChar: Oacute
Encoding: 268 211 12
GlifName: O_acute
Width: 750
VWidth: 0
Flags: W
LayerCount: 2
Fore
SplineSet
383 665 m 257
 471.667 665 547.833 634 611.5 572 c 256
 675.167 510 707 430.333 707 333 c 256
 707 227.667 674.667 143.333 610 80 c 256
 545.333 16.6667 465.667 -15 371 -15 c 256
 278.333 -15 200.5 16.8333 137.5 80.5 c 256
 74.5 144.167 43 223.667 43 319 c 256
 43 413 74 494.167 136 562.5 c 256
 198 630.833 280.333 665 383 665 c 257
 383 665 l 257
361 628 m 257
 303.667 628 255 603 215 553 c 256
 175 503 155 433.667 155 345 c 256
 155 252.333 177.167 175.333 221.5 114 c 256
 265.833 52.6667 322.667 22 392 22 c 256
 449.333 22 497.5 46.6667 536.5 96 c 256
 575.5 145.333 595 215.333 595 306 c 256
 595 407.333 573 486.333 529 543 c 256
 485 599.667 429 628 361 628 c 257
 361 628 l 257
509 763 m 257
 507 754 l 257
 318 691 l 257
 305 717 l 257
 465 822 l 257
 471 820.667 479.5 812.667 490.5 798 c 256
 501.5 783.333 507.667 771.667 509 763 c 257
 509 763 l 257
EndSplineSet
PickledDataWithLists: "(dp0
Vpublic.postscript.hints
p1
(dp2
VformatVersion
p3
V1
p4
sVhintSetList
p5
(lp6
(dp7
Vstems
p8
(lp9
Vhstem -15 37
p10
aVhstem 628 37
p11
aVvstem 43 112
p12
aVvstem 595 112
p13
asasVid
p14
V94a5e8474338fe1978aad107409368fee0d6cb5613058d3a5d785f6fdb1568561aec30fc265444e030a7277c5a2c57ca6af2421834c6c019c6262d58eafafe16
p15
ss."
EndChar

StartChar: Ograve
Encoding: 269 210 13
GlifName: O_grave
Width: 750
VWidth: 0
Flags: W
LayerCount: 2
Fore
SplineSet
383 665 m 257
 471.667 665 547.833 634 611.5 572 c 256
 675.167 510 707 430.333 707 333 c 256
 707 227.667 674.667 143.333 610 80 c 256
 545.333 16.6667 465.667 -15 371 -15 c 256
 278.333 -15 200.5 16.8333 137.5 80.5 c 256
 74.5 144.167 43 223.667 43 319 c 256
 43 413 74 494.167 136 562.5 c 256
 198 630.833 280.333 665 383 665 c 257
 383 665 l 257
361 628 m 257
 303.667 628 255 603 215 553 c 256
 175 503 155 433.667 155 345 c 256
 155 252.333 177.167 175.333 221.5 114 c 256
 265.833 52.6667 322.667 22 392 22 c 256
 449.333 22 497.5 46.6667 536.5 96 c 256
 575.5 145.333 595 215.333 595 306 c 256
 595 407.333 573 486.333 529 543 c 256
 485 599.667 429 628 361 628 c 257
 361 628 l 257
447 718 m 257
 434 692 l 257
 244 755 l 257
 242 763 l 257
 244 771.667 250.333 783.5 261 798.5 c 256
 271.667 813.5 280.333 822.333 287 825 c 257
 447 718 l 257
EndSplineSet
PickledDataWithLists: "(dp0
Vpublic.postscript.hints
p1
(dp2
VformatVersion
p3
V1
p4
sVhintSetList
p5
(lp6
(dp7
Vstems
p8
(lp9
Vhstem -15 37
p10
aVhstem 628 37
p11
aVvstem 43 112
p12
aVvstem 595 112
p13
asasVid
p14
V94eccecddf3bcd8342769bddc2bd437ab55b61d34a928b326db2452b392451bfec68e300fdbe35b0551f1c82dac7dade52f7cd69684a53591df6ae8e41530c1e
p15
ss."
EndChar

StartChar: Oslash
Encoding: 270 216 14
GlifName: O_slash
Width: 753
VWidth: 0
Flags: W
LayerCount: 2
Fore
SplineSet
636 674 m 257
 587 599 l 257
 625 567.667 655.5 529.167 678.5 483.5 c 256
 701.5 437.833 713 388.333 713 335 c 256
 713 230.333 680.667 145.833 616 81.5 c 256
 551.333 17.1667 470.667 -15 374 -15 c 256
 310.667 -15 253.333 1.3333 202 34 c 257
 146 -46 l 257
 118 -22 l 257
 171 55 l 257
 133 86.3333 103.167 124.667 81.5 170 c 256
 59.8333 215.333 49 265.333 49 320 c 256
 49 412.667 80.3333 493.333 143 562 c 256
 205.667 630.667 288.333 665 391 665 c 256
 453 665 507.667 650 555 620 c 257
 606 695 l 257
 636 674 l 257
220 126 m 257
 516 563 l 257
 478.667 606.333 429.667 628 369 628 c 256
 309.667 628 259.5 603 218.5 553 c 256
 177.5 503 157 433 157 343 c 256
 157 257 178 184.667 220 126 c 257
 220 126 l 257
540 532 m 257
 244 94 l 257
 280.667 46 329.667 22 391 22 c 256
 459.667 22 512.333 48.1667 549 100.5 c 256
 585.667 152.833 604 221.333 604 306 c 256
 604 394.667 582.667 470 540 532 c 257
 540 532 l 257
EndSplineSet
PickledDataWithLists: "(dp0
Vpublic.postscript.hints
p1
(dp2
VformatVersion
p3
V1
p4
sVhintSetList
p5
(lp6
(dp7
Vstems
p8
(lp9
Vhstem -15 37
p10
aVhstem 628 37
p11
aVvstem 49 108
p12
aVvstem 604 109
p13
asasVid
p14
V217c9c64d82717bc4f8d275aaf9ce31e9cf85ecb15670ce8cf168ab82daba26f229f5734cb8f2ead73e534ff34388b55622786b632172d075262e277976a74ea
p15
ss."
EndChar

StartChar: Otilde
Encoding: 271 213 15
GlifName: O_tilde
Width: 750
VWidth: 0
Flags: W
LayerCount: 2
Fore
SplineSet
383 665 m 257
 471.667 665 547.833 634 611.5 572 c 256
 675.167 510 707 430.333 707 333 c 256
 707 227.667 674.667 143.333 610 80 c 256
 545.333 16.6667 465.667 -15 371 -15 c 256
 278.333 -15 200.5 16.8333 137.5 80.5 c 256
 74.5 144.167 43 223.667 43 319 c 256
 43 413 74 494.167 136 562.5 c 256
 198 630.833 280.333 665 383 665 c 257
 383 665 l 257
361 628 m 257
 303.667 628 255 603 215 553 c 256
 175 503 155 433.667 155 345 c 256
 155 252.333 177.167 175.333 221.5 114 c 256
 265.833 52.6667 322.667 22 392 22 c 256
 449.333 22 497.5 46.6667 536.5 96 c 256
 575.5 145.333 595 215.333 595 306 c 256
 595 407.333 573 486.333 529 543 c 256
 485 599.667 429 628 361 628 c 257
 361 628 l 257
324 799 m 257
 338 799 358.667 792.667 386 780 c 256
 409.333 769.333 428 764 442 764 c 256
 459.334 764 474.668 778.333 488 807 c 257
 514 793 l 257
 495.333 735 467.333 706 430 706 c 256
 414.667 706 391.333 713 360 727 c 256
 340 736.333 325 741 315 741 c 256
 297.667 741 281.333 726.333 266 697 c 257
 241 715 l 257
 263 771 290.667 799 324 799 c 257
 324 799 l 257
EndSplineSet
PickledDataWithLists: "(dp0
Vpublic.postscript.hints
p1
(dp2
VformatVersion
p3
V1
p4
sVhintSetList
p5
(lp6
(dp7
Vstems
p8
(lp9
Vhstem -15 37
p10
aVhstem 628 37
p11
aVhstem 706 58
p12
aVhstem 741 58
p13
aVvstem 43 112
p14
aVvstem 488 26
p15
aVvstem 595 112
p16
asasVid
p17
V4d2ffbe7992981d7d9b8e11b1c97d02c1b5be57aee42f0db7cb16e019bf1605d0027e71fb6babe499b9c794fac8b4f6446a91d401e2e451365b18e26c3f867d7
p18
ss."
EndChar

StartChar: Uacute
Encoding: 272 218 16
GlifName: U_acute
Width: 735
VWidth: 0
Flags: W
LayerCount: 2
Fore
SplineSet
717 650 m 257
 717 621 l 257
 687 619 665.5 613.667 652.5 605 c 256
 639.5 596.333 632 582 630 562 c 256
 626 524.666 624 472 624 404 c 258
 624 317 l 258
 624 195.667 599 108.667 549 56 c 256
 504.333 9.3333 444.333 -14 369 -14 c 256
 303 -14 248.667 2 206 34 c 257
 148 79.3333 119 158.667 119 272 c 258
 119 519 l 258
 119 563 114.5 590.167 105.5 600.5 c 256
 96.5 610.833 72 617.667 32 621 c 257
 32 650 l 257
 299 650 l 257
 299 621 l 257
 259.667 618.333 235.5 611.833 226.5 601.5 c 256
 217.5 591.167 213 563.667 213 519 c 258
 213 294 l 258
 213 213.333 228.5 151.333 259.5 108 c 256
 290.5 64.6667 336 43 396 43 c 256
 519.333 43 581 136.667 581 324 c 258
 581 404 l 258
 581 478 578.333 531.667 573 565 c 256
 570.333 584.333 562.333 597.833 549 605.5 c 256
 535.667 613.169 511.667 618.336 477 621 c 257
 477 650 l 257
 717 650 l 257
523 756 m 257
 521 747 l 257
 332 684 l 257
 319 710 l 257
 479 815 l 257
 485 813.667 493.5 805.667 504.5 791 c 256
 515.5 776.333 521.667 764.667 523 756 c 257
 523 756 l 257
EndSplineSet
PickledDataWithLists: "(dp0
Vpublic.postscript.hints
p1
(dp2
VformatVersion
p3
V1
p4
sVhintSetList
p5
(lp6
(dp7
Vstems
p8
(lp9
Vhstem -14 57
p10
aVhstem 621 29
p11
aVvstem 119 94
p12
aVvstem 581 43
p13
asasVid
p14
V61709c2faaaca7c7aa9989c9bd63e590b944086814ed49f0c7b3649bb25dc1e4c929e7e299197221d878356060f5493fc6bff23c6a5962b4db04529718365bc3
p15
ss."
EndChar

StartChar: Ucircumflex
Encoding: 273 219 17
GlifName: U_circumflex
Width: 735
VWidth: 0
Flags: W
LayerCount: 2
Fore
SplineSet
717 650 m 257
 717 621 l 257
 687 619 665.5 613.667 652.5 605 c 256
 639.5 596.333 632 582 630 562 c 256
 626 524.666 624 472 624 404 c 258
 624 317 l 258
 624 195.667 599 108.667 549 56 c 256
 504.333 9.3333 444.333 -14 369 -14 c 256
 303 -14 248.667 2 206 34 c 257
 148 79.3333 119 158.667 119 272 c 258
 119 519 l 258
 119 563 114.5 590.167 105.5 600.5 c 256
 96.5 610.833 72 617.667 32 621 c 257
 32 650 l 257
 299 650 l 257
 299 621 l 257
 259.667 618.333 235.5 611.833 226.5 601.5 c 256
 217.5 591.167 213 563.667 213 519 c 258
 213 294 l 258
 213 213.333 228.5 151.333 259.5 108 c 256
 290.5 64.6667 336 43 396 43 c 256
 519.333 43 581 136.667 581 324 c 258
 581 404 l 258
 581 478 578.333 531.667 573 565 c 256
 570.333 584.333 562.333 597.833 549 605.5 c 256
 535.667 613.169 511.667 618.336 477 621 c 257
 477 650 l 257
 717 650 l 257
520 709 m 257
 504 684 l 257
 476 695.333 435 716 381 746 c 257
 325 715.333 284.333 694.667 259 684 c 257
 243 709 l 257
 303 756.333 345.333 793 370 819 c 257
 393 819 l 257
 417.667 793 460 756.333 520 709 c 257
 520 709 l 257
EndSplineSet
PickledDataWithLists: "(dp0
Vpublic.postscript.hints
p1
(dp2
VformatVersion
p3
V1
p4
sVhintSetList
p5
(lp6
(dp7
Vstems
p8
(lp9
Vhstem -14 57
p10
aVhstem 621 29
p11
aVvstem 119 94
p12
aVvstem 581 43
p13
asasVid
p14
V06c95f6aa9dedd33df13b0954fb7473237280d2780900f15d64f1b5786dd013849c62ce90202e101bd228a1b6812087d8d2640827490129e3ff3722e7914a621
p15
ss."
EndChar

StartChar: Udieresis
Encoding: 274 220 18
GlifName: U_dieresis
Width: 735
VWidth: 0
Flags: W
LayerCount: 2
Fore
SplineSet
716 650 m 257
 716 621 l 257
 686.667 619 665.5 613.667 652.5 605 c 256
 639.5 596.333 632 582 630 562 c 256
 626 524.666 624 472 624 404 c 258
 624 317 l 258
 624 195.667 599 108.667 549 56 c 256
 504.333 9.3333 444 -14 368 -14 c 256
 302.667 -14 248.667 2 206 34 c 257
 148 79.3333 119 158.667 119 272 c 258
 119 519 l 258
 119 563 114.5 590.167 105.5 600.5 c 256
 96.5 610.833 72 617.667 32 621 c 257
 32 650 l 257
 298 650 l 257
 298 621 l 257
 258.667 618.333 234.667 611.833 226 601.5 c 256
 217.333 591.167 213 563.667 213 519 c 258
 213 294 l 258
 213 213.333 228.5 151.333 259.5 108 c 256
 290.5 64.6667 336 43 396 43 c 256
 519.333 43 581 136.667 581 324 c 258
 581 404 l 258
 581 478 578.333 531.667 573 565 c 256
 570.333 584.333 562.333 597.833 549 605.5 c 256
 535.667 613.169 511.667 618.336 477 621 c 257
 477 650 l 257
 716 650 l 257
474 801 m 257
 476 800 l 257
 490 800 501.833 794.833 511.5 784.5 c 256
 521.167 774.167 526 761.667 526 747 c 256
 526 733 521 721 511 711 c 256
 501 701 489 696 475 696 c 256
 461 696 449 701.167 439 711.5 c 256
 429 721.833 424 733.667 424 747 c 256
 424 761.667 428.833 774.167 438.5 784.5 c 256
 448.167 794.833 460 800.333 474 801 c 257
 474 801 l 257
282 800 m 257
 296 800 307.833 794.833 317.5 784.5 c 256
 327.167 774.167 332 761.667 332 747 c 256
 332 733 327.167 721 317.5 711 c 256
 307.832 701 295.666 696 281 696 c 256
 267 696 255 701 245 711 c 256
 235 721 230 733 230 747 c 256
 230 761.667 235 774.167 245 784.5 c 256
 255 794.833 267.333 800 282 800 c 257
 282 800 l 257
EndSplineSet
PickledDataWithLists: "(dp0
Vpublic.postscript.hints
p1
(dp2
VformatVersion
p3
V1
p4
sVhintSetList
p5
(lp6
(dp7
Vstems
p8
(lp9
Vhstem -14 57
p10
aVhstem 621 29
p11
aVhstem 696 104
p12
aVvstem 119 94
p13
aVvstem 230 102
p14
aVvstem 424 102
p15
aVvstem 581 43
p16
asasVid
p17
V4924af956e169795d4927c9960be9919ee68ad07c91dc14f8a6ec9bd312929f029a870b57e8d1886b123503a493a329db3f26c7c78f2e7e9cdcee78363fe4068
p18
ss."
EndChar

StartChar: Ugrave
Encoding: 275 217 19
GlifName: U_grave
Width: 735
VWidth: 0
Flags: W
LayerCount: 2
Fore
SplineSet
717 650 m 257
 717 621 l 257
 687 619 665.5 613.667 652.5 605 c 256
 639.5 596.333 632 582 630 562 c 256
 626 524.666 624 472 624 404 c 258
 624 317 l 258
 624 195.667 599 108.667 549 56 c 256
 504.333 9.3333 444.333 -14 369 -14 c 256
 303 -14 248.667 2 206 34 c 257
 148 79.3333 119 158.667 119 272 c 258
 119 519 l 258
 119 563 114.5 590.167 105.5 600.5 c 256
 96.5 610.833 72 617.667 32 621 c 257
 32 650 l 257
 299 650 l 257
 299 621 l 257
 259.667 618.333 235.5 611.833 226.5 601.5 c 256
 217.5 591.167 213 563.667 213 519 c 258
 213 294 l 258
 213 213.333 228.5 151.333 259.5 108 c 256
 290.5 64.6667 336 43 396 43 c 256
 519.333 43 581 136.667 581 324 c 258
 581 404 l 258
 581 478 578.333 531.667 573 565 c 256
 570.333 584.333 562.333 597.833 549 605.5 c 256
 535.667 613.169 511.667 618.336 477 621 c 257
 477 650 l 257
 717 650 l 257
441 710 m 257
 428 684 l 257
 238 747 l 257
 236 755 l 257
 238 763.667 244.333 775.5 255 790.5 c 256
 265.667 805.5 274.333 814.333 281 817 c 257
 441 710 l 257
EndSplineSet
PickledDataWithLists: "(dp0
Vpublic.postscript.hints
p1
(dp2
VformatVersion
p3
V1
p4
sVhintSetList
p5
(lp6
(dp7
Vstems
p8
(lp9
Vhstem -14 57
p10
aVhstem 621 29
p11
aVvstem 119 94
p12
aVvstem 581 43
p13
asasVid
p14
V3b8d750048841026bc396cd19a47fcd6b1b3b45b055936adbdcf29c36562b5e11c65e311755d6ca1d0febe41015037a58f1d4dd7f0bcea1679004f5ec2cdab9e
p15
ss."
EndChar

StartChar: Yacute
Encoding: 276 221 20
GlifName: Y_acute
Width: 638
VWidth: 0
Flags: W
LayerCount: 2
Fore
SplineSet
625 650 m 257
 625 621 l 257
 591.664 617 568.331 610.333 555 601 c 256
 541.665 591.667 525.331 571.667 506 541 c 256
 463.333 473.667 421.666 402 381 326 c 257
 370.333 304.667 365 283.333 365 262 c 258
 365 127 l 258
 365 84.3333 370.167 58.1667 380.5 48.5 c 256
 390.834 38.8333 418.667 32.3333 464 29 c 257
 464 0 l 257
 174 0 l 257
 174 29 l 257
 218.667 32.3333 246 39 256 49 c 256
 266 59 271 85 271 127 c 258
 271 256 l 258
 271 272 264.667 291.667 252 315 c 258
 126 536 l 258
 106 570.669 90 592.836 78 602.5 c 256
 66 612.169 45.3333 618.336 16 621 c 257
 16 650 l 257
 263 650 l 257
 263 621 l 257
 229.666 617 210.333 611 205 603 c 256
 203.222 600.333 202.333 597.185 202.333 593.556 c 256
 202.333 586.297 205.889 577.111 213 566 c 257
 213.667 565.333 257.333 487.333 344 332 c 257
 401.333 436 440 510.667 460 556 c 256
 467.271 571.396 470.906 583.431 470.906 592.106 c 256
 470.906 596.953 469.771 600.751 467.5 603.5 c 256
 461.167 611.167 439.333 617 402 621 c 257
 402 650 l 257
 625 650 l 257
477 756 m 257
 475 747 l 257
 287 684 l 257
 274 709 l 257
 433 815 l 257
 439 813.667 447.5 805.667 458.5 791 c 256
 469.5 776.333 475.667 764.667 477 756 c 257
 477 756 l 257
EndSplineSet
PickledDataWithLists: "(dp0
Vpublic.postscript.hints
p1
(dp2
VformatVersion
p3
V1
p4
sVhintSetList
p5
(lp6
(dp7
Vstems
p8
(lp9
Vhstem 0 29
p10
aVhstem 621 29
p11
aVvstem 271 94
p12
asasVid
p13
Vd3f7af46ba617b9d1c7d29edc9c1c2d4ef3aa1630b93a55e4780772ff351c02d29255cff6de9545afcbe285425b9620edd56cc02cef730bede4bbe14b677eee9
p14
ss."
EndChar

StartChar: aacute
Encoding: 277 225 21
GlifName: aacute
Width: 444
VWidth: 0
Flags: W
LayerCount: 2
Fore
SplineSet
438 40 m 257
 349 -12 l 257
 329.667 -12 313.333 -5.33333 300 8 c 256
 288.667 19.3333 280.333 33.6667 275 51 c 257
 273 49.6666 267.5 45.8333 258.5 39.5 c 256
 249.5 33.1667 243.167 28.8333 239.5 26.5 c 256
 235.833 24.1667 230.167 20.3333 222.5 15 c 256
 214.833 9.66667 208.833 6 204.5 4 c 256
 200.167 2 195 -0.5 189 -3.5 c 256
 183 -6.5 177.667 -8.6667 173 -10 c 256
 168.333 -11.3333 164 -12 160 -12 c 256
 124.667 -12 95.3333 0.5 72 25.5 c 256
 48.6667 50.5 37 79 37 111 c 256
 37 157.667 63.6667 190.333 117 209 c 256
 205 239.667 257 261.667 273 275 c 257
 273 294 l 258
 273 328.667 265.833 355.833 251.5 375.5 c 256
 237.167 395.167 217.667 405 193 405 c 256
 175 405 160.667 398.667 150 386 c 256
 138.667 372.667 129 350.333 121 319 c 256
 116.333 302.333 105.667 294 89 294 c 256
 78.3333 294 67.8333 298.5 57.5 307.5 c 256
 47.1667 316.5 42 326.667 42 338 c 256
 42 350 53 364 75 380 c 256
 92.3334 392.667 115.667 406.167 145 420.5 c 256
 174.333 434.834 201.667 444.668 227 450 c 257
 261 450 289.333 441 312 423 c 256
 342.667 397.667 358 356 358 298 c 258
 358 116 l 258
 358 76.6667 369.667 57 393 57 c 256
 405 57 416.667 60.3333 428 67 c 257
 438 40 l 257
273 83 m 257
 273 240 l 257
 267 236.667 258.833 232.5 248.5 227.5 c 256
 238.167 222.5 226.667 217.167 214 211.5 c 256
 201.333 205.833 193 202 189 200 c 256
 169 190 154.333 179.667 145 169 c 256
 135.667 158.333 131 144.333 131 127 c 256
 131 103 138.167 84.3333 152.5 71 c 256
 166.833 57.6667 182.667 51 200 51 c 256
 226 51 250.333 61.6667 273 83 c 257
 273 83 l 257
205 492 m 257
 178 506 l 257
 183.333 518 190.667 535.833 200 559.5 c 256
 209.333 583.168 218.333 605.834 227 627.5 c 258
 242 665 l 257
 247.333 667.687 261.5 670.354 284.5 673 c 256
 299.833 674.778 311.389 675.667 319.167 675.667 c 256
 323.056 675.667 326 675.445 328 675 c 257
 332 665 l 257
 205 492 l 257
EndSplineSet
PickledDataWithLists: "(dp0
Vpublic.postscript.hints
p1
(dp2
VformatVersion
p3
V1
p4
sVhintSetList
p5
(lp6
(dp7
Vstems
p8
(lp9
Vhstem -12 63
p10
aVhstem 405 45
p11
aVvstem 37 94
p12
aVvstem 42 79
p13
aVvstem 273 85
p14
asasVid
p15
V9b26cba73d547d2a8807f5736c46d120927de4ffd076b13bd5ad40b691f89dfdde1d39a3adef3c8d21512095ef19bdddc1da92a5523e2ae0c7ceccacb8c74010
p16
ss."
EndChar

StartChar: acircumflex
Encoding: 278 226 22
GlifName: acircumflex
Width: 444
VWidth: 0
Flags: W
LayerCount: 2
Fore
SplineSet
438 40 m 257
 349 -12 l 257
 329.667 -12 313.333 -5.33333 300 8 c 256
 288.667 19.3333 280.333 33.6667 275 51 c 257
 273 49.6666 267.5 45.8333 258.5 39.5 c 256
 249.5 33.1667 243.167 28.8333 239.5 26.5 c 256
 235.833 24.1667 230.167 20.3333 222.5 15 c 256
 214.833 9.66667 208.833 6 204.5 4 c 256
 200.167 2 195 -0.5 189 -3.5 c 256
 183 -6.5 177.667 -8.6667 173 -10 c 256
 168.333 -11.3333 164 -12 160 -12 c 256
 124.667 -12 95.3333 0.5 72 25.5 c 256
 48.6667 50.5 37 79 37 111 c 256
 37 157.667 63.6667 190.333 117 209 c 256
 205 239.667 257 261.667 273 275 c 257
 273 294 l 258
 273 328.667 265.833 355.833 251.5 375.5 c 256
 237.167 395.167 217.667 405 193 405 c 256
 175 405 160.667 398.667 150 386 c 256
 138.667 372.667 129 350.333 121 319 c 256
 116.333 302.333 105.667 294 89 294 c 256
 78.3333 294 67.8333 298.5 57.5 307.5 c 256
 47.1667 316.5 42 326.667 42 338 c 256
 42 350 53 364 75 380 c 256
 92.3334 392.667 115.667 406.167 145 420.5 c 256
 174.333 434.834 201.667 444.668 227 450 c 257
 261 450 289.333 441 312 423 c 256
 342.667 397.667 358 356 358 298 c 258
 358 116 l 258
 358 76.6667 369.667 57 393 57 c 256
 405 57 416.667 60.3333 428 67 c 257
 438 40 l 257
273 83 m 257
 273 240 l 257
 267 236.667 258.833 232.5 248.5 227.5 c 256
 238.167 222.5 226.667 217.167 214 211.5 c 256
 201.333 205.833 193 202 189 200 c 256
 169 190 154.333 179.667 145 169 c 256
 135.667 158.333 131 144.333 131 127 c 256
 131 103 138.167 84.3333 152.5 71 c 256
 166.833 57.6667 182.667 51 200 51 c 256
 226 51 250.333 61.6667 273 83 c 257
 273 83 l 257
326 508 m 257
 301 490 l 257
 277.667 510.667 247.667 542.667 211 586 c 257
 174.333 542.667 144.333 510.667 121 490 c 257
 96 508 l 257
 131.333 557.333 165.333 612.333 198 673 c 257
 225 673 l 257
 255.667 614.333 289.333 559.333 326 508 c 257
 326 508 l 257
EndSplineSet
PickledDataWithLists: "(dp0
Vpublic.postscript.hints
p1
(dp2
VformatVersion
p3
V1
p4
sVhintSetList
p5
(lp6
(dp7
Vstems
p8
(lp9
Vhstem -12 63
p10
aVhstem 405 45
p11
aVhstem 586 87
p12
aVvstem 37 94
p13
aVvstem 42 79
p14
aVvstem 273 85
p15
asasVid
p16
Vc6aa00d692745c96bd3d380cad72e6e401faf8c15d5b83e1775b2b96e4b4cc98668ae6fcbcf14e11d1bbffe3706c49e430c76fe9eb4f905663197290d4deefb4
p17
ss."
EndChar

StartChar: adieresis
Encoding: 279 228 23
GlifName: adieresis
Width: 444
VWidth: 0
Flags: W
LayerCount: 2
Fore
SplineSet
439 40 m 257
 350 -12 l 257
 330 -12 313.333 -5.33333 300 8 c 256
 290 18 282 32.3333 276 51 c 257
 215.333 9 176.667 -12 160 -12 c 256
 124.667 -12 95.5 0.3333 72.5 25 c 256
 49.5 49.6667 38 78.3333 38 111 c 256
 38 157.667 64.6667 190.333 118 209 c 256
 207.333 241 259.333 263 274 275 c 257
 274 294 l 258
 274 329.334 266.667 356.667 252 376 c 256
 237.333 395.333 217.667 405 193 405 c 256
 175.667 405 161.333 398.667 150 386 c 256
 138.667 372.667 129 350.333 121 319 c 256
 116.333 302.333 106 294 90 294 c 256
 79.3333 294 68.8333 298.5 58.5 307.5 c 256
 48.1667 316.5 43 326.667 43 338 c 256
 43 350 53.6667 364 75 380 c 257
 126.333 416 177.333 439.333 228 450 c 257
 261.334 450 289.667 441 313 423 c 257
 343.667 397.667 359 356 359 298 c 258
 359 116 l 258
 359 76.6667 370.333 57 393 57 c 256
 405.667 57 417.667 60.3333 429 67 c 257
 439 40 l 257
274 83 m 257
 274 240 l 257
 268 236.667 259.833 232.5 249.5 227.5 c 256
 239.167 222.5 227.667 217.167 215 211.5 c 256
 202.333 205.833 194 202 190 200 c 256
 169.333 190 154.333 179.667 145 169 c 256
 135.667 158.333 131 144.333 131 127 c 256
 131 103 138.333 84.3333 153 71 c 256
 167.667 57.6667 183.667 51 201 51 c 256
 227 51 251.333 61.6667 274 83 c 257
 274 83 l 257
124 534 m 257
 110.667 534 98.8333 539.167 88.5 549.5 c 256
 78.1667 559.833 73 572 73 586 c 256
 73 600.667 78.1667 613 88.5 623 c 256
 98.8333 633 111 638 125 638 c 256
 139 638 151 633 161 623 c 256
 171 613 176 600.667 176 586 c 256
 176 572 171 559.833 161 549.5 c 256
 151 539.167 138.667 534 124 534 c 257
 124 534 l 257
299 534 m 257
 285.667 534 273.833 539.167 263.5 549.5 c 256
 253.167 559.833 248 572 248 586 c 256
 248 600.667 253.167 613 263.5 623 c 256
 273.833 633 286 638 300 638 c 256
 314 638 325.833 633 335.5 623 c 256
 345.167 613 350 600.667 350 586 c 256
 350 572 345 559.833 335 549.5 c 256
 325 539.167 313 534 299 534 c 257
 299 534 l 257
EndSplineSet
PickledDataWithLists: "(dp0
Vpublic.postscript.hints
p1
(dp2
VformatVersion
p3
V1
p4
sVhintSetList
p5
(lp6
(dp7
Vstems
p8
(lp9
Vhstem -12 63
p10
aVhstem 405 45
p11
aVhstem 534 104
p12
aVvstem 38 93
p13
aVvstem 43 78
p14
aVvstem 73 103
p15
aVvstem 248 102
p16
aVvstem 274 85
p17
asasVid
p18
Vfced0dbcfb857eff7d12ac72f855fc182abb7149a853f243f344698911763ae32d2e0a124266b85d7002df1ef649e5720d677f44ff9275a529bc211c03aa4990
p19
ss."
EndChar

StartChar: ae
Encoding: 280 230 24
GlifName: ae
Width: 671
VWidth: 0
Flags: W
LayerCount: 2
Fore
SplineSet
282 276 m 257
 282 300 l 258
 282 330.667 273.833 355.833 257.5 375.5 c 256
 241.166 395.167 221.333 405 198 405 c 256
 178.667 405 163.333 397.667 152 383 c 257
 142.667 372.333 133.667 351 125 319 c 256
 120.333 301.667 110.333 293 95 293 c 256
 85.6667 293 75.1667 297.667 63.5 307 c 256
 51.8333 316.333 46 326 46 336 c 256
 46 350 56.6667 364.667 78 380 c 256
 128.667 414.667 180 438 232 450 c 257
 262 450 287 442.667 307 428 c 257
 325.667 416 339 399 347 377 c 257
 390.334 424.334 438.667 448.668 492 450 c 257
 534.667 450 571.167 434.5 601.5 403.5 c 256
 631.833 372.5 647.333 337 648 297 c 256
 648 285.667 646.333 277.5 643 272.5 c 256
 639.662 267.5 633.328 264 624 262 c 257
 600 255.333 512.667 249.667 362 245 c 257
 361.985 243.681 361.978 242.369 361.978 241.064 c 256
 361.978 182.333 376.652 137.478 406 106.5 c 256
 436 74.8333 472.333 59 515 59 c 256
 553 59 589.667 75.3333 625 108 c 257
 643 86 l 257
 617 50.6667 588.333 25.5 557 10.5 c 256
 525.666 -4.5 499 -12 477 -12 c 256
 405 -12 351.333 17.3333 316 76 c 257
 282 49 l 257
 227.333 8.33329 187 -12 161 -12 c 256
 125 -12 95.5 0.333292 72.5 25 c 256
 49.5 49.6667 38 77.6667 38 109 c 256
 38 156.333 64 189.667 116 209 c 257
 208.667 241 264 263.333 282 276 c 257
 282 276 l 257
468 412 m 257
 444.667 412 423.167 400.833 403.5 378.5 c 256
 383.833 356.167 372 325.333 368 286 c 257
 533 289 l 258
 547.667 289 555 296.667 555 312 c 256
 555 339.333 547.167 362.833 531.5 382.5 c 256
 515.833 402.167 494.667 412 468 412 c 257
 468 412 l 257
204 54 m 257
 242 54 274.333 71.3334 301 106 c 257
 287.667 134 281 178.667 281 240 c 257
 275 237.333 266.833 233.667 256.5 229 c 256
 246.167 224.333 234.333 219.167 221 213.5 c 256
 207.667 207.833 197 203.333 189 200 c 256
 168.333 191.333 153.5 181.833 144.5 171.5 c 256
 135.5 161.167 131 147.333 131 130 c 256
 131 106 138.333 87.3333 153 74 c 256
 167.667 60.6667 184.667 54 204 54 c 257
 204 54 l 257
EndSplineSet
PickledDataWithLists: "(dp0
Vpublic.postscript.hints
p1
(dp2
VformatVersion
p3
V1
p4
sVhintSetList
p5
(lp6
(dp7
Vstems
p8
(lp9
Vhstem -12 66
p10
aVhstem 245 41
p11
aVhstem 405 45
p12
aVhstem 412 38
p13
aVvstem 38 93
p14
aVvstem 46 79
p15
aVvstem 281 80.98
p16
aVvstem 555 93
p17
asasVid
p18
V0a8c714107d978c6316875292f1b6ae4a9320fcb9b9b2695cb6870d21f4d9d7386235778488c57e394c5f2785624bc6e775b8045c72dc698b59953061846973a
p19
ss."
EndChar

StartChar: aring
Encoding: 281 229 25
GlifName: aring
Width: 444
VWidth: 0
Flags: W
LayerCount: 2
Fore
SplineSet
438 40 m 257
 349 -12 l 257
 329.667 -12 313.333 -5.33333 300 8 c 256
 288.667 19.3333 280.333 33.6667 275 51 c 257
 273 49.6666 267.5 45.8333 258.5 39.5 c 256
 249.5 33.1667 243.167 28.8333 239.5 26.5 c 256
 235.833 24.1667 230.167 20.3333 222.5 15 c 256
 214.833 9.66667 208.833 6 204.5 4 c 256
 200.167 2 195 -0.5 189 -3.5 c 256
 183 -6.5 177.667 -8.6667 173 -10 c 256
 168.333 -11.3333 164 -12 160 -12 c 256
 124.667 -12 95.3333 0.5 72 25.5 c 256
 48.6667 50.5 37 79 37 111 c 256
 37 157.667 63.6667 190.333 117 209 c 256
 205 239.667 257 261.667 273 275 c 257
 273 294 l 258
 273 328.667 265.833 355.833 251.5 375.5 c 256
 237.167 395.167 217.667 405 193 405 c 256
 175 405 160.667 398.667 150 386 c 256
 138.667 372.667 129 350.333 121 319 c 256
 116.333 302.333 105.667 294 89 294 c 256
 78.3333 294 67.8333 298.5 57.5 307.5 c 256
 47.1667 316.5 42 326.667 42 338 c 256
 42 350 53 364 75 380 c 256
 92.3334 392.667 115.667 406.167 145 420.5 c 256
 174.333 434.834 201.667 444.668 227 450 c 257
 261 450 289.333 441 312 423 c 256
 342.667 397.667 358 356 358 298 c 258
 358 116 l 258
 358 76.6667 369.667 57 393 57 c 256
 405 57 416.667 60.3333 428 67 c 257
 438 40 l 257
273 83 m 257
 273 240 l 257
 267 236.667 258.833 232.5 248.5 227.5 c 256
 238.167 222.5 226.667 217.167 214 211.5 c 256
 201.333 205.833 193 202 189 200 c 256
 169 190 154.333 179.667 145 169 c 256
 135.667 158.333 131 144.333 131 127 c 256
 131 103 138.167 84.3333 152.5 71 c 256
 166.833 57.6667 182.667 51 200 51 c 256
 226 51 250.333 61.6667 273 83 c 257
 273 83 l 257
213 499 m 257
 189 499 168 507 150 523 c 256
 132 539 123 559.667 123 585 c 256
 123 610.333 132.167 630.833 150.5 646.5 c 256
 168.833 662.167 190 670 214 670 c 256
 237.333 670 258 662.167 276 646.5 c 256
 294 630.833 303 610.333 303 585 c 256
 303 559.667 293.833 539 275.5 523 c 256
 257.167 507 236.333 499 213 499 c 257
 213 499 l 257
214 531 m 257
 227.333 531 238 536 246 546 c 256
 254 556 258 569 258 585 c 256
 258 600.333 254 612.833 246 622.5 c 256
 238 632.167 227 637 213 637 c 256
 200.333 637 189.833 632 181.5 622 c 256
 173.167 612 169 599.667 169 585 c 256
 169 569.662 173.333 556.829 182 546.5 c 256
 190.667 536.167 201.334 531 214 531 c 257
 214 531 l 257
EndSplineSet
PickledDataWithLists: "(dp0
Vpublic.postscript.hints
p1
(dp2
VformatVersion
p3
V1
p4
sVhintSetList
p5
(lp6
(dp7
Vstems
p8
(lp9
Vhstem -12 63
p10
aVhstem 405 45
p11
aVhstem 499 32
p12
aVhstem 637 33
p13
aVvstem 37 94
p14
aVvstem 42 79
p15
aVvstem 123 46
p16
aVvstem 258 45
p17
aVvstem 273 85
p18
asasVid
p19
V85eae328923b830616d5f32894327cdbb120a9a2a548af5cb0ad358a6f1ac55b03d67ee701821e2c0477108aec4a8be60f131e02ea53172df5827dcc0761e685
p20
ss."
EndChar

StartChar: asciitilde
Encoding: 126 126 26
GlifName: asciitilde
Width: 579
VWidth: 0
Flags: W
LayerCount: 2
Fore
SplineSet
488 310 m 257
 526 288 l 257
 502.667 214.667 459.667 178 397 178 c 256
 362.333 178 320.333 193 271 223 c 256
 235.667 244.333 206 255 182 255 c 256
 144 255 113.667 227.333 91 172 c 257
 54 199 l 257
 84 271 128 307 186 307 c 256
 218.667 307 257 294.333 301 269 c 256
 345 243.667 379.333 231 404 231 c 256
 423.334 231 439.667 237.333 453 250 c 256
 466.333 262.667 478 282.667 488 310 c 257
 488 310 l 257
EndSplineSet
PickledDataWithLists: "(dp0
Vpublic.postscript.hints
p1
(dp2
VformatVersion
p3
V1
p4
sVhintSetList
p5
(lp6
(dp7
Vstems
p8
(lp9
Vhstem 178 53
p10
aVhstem 255 52
p11
aVvstem 488 38
p12
asasVid
p13
Va044c7dbefc5ba28334fde07727b0d824736fb298a648ab528d1e910e1ff6151340cad64d854c1524bcc406746fd96ed8ee43040e17b84f67fc66c160cb1ecca
p14
ss."
EndChar

StartChar: atilde
Encoding: 282 227 27
GlifName: atilde
Width: 444
VWidth: 0
Flags: W
LayerCount: 2
Fore
SplineSet
438 40 m 257
 349 -12 l 257
 329.667 -12 313.333 -5.33333 300 8 c 256
 288.667 19.3333 280.333 33.6667 275 51 c 257
 273 49.6666 267.5 45.8333 258.5 39.5 c 256
 249.5 33.1667 243.167 28.8333 239.5 26.5 c 256
 235.833 24.1667 230.167 20.3333 222.5 15 c 256
 214.833 9.66667 208.833 6 204.5 4 c 256
 200.167 2 195 -0.5 189 -3.5 c 256
 183 -6.5 177.667 -8.6667 173 -10 c 256
 168.333 -11.3333 164 -12 160 -12 c 256
 124.667 -12 95.3333 0.5 72 25.5 c 256
 48.6667 50.5 37 79 37 111 c 256
 37 157.667 63.6667 190.333 117 209 c 256
 205 239.667 257 261.667 273 275 c 257
 273 294 l 258
 273 328.667 265.833 355.833 251.5 375.5 c 256
 237.167 395.167 217.667 405 193 405 c 256
 175 405 160.667 398.667 150 386 c 256
 138.667 372.667 129 350.333 121 319 c 256
 116.333 302.333 105.667 294 89 294 c 256
 78.3333 294 67.8333 298.5 57.5 307.5 c 256
 47.1667 316.5 42 326.667 42 338 c 256
 42 350 53 364 75 380 c 256
 92.3334 392.667 115.667 406.167 145 420.5 c 256
 174.333 434.834 201.667 444.668 227 450 c 257
 261 450 289.333 441 312 423 c 256
 342.667 397.667 358 356 358 298 c 258
 358 116 l 258
 358 76.6667 369.667 57 393 57 c 256
 405 57 416.667 60.3333 428 67 c 257
 438 40 l 257
273 83 m 257
 273 240 l 257
 267 236.667 258.833 232.5 248.5 227.5 c 256
 238.167 222.5 226.667 217.167 214 211.5 c 256
 201.333 205.833 193 202 189 200 c 256
 169 190 154.333 179.667 145 169 c 256
 135.667 158.333 131 144.333 131 127 c 256
 131 103 138.167 84.3333 152.5 71 c 256
 166.833 57.6667 182.667 51 200 51 c 256
 226 51 250.333 61.6667 273 83 c 257
 273 83 l 257
108 519 m 257
 81 536 l 257
 101 598 128.667 629 164 629 c 256
 177.333 629 197 622.333 223 609 c 256
 248.333 596.333 266.333 590 277 590 c 256
 292.333 590 307 605.333 321 636 c 257
 347 622 l 257
 328.333 559.333 301.333 528 266 528 c 256
 251.333 528 229.333 535.667 200 551 c 257
 182.667 561.667 167 567 153 567 c 256
 136.333 567 121.333 551 108 519 c 257
 108 519 l 257
EndSplineSet
PickledDataWithLists: "(dp0
Vpublic.postscript.hints
p1
(dp2
VformatVersion
p3
V1
p4
sVhintSetList
p5
(lp6
(dp7
Vstems
p8
(lp9
Vhstem -12 63
p10
aVhstem 405 45
p11
aVhstem 528 62
p12
aVhstem 567 62
p13
aVvstem 37 94
p14
aVvstem 42 79
p15
aVvstem 81 27
p16
aVvstem 273 85
p17
aVvstem 321 26
p18
asasVid
p19
V888663f7f19aaa208f3618ca91720e209f82aef6891845f6100911cc777ff793fee64292600e861398183ae8e561e8b31813ca7cc4d1396e6e31bca821c7a896
p20
ss."
EndChar

StartChar: brokenbar
Encoding: 283 166 28
GlifName: brokenbar
Width: 264
VWidth: 0
Flags: W
LayerCount: 2
Fore
SplineSet
166 325 m 257
 99 325 l 257
 99 675 l 257
 166 675 l 257
 166 325 l 257
166 -175 m 257
 99 -175 l 257
 99 175 l 257
 166 175 l 257
 166 -175 l 257
EndSplineSet
PickledDataWithLists: "(dp0
Vpublic.postscript.hints
p1
(dp2
VformatVersion
p3
V1
p4
sVhintSetList
p5
(lp6
(dp7
Vstems
p8
(lp9
Vvstem 99 67
p10
asasVid
p11
Vw264m166,325l99,325l99,675l166,675m166,-175l99,-175l99,175l166,175
p12
ss."
EndChar

StartChar: cedilla
Encoding: 284 184 29
GlifName: cedilla
Width: 400
VWidth: 0
Flags: W
LayerCount: 2
Fore
SplineSet
247 1 m 257
 225 -26 l 257
 219 -34.6667 216.333 -41.6667 217 -47 c 256
 217.667 -52.3333 222 -59 230 -67 c 256
 256 -93 269 -116 269 -136 c 256
 269 -156.667 258.667 -176 238 -194 c 256
 217.333 -212 189 -226.333 153 -237 c 257
 141 -211 l 257
 181 -193.667 201 -173.667 201 -151 c 256
 201 -140.333 193.667 -127.667 179 -113 c 257
 165.667 -101 158.167 -90.6667 156.5 -82 c 256
 156.262 -80.7619 156.143 -79.4762 156.143 -78.1429 c 256
 156.143 -70.1429 160.429 -60.4286 169 -49 c 258
 207 1 l 257
 247 1 l 257
EndSplineSet
PickledDataWithLists: "(dp0
Vpublic.postscript.hints
p1
(dp2
VformatVersion
p3
V1
p4
sVhintSetList
p5
(lp6
(dp7
Vstems
p8
(lp9
Vhstem -237 238
p10
aVvstem 201 68
p11
asasVid
p12
Ve6cbce0861d4801e93f38c9a31588a6a55645d409580fc45f22f3ca033887bbd08236e01d5d4ca8af3b86179e9c3cdfef33b18b7049d72762de7828c5f719d31
p13
ss."
EndChar

StartChar: cent
Encoding: 285 162 30
GlifName: cent
Width: 483
VWidth: 0
Flags: W
LayerCount: 2
Fore
SplineSet
420 221 m 257
 437 197 l 257
 417 171 393.667 149.167 367 131.5 c 256
 340.333 113.833 314.333 103 289 99 c 257
 289 1 l 257
 253 1 l 257
 253 97 l 257
 193.667 98.3333 145 119 107 159 c 256
 69 199 50 245.667 50 299 c 256
 50 335.667 58.5 370 75.5 402 c 256
 92.5 434 115.333 460.667 144 482 c 256
 176 506 212.333 522.667 253 532 c 257
 253 615 l 257
 289 615 l 257
 289 536 l 257
 293.667 536.667 299.333 537 306 537 c 256
 348 537 381.667 528.333 407 511 c 256
 416.333 504.331 421 495.665 421 485 c 256
 421 474.333 416.833 464.333 408.5 455 c 256
 400.167 445.667 392 441 384 441 c 256
 380 441 375 444 369 450 c 256
 343.667 475.334 317 489.668 289 493 c 257
 289 164 l 257
 289.8 163.989 290.59 163.983 291.37 163.983 c 256
 337.146 163.983 380.023 182.989 420 221 c 257
 420 221 l 257
253 168 m 257
 253 494 l 257
 223 492.667 195.833 479 171.5 453 c 256
 147.167 427 135 389.333 135 340 c 256
 135 288.667 146.833 249 170.5 221 c 256
 194.167 193 221.667 175.333 253 168 c 257
 253 168 l 257
EndSplineSet
PickledDataWithLists: "(dp0
Vpublic.postscript.hints
p1
(dp2
VformatVersion
p3
V1
p4
sVhintSetList
p5
(lp6
(dp7
Vstems
p8
(lp9
Vhstem 22 -21
p10
aVhstem 441 96
p11
aVvstem 50 85
p12
aVvstem 253 36
p13
asasVid
p14
V0ab68d791c998534a333d4376d0fbe8392ea657e987e03c48f578f819a4096aeda003351bf8fe3e6f266679e8bf30aed4c2ba000d22b5ae71112053d185ff286
p15
ss."
EndChar

StartChar: circumflex
Encoding: 286 710 31
GlifName: circumflex
Width: 300
VWidth: 0
Flags: W
LayerCount: 2
Fore
SplineSet
168.5 724 m 257
 198.5 688 235.5 654 271.5 627 c 257
 268.5 618 264.5 610 255.5 606 c 257
 216.5 624 182.5 642 149.5 667 c 257
 112.5 640 80.5 623 42.5 606 c 257
 33.5 612 30.5 618 28.5 627 c 257
 65.5 655 98.5 690 129.5 724 c 257
 136.5 728 142.5 730 148.5 730 c 256
 154.5 730 160.5 728 168.5 724 c 257
 168.5 724 l 257
EndSplineSet
PickledDataWithLists: "(dp0
Vpublic.postscript.hints
p1
(dp2
VformatVersion
p3
V1
p4
sVhintSetList
p5
(lp6
(dp7
Vstems
p8
(lp9
Vhstem 606 124
p10
aVvstem 28.5 243
p11
asasVid
p12
V723cbf812ed7c7911de6928d295f651199c45882f464d8d25ed3aef261370125b88eb3f5fa437b46d0a1f6cb6f5be3c963310497fcc992e3b972799b4290c3eb
p13
ss."
EndChar

StartChar: copyright
Encoding: 287 169 32
GlifName: copyright
Width: 701
VWidth: 0
Flags: W
LayerCount: 2
Fore
SplineSet
352 627 m 257
 437.334 627 508.667 597.5 566 538.5 c 256
 623.333 479.5 652 407.333 652 322 c 256
 652 237.333 623.333 165.667 566 107 c 256
 508.667 48.3333 437 19 351 19 c 256
 265 19 193.167 48.3333 135.5 107 c 256
 77.8333 165.667 49 237.333 49 322 c 256
 49 407.333 78 479.5 136 538.5 c 256
 194 597.5 266 627 352 627 c 257
 352 627 l 257
350 592 m 257
 277.333 592 217 566.333 169 515 c 256
 121 463.667 97 399.667 97 323 c 256
 97 247 121.167 183.167 169.5 131.5 c 256
 217.833 79.8333 278.333 54 351 54 c 256
 423.667 54 484 79.8333 532 131.5 c 256
 580 183.167 604 247 604 323 c 256
 604 399.667 580 463.667 532 515 c 256
 484 566.333 423.333 592 350 592 c 257
 350 592 l 257
480 263 m 257
 503 258 l 257
 486.331 199.333 477.665 169.333 477 168 c 257
 441 155.333 406 149 372 149 c 256
 311.333 149 264.5 166 231.5 200 c 256
 198.5 234 182 274 182 320 c 256
 182 374 200.833 417 238.5 449 c 256
 276.167 481 322 497 376 497 c 256
 419.333 497 454.333 491 481 479 c 257
 481.667 471.667 482.5 463.667 483.5 455 c 256
 484.5 446.332 485.833 435.666 487.5 423 c 256
 489.167 410.333 490.667 399 492 389 c 257
 469 385 l 257
 451.667 440.333 418.667 468 370 468 c 256
 335.333 468 308 454.833 288 428.5 c 256
 268 402.167 258 368.333 258 327 c 256
 258 283.667 269 248.167 291 220.5 c 256
 313 192.833 340.333 179 373 179 c 256
 420.333 179 456 207 480 263 c 257
 480 263 l 257
EndSplineSet
PickledDataWithLists: "(dp0
Vpublic.postscript.hints
p1
(dp2
VformatVersion
p3
V1
p4
sVhintSetList
p5
(lp6
(dp7
Vstems
p8
(lp9
Vhstem 19 35
p10
aVhstem 149 30
p11
aVhstem 468 29
p12
aVhstem 592 35
p13
aVvstem 49 48
p14
aVvstem 182 76
p15
aVvstem 469 23
p16
aVvstem 604 48
p17
asasVid
p18
V0edefe02ea694da8857c21495e80885c88e12a3fb7369dda897b061f961b546959edbe8a2fb99574579a4bc3eb8cebbc84cabec6223977f9c0ced49893725a09
p19
ss."
EndChar

StartChar: dieresis
Encoding: 288 168 33
GlifName: dieresis
Width: 400
VWidth: 0
Flags: W
LayerCount: 2
Fore
SplineSet
112 535 m 257
 98 535 86 540.167 76 550.5 c 256
 66 560.833 61 573 61 587 c 256
 61 601.667 66 614 76 624 c 256
 86 634 98.3333 639 113 639 c 256
 127 639 138.833 634 148.5 624 c 256
 158.167 614 163 601.667 163 587 c 256
 163 573 158 560.833 148 550.5 c 256
 138 540.167 126 535 112 535 c 257
 112 535 l 257
287 535 m 257
 273 535 261 540.167 251 550.5 c 256
 241 560.833 236 573 236 587 c 256
 236 601.667 241 614 251 624 c 256
 261 634 273.333 639 288 639 c 256
 302 639 313.833 634 323.5 624 c 256
 333.167 614 338 601.667 338 587 c 256
 338 573 333 560.833 323 550.5 c 256
 313 540.167 301 535 287 535 c 257
 287 535 l 257
EndSplineSet
PickledDataWithLists: "(dp0
Vpublic.postscript.hints
p1
(dp2
VformatVersion
p3
V1
p4
sVhintSetList
p5
(lp6
(dp7
Vstems
p8
(lp9
Vhstem 535 104
p10
aVvstem 61 102
p11
aVvstem 236 102
p12
asasVid
p13
V3125534e71bb432e1630193533e7836a67216f464fff809d041f0fe96d39f23167cf3cffb5a286c39696164b5f275dd19c28abb1f8e1a9b2f90099454ce37b84
p14
ss."
EndChar

StartChar: divide
Encoding: 289 247 34
GlifName: divide
Width: 579
VWidth: 0
Flags: W
LayerCount: 2
Fore
SplineSet
291 353 m 257
 278.333 353 266.833 358 256.5 368 c 256
 246.167 378 241 390 241 404 c 256
 241 417.334 246.167 429.167 256.5 439.5 c 256
 266.834 449.833 278.667 455 292 455 c 256
 306 455 318.167 449.833 328.5 439.5 c 256
 338.833 429.167 344 417.333 344 404 c 256
 344 389.333 338.833 377.167 328.5 367.5 c 256
 318.167 357.833 305.667 353 291 353 c 257
 291 353 l 257
530 228 m 257
 51 228 l 257
 51 280 l 257
 530 280 l 257
 530 228 l 257
292 155 m 257
 304.667 155 316.167 150 326.5 140 c 256
 336.833 130 342 118 342 104 c 256
 342 90.6667 336.667 78.8333 326 68.5 c 256
 315.332 58.1667 303.665 53 291 53 c 256
 277 53 264.833 58.1667 254.5 68.5 c 256
 244.167 78.8334 239 90.6667 239 104 c 256
 239 118.667 244 130.833 254 140.5 c 256
 264 150.167 276.667 155 292 155 c 257
 292 155 l 257
EndSplineSet
PickledDataWithLists: "(dp0
Vpublic.postscript.hints
p1
(dp2
VformatVersion
p3
V1
p4
sVhintSetList
p5
(lp6
(dp7
Vstems
p8
(lp9
Vhstem 53 102
p10
aVhstem 228 52
p11
aVhstem 353 102
p12
aVvstem 239 103
p13
asasVid
p14
V91fe75fd4ef96335fc1895017331adb56f464cd6731170f6822bd2f796cb8c26c6c89971d9378666e2b501b32d2960ab0c187d55c1aa53b37ca0470e0335fe2c
p15
ss."
EndChar

StartChar: dotlessi
Encoding: 290 305 35
GlifName: dotlessi
Width: 273
VWidth: 0
Flags: W
LayerCount: 2
Fore
SplineSet
258 0 m 257
 32 0 l 257
 32 27 l 257
 63.3334 30.3333 82.6667 36.3333 90 45 c 256
 97.3333 53.6667 101 75.3333 101 110 c 258
 101 308 l 258
 101 340.667 98 361 92 369 c 256
 86 377 68.6667 383.333 40 388 c 257
 40 412 l 257
 98.6667 422 148.333 435 189 451 c 257
 189 110 l 258
 189 75.3333 192.5 53.6667 199.5 45 c 256
 206.5 36.3333 226 30.3333 258 27 c 257
 258 0 l 257
EndSplineSet
PickledDataWithLists: "(dp0
Vpublic.postscript.hints
p1
(dp2
VformatVersion
p3
V1
p4
sVhintSetList
p5
(lp6
(dp7
Vstems
p8
(lp9
Vhstem 0 27
p10
aVhstem 388 24
p11
aVhstem 431 20
p12
aVvstem 101 88
p13
asasVid
p14
Vf2d385db25dcbab74348484ee27187fa9a548697194d5a142a474cc94e4ac136e3ff147fbfef71d26b2f43bb9f430260e0e5685714f45e322d347a01cc16bb35
p15
ss."
EndChar

StartChar: eth
Encoding: 291 240 36
GlifName: eth
Width: 508
VWidth: 0
Flags: W
LayerCount: 2
Fore
SplineSet
453 660 m 257
 337 599 l 257
 425.667 507 470 396.667 470 268 c 256
 470 176 448.5 106.333 405.5 59 c 256
 362.5 11.6667 310 -12 248 -12 c 256
 184.667 -12 133.333 10.6667 94 56 c 256
 55.3222 100.578 35.9833 150.957 35.9833 207.138 c 256
 35.9833 208.091 35.9889 209.045 36 210 c 256
 36.6667 284.667 60.3333 343.333 107 386 c 256
 153.667 428.667 204.667 450 260 450 c 258
 261 450 l 258
 291.667 450 320.667 442.667 348 428 c 257
 336 480 313 526.334 279 567 c 257
 134 489 l 257
 118 522 l 257
 253 593 l 257
 201 642.333 143.667 671 81 679 c 257
 77.6667 683 76.8333 688.5 78.5 695.5 c 256
 80.1667 702.5 83.3333 707.333 88 710 c 257
 167.333 705.333 240.333 677 307 625 c 257
 435 692 l 257
 453 660 l 257
255 416 m 257
 220.333 416 192.167 399.833 170.5 367.5 c 256
 148.833 335.167 138 292 138 238 c 256
 138 174 149.5 122.167 172.5 82.5 c 256
 195.5 42.8333 226.333 23 265 23 c 256
 336.333 23 372.333 93.3333 373 234 c 256
 373.021 236.432 373.032 238.833 373.032 241.204 c 256
 373.032 312.38 363.355 357.645 344 377 c 257
 320 403 290.333 416 255 416 c 257
 255 416 l 257
EndSplineSet
PickledDataWithLists: "(dp0
Vpublic.postscript.hints
p1
(dp2
VformatVersion
p3
V1
p4
sVhintSetList
p5
(lp6
(dp7
Vstems
p8
(lp9
Vhstem -12 35
p10
aVhstem 416 34
p11
aVhstem 679 31
p12
aVvstem 35.98 102.02
p13
aVvstem 373.03 96.97
p14
asasVid
p15
Vd9614cef756c8b25d7208c5ad9e5bc23b32549c3d9022f41419f04879c284946cb5c96b5a77673f16f54db2b2999e548bf10b48f150204e5e3615dfeabb4f7cb
p16
ss."
EndChar

StartChar: exclamdown
Encoding: 292 161 37
GlifName: exclamdown
Width: 277
VWidth: 0
Flags: W
LayerCount: 2
Fore
SplineSet
140 449 m 257
 156.667 449 170.667 443.167 182 431.5 c 256
 193.333 419.833 199 405 199 387 c 256
 199 369 193.333 354.167 182 342.5 c 256
 170.666 330.833 156.333 325 139 325 c 256
 121 325 106.333 330.833 95 342.5 c 256
 83.6667 354.167 78 369 78 387 c 256
 78 405.667 83.6667 420.667 95 432 c 256
 106.333 443.333 121.333 449 140 449 c 257
 140 449 l 257
138 -227 m 257
 99.3333 -227 80 -216 80 -194 c 256
 80 -189.333 82.3333 -163.667 87 -117 c 257
 95 -55.6667 106 62 120 236 c 257
 122.667 240.667 129.167 243 139.5 243 c 256
 149.833 243 156 240.667 158 236 c 257
 173.333 43.333 183.667 -74.333 189 -117 c 256
 194.333 -159.667 197 -185.333 197 -194 c 256
 197 -216 177.333 -227 138 -227 c 257
 138 -227 l 257
EndSplineSet
PickledDataWithLists: "(dp0
Vpublic.postscript.hints
p1
(dp2
VformatVersion
p3
V1
p4
sVhintSetList
p5
(lp6
(dp7
Vstems
p8
(lp9
Vhstem 325 124
p10
aVvstem 80 117
p11
asasVid
p12
V5acadd72035e218143a44b1fe9604591fc7b72a2fbd9df8491c88f1260ae9dee2c9a3b0177243b6025d8827fb52f5c89f003582bce5543edd9793aa6dad8072c
p13
ss."
EndChar

StartChar: fraction
Encoding: 293 8260 38
GlifName: fraction
Width: 405
VWidth: 0
Flags: W
LayerCount: 2
Fore
SplineSet
6 -283 m 257
 -53 -283 l 257
 362 1009 l 257
 421 1009 l 257
 6 -283 l 257
EndSplineSet
PickledDataWithLists: "(dp0
Vpublic.postscript.hints
p1
(dp2
VformatVersion
p3
V1
p4
sVhintSetList
p5
(lp6
(dp7
Vstems
p8
(lp9
Vhstem -262 -21
p10
aVvstem -53 59
p11
aVvstem 362 59
p12
asasVid
p13
Vw405m6,-283l-53,-283l362,1009l421,1009
p14
ss."
EndChar

StartChar: germandbls
Encoding: 294 223 39
GlifName: germandbls
Width: 550
VWidth: 0
Flags: W
LayerCount: 2
Fore
SplineSet
101 438 m 257
 101 450 l 258
 101 482.667 105.333 511.333 114 536 c 257
 127.333 582.667 155.667 623.667 199 659 c 256
 237 689.667 279.333 707 326 711 c 257
 374 709.667 412.667 695.667 442 669 c 256
 471.333 642.333 486.333 606 487 560 c 256
 487 544 483.333 530.667 476 520 c 257
 409.333 470 376 425.667 376 387 c 256
 376 375.667 379.833 363.833 387.5 351.5 c 256
 395.167 339.167 402.167 329.833 408.5 323.5 c 256
 414.835 317.167 426.668 306 444 290 c 257
 496.667 244.667 523 200.333 523 157 c 256
 523 111.667 502.167 72 460.5 38 c 256
 418.833 4 377.666 -13 337 -13 c 256
 315 -13 296.667 -8.66667 282 0 c 257
 268.286 9.14287 261.429 19.0204 261.429 29.6327 c 256
 261.429 31.4014 261.619 33.1905 262 35 c 256
 264 45 270.333 54 281 62 c 256
 289 68 296 68.3333 302 63 c 257
 327.333 43 352 33 376 33 c 256
 392.667 33 407.833 39.3333 421.5 52 c 256
 435.167 64.6667 442 84 442 110 c 256
 442 130 436.667 148.167 426 164.5 c 256
 415.333 180.833 399 199 377 219 c 256
 321.667 267 294 309 294 345 c 256
 294 363 299.167 380 309.5 396 c 256
 319.834 412 337.667 433.667 363 461 c 257
 388.333 486.334 402 500.668 404 504 c 257
 408.667 510 411 521.333 411 538 c 256
 411.019 538.985 411.029 539.968 411.029 540.947 c 256
 411.029 573.746 400.186 602.93 378.5 628.5 c 256
 356.167 654.833 328.333 668 295 668 c 256
 272.333 668 253.5 661 238.5 647 c 256
 223.5 633 212.667 612.5 206 585.5 c 256
 199.333 558.5 194.833 531.167 192.5 503.5 c 256
 190.167 475.833 189 442.333 189 403 c 258
 189 104 l 258
 189 73.3333 191.833 53.6667 197.5 45 c 256
 203.167 36.3333 217.334 30.6667 240 28 c 257
 240 0 l 257
 31 0 l 257
 31 28 l 257
 62.3333 30.6667 81.8333 36.1667 89.5 44.5 c 256
 97.1667 52.8333 101 72.3333 101 103 c 258
 101 393 l 257
 32 393 l 257
 28 405 l 257
 55 438 l 257
 101 438 l 257
EndSplineSet
PickledDataWithLists: "(dp0
Vpublic.postscript.hints
p1
(dp2
VformatVersion
p3
V1
p4
sVhintSetList
p5
(lp6
(dp7
Vstems
p8
(lp9
Vhstem -13 46
p10
aVhstem 0 28
p11
aVhstem 393 45
p12
aVhstem 668 43
p13
aVvstem 101 88
p14
aVvstem 294 82
p15
aVvstem 411.03 75.97
p16
aVvstem 442 81
p17
asasVid
p18
V9e645767b3db09395ebde8056fdf52938997f66fdc9faf861a35f2a444cb8ed69c406c7898b84d561c8c0706f584c32d8715b308623b590f987e0a6d4c27ee97
p19
ss."
EndChar

StartChar: guilsinglleft
Encoding: 295 8249 40
GlifName: guilsinglleft
Width: 263
VWidth: 0
Flags: W
LayerCount: 2
Fore
SplineSet
222.5 53 m 257
 198.5 37 l 257
 135.167 119.667 82.5 181.333 40.5 222 c 257
 85.833 267.333 138.5 329 198.5 407 c 257
 222.5 391 l 257
 131.5 222 l 257
 222.5 53 l 257
EndSplineSet
PickledDataWithLists: "(dp0
Vpublic.postscript.hints
p1
(dp2
VformatVersion
p3
V1
p4
sVhintSetList
p5
(lp6
(dp7
Vstems
p8
(lp9
Vvstem 40.5 182
p10
asasVid
p11
Vw263m222.5,53l198.5,37c135.17,119.67 82.5,181.33 40.5,222c85.83,267.33 138.5,329 198.5,407l222.5,391l131.5,222
p12
ss."
EndChar

StartChar: guilsinglright
Encoding: 296 8250 41
GlifName: guilsinglright
Width: 264
VWidth: 0
Flags: W
LayerCount: 2
Fore
SplineSet
40.5 391 m 257
 64.5 407 l 257
 125.833 329.667 178.833 268 223.5 222 c 257
 174.833 172 121.833 110.333 64.5 37 c 257
 40.5 53 l 257
 132.5 222 l 257
 40.5 391 l 257
EndSplineSet
PickledDataWithLists: "(dp0
Vpublic.postscript.hints
p1
(dp2
VformatVersion
p3
V1
p4
sVhintSetList
p5
(lp6
(dp7
Vstems
p8
(lp9
Vvstem 40.5 183
p10
asasVid
p11
Vw264m40.5,391l64.5,407c125.83,329.67 178.83,268 223.5,222c174.83,172 121.83,110.33 64.5,37l40.5,53l132.5,222
p12
ss."
EndChar

StartChar: iacute
Encoding: 297 237 42
GlifName: iacute
Width: 273
VWidth: 0
Flags: W
LayerCount: 2
Fore
SplineSet
258 0 m 257
 32 0 l 257
 32 27 l 257
 63.3334 30.3333 82.6667 36.3333 90 45 c 256
 97.3333 53.6667 101 75.3333 101 110 c 258
 101 308 l 258
 101 340.667 98 361 92 369 c 256
 86 377 68.6667 383.333 40 388 c 257
 40 412 l 257
 98.6667 422 148.333 435 189 451 c 257
 189 110 l 258
 189 75.3333 192.5 53.6667 199.5 45 c 256
 206.5 36.3333 226 30.3333 258 27 c 257
 258 0 l 257
128 492 m 257
 101 506 l 257
 106.334 518 113.667 535.833 123 559.5 c 256
 132.333 583.168 141.333 605.834 150 627.5 c 258
 165 665 l 257
 170.333 667.687 184.5 670.354 207.5 673 c 256
 222.833 674.778 234.389 675.667 242.167 675.667 c 256
 246.056 675.667 249 675.445 251 675 c 257
 255 665 l 257
 128 492 l 257
EndSplineSet
PickledDataWithLists: "(dp0
Vpublic.postscript.hints
p1
(dp2
VformatVersion
p3
V1
p4
sVhintSetList
p5
(lp6
(dp7
Vstems
p8
(lp9
Vhstem 0 27
p10
aVhstem 388 24
p11
aVhstem 431 20
p12
aVvstem 101 88
p13
asasVid
p14
Vaabf925df1e011175c74cc98ead14ae5b77c154effb1f5e6d949f36ecb49ae8384e46a1ff9d98e43648720603df50ecfbd2d8422a22fe267ccf6b99452a11a51
p15
ss."
EndChar

StartChar: icircumflex
Encoding: 298 238 43
GlifName: icircumflex
Width: 273
VWidth: 0
Flags: W
LayerCount: 2
Fore
SplineSet
258 0 m 257
 32 0 l 257
 32 27 l 257
 63.3334 30.3333 82.6667 36.3333 90 45 c 256
 97.3333 53.6667 101 75.3333 101 110 c 258
 101 308 l 258
 101 340.667 98 361 92 369 c 256
 86 377 68.6667 383.333 40 388 c 257
 40 412 l 257
 98.6667 422 148.333 435 189 451 c 257
 189 110 l 258
 189 75.3333 192.5 53.6667 199.5 45 c 256
 206.5 36.3333 226 30.3333 258 27 c 257
 258 0 l 257
250 508 m 257
 225 490 l 257
 201.667 510.667 171.667 542.667 135 586 c 257
 98.3333 542.667 68.3333 510.667 45 490 c 257
 20 508 l 257
 55.3333 557.333 89.3333 612.333 122 673 c 257
 149 673 l 257
 179.667 614.333 213.333 559.333 250 508 c 257
 250 508 l 257
EndSplineSet
PickledDataWithLists: "(dp0
Vpublic.postscript.hints
p1
(dp2
VformatVersion
p3
V1
p4
sVhintSetList
p5
(lp6
(dp7
Vstems
p8
(lp9
Vhstem 0 27
p10
aVhstem 388 24
p11
aVhstem 431 20
p12
aVvstem 101 88
p13
asasVid
p14
V102629e4b96691d8feef97ecad8ee52863578265e50ba1b8a7cb64fd201554fabb8614e6ae9622cb5ba3ee219a1f09d207c3dc019bb0cdc99f1f026b441aa4b9
p15
ss."
EndChar

StartChar: igrave
Encoding: 299 236 44
GlifName: igrave
Width: 273
VWidth: 0
Flags: W
LayerCount: 2
Fore
SplineSet
258 0 m 257
 32 0 l 257
 32 27 l 257
 63.3334 30.3333 82.6667 36.3333 90 45 c 256
 97.3333 53.6667 101 75.3333 101 110 c 258
 101 308 l 258
 101 340.667 98 361 92 369 c 256
 86 377 68.6667 383.333 40 388 c 257
 40 412 l 257
 98.6667 422 148.333 435 189 451 c 257
 189 110 l 258
 189 75.3333 192.5 53.6667 199.5 45 c 256
 206.5 36.3333 226 30.3333 258 27 c 257
 258 0 l 257
172 503 m 257
 144 490 l 257
 25 649 l 257
 28 658 l 257
 33.3333 661.333 46.3333 664.833 67 668.5 c 256
 84.4872 671.603 97.4399 673.154 105.858 673.154 c 256
 107.389 673.154 108.769 673.103 110 673 c 257
 172 503 l 257
EndSplineSet
PickledDataWithLists: "(dp0
Vpublic.postscript.hints
p1
(dp2
VformatVersion
p3
V1
p4
sVhintSetList
p5
(lp6
(dp7
Vstems
p8
(lp9
Vhstem 0 27
p10
aVhstem 388 24
p11
aVhstem 431 20
p12
aVvstem 101 88
p13
asasVid
p14
Vc3cd380e34e550a723717805d07fd7f7e44b98f605a428268238e555c7ac564c36ac10389df35a0c43d62d1ebd3d7f42294475b983092df481cb1d6dd7145f7d
p15
ss."
EndChar

StartChar: macron
Encoding: 300 175 45
GlifName: macron
Width: 400
VWidth: 0
Flags: W
LayerCount: 2
Fore
SplineSet
313 547 m 257
 88 547 l 257
 88 605 l 257
 313 605 l 257
 313 547 l 257
EndSplineSet
PickledDataWithLists: "(dp0
Vpublic.postscript.hints
p1
(dp2
VformatVersion
p3
V1
p4
sVhintSetList
p5
(lp6
(dp7
Vstems
p8
(lp9
Vhstem 547 58
p10
aVvstem 88 225
p11
asasVid
p12
Vw400m313,547l88,547l88,605l313,605
p13
ss."
EndChar

StartChar: minus
Encoding: 301 8722 46
GlifName: minus
Width: 375
VWidth: 0
Flags: W
LayerCount: 2
Fore
SplineSet
329 336 m 258
 356 336 361 314 361 287 c 256
 361 260 356 240 329 240 c 258
 46 240 l 258
 19 240 14 260 14 287 c 256
 14 314 19 336 46 336 c 258
 329 336 l 258
EndSplineSet
PickledDataWithLists: "(dp0
Vpublic.postscript.hints
p1
(dp2
VformatVersion
p3
V1
p4
sVhintSetList
p5
(lp6
(dp7
Vstems
p8
(lp9
Vhstem 240 96
p10
aVvstem 14 347
p11
asasVid
p12
Vw375m329,336c356,336 361,314 361,287c361,260 356,240 329,240l46,240c19,240 14,260 14,287c14,314 19,336 46,336
p13
ss."
EndChar

StartChar: mu
Encoding: 302 181 47
GlifName: mu
Width: 517
VWidth: 0
Flags: W
LayerCount: 2
Fore
SplineSet
503 56 m 257
 514 30 l 257
 504.667 18.6667 491.667 8.8333 475 0.500001 c 256
 458.333 -7.8333 441.333 -12 424 -12 c 256
 403.333 -12 385.666 -5.16667 371 8.5 c 256
 356.333 22.1667 347.333 40.6667 344 64 c 257
 342 64 l 257
 297.333 13.3333 254 -12 212 -12 c 256
 177.333 -12 150.333 2 131 30 c 257
 127 30 l 257
 127 14 l 258
 126.953 11.4286 126.929 8.8053 126.929 6.1301 c 256
 126.929 -28.6471 130.953 -72.1904 139 -124.5 c 256
 147.667 -180.833 155.667 -220 163 -242 c 257
 150 -254 l 257
 138.667 -253.333 125.167 -248.833 109.5 -240.5 c 256
 93.8333 -232.167 81.6666 -223.667 73 -215 c 257
 71.6667 -210.333 71 -123.333 71 46 c 258
 71 334 l 258
 71 374.667 70 407 68 431 c 257
 156 450 l 257
 158 434 159 398.333 159 343 c 258
 159 172 l 258
 159 130 167.833 99.6669 185.5 81 c 256
 203.167 62.3333 224 53 248 53 c 256
 283.333 53 314.333 69.3334 341 102 c 257
 341 431 l 257
 429 450 l 257
 429 116 l 258
 429 70 442.333 47 469 47 c 256
 481 47 492.333 50 503 56 c 257
 503 56 l 257
EndSplineSet
PickledDataWithLists: "(dp0
Vpublic.postscript.hints
p1
(dp2
VformatVersion
p3
V1
p4
sVhintSetList
p5
(lp6
(dp7
Vstems
p8
(lp9
Vhstem -12 65.
p10
aVhstem 430 20
p11
aVvstem 71 88
p12
aVvstem 71 56
p13
aVvstem 341 88
p14
asasVid
p15
V30e56d25add8018a0b50b08a9e88b1d57ced54e8f63ca8a09d2abed72fd710e1b6e6da416d85238541e13e4c54bdf3ffa7a6d9748f83ff9ae1e89ba1106866c0
p16
ss."
EndChar

StartChar: multiply
Encoding: 303 215 48
GlifName: multiply
Width: 579
VWidth: 0
Flags: W
LayerCount: 2
Fore
SplineSet
521 49 m 257
 482 9 l 257
 289 206 l 257
 97 9 l 257
 59 49 l 257
 250 246 l 257
 59 442 l 257
 97 482 l 257
 289 286 l 257
 482 483 l 257
 521 444 l 257
 328 246 l 257
 521 49 l 257
EndSplineSet
EndChar

StartChar: oacute
Encoding: 304 243 49
GlifName: oacute
Width: 513
VWidth: 0
Flags: W
LayerCount: 2
Fore
SplineSet
260 450 m 257
 322 450 373.667 428.167 415 384.5 c 256
 456.333 340.833 477 288 477 226 c 256
 477 150.667 454.667 92.167 410 50.5 c 256
 365.333 8.8333 314.666 -12 258 -12 c 256
 190.667 -12 136.833 10 96.5 54 c 256
 56.1667 98 36 149.667 36 209 c 256
 36 261 48.3333 306 73 344 c 256
 97.6667 382 126.5 409.167 159.5 425.5 c 256
 192.5 441.833 226 450 260 450 c 257
 260 450 l 257
246 416 m 257
 216 416 190.5 400.667 169.5 370 c 256
 148.5 339.333 138 296.667 138 242 c 256
 138 178 150 125.333 174 84 c 256
 198 42.6667 229.667 22 269 22 c 256
 339.667 22 375 82.3333 375 203 c 256
 375 265.667 363.667 316.833 341 356.5 c 256
 318.333 396.167 286.666 416 246 416 c 257
 246 416 l 257
248 492 m 257
 221 506 l 257
 226.333 518 233.667 535.833 243 559.5 c 256
 252.333 583.168 261.333 605.834 270 627.5 c 258
 285 665 l 257
 290.333 667.687 304.5 670.354 327.5 673 c 256
 342.833 674.778 354.389 675.667 362.167 675.667 c 256
 366.056 675.667 369 675.445 371 675 c 257
 375 665 l 257
 248 492 l 257
EndSplineSet
PickledDataWithLists: "(dp0
Vpublic.postscript.hints
p1
(dp2
VformatVersion
p3
V1
p4
sVhintSetList
p5
(lp6
(dp7
Vstems
p8
(lp9
Vhstem -12 34
p10
aVhstem 416 34
p11
aVvstem 36 102
p12
aVvstem 375 102
p13
asasVid
p14
V6bf285ab9be338a446cce1e1b131bf1ec474fe72ab97d0b279a4833fe9aae39ea1a57d0f97c5144abd7c5da9efbeacf521a6d89d2afa4877c6bc47b5f584b806
p15
ss."
EndChar

StartChar: oe
Encoding: 305 339 50
GlifName: oe
Width: 770
VWidth: 0
Flags: W
LayerCount: 2
Fore
SplineSet
255 450 m 257
 290.334 450 322.667 441.333 352 424 c 256
 381.334 406.667 404.667 383 422 353 c 257
 440.667 381 465.333 404.167 496 422.5 c 256
 526.667 440.833 557.667 450 589 450 c 256
 632.333 450 669.167 434.667 699.5 404 c 256
 729.833 373.333 745 337.666 745 297 c 256
 745 285 743.5 276.833 740.5 272.5 c 256
 737.5 268.167 731.667 265 723 263 c 256
 690.333 256.333 601.667 250.667 457 246 c 257
 456.985 244.652 456.978 243.311 456.978 241.978 c 256
 456.978 182.63 471.485 137.471 500.5 106.5 c 256
 530.167 74.8333 567 59 611 59 c 256
 647.667 59 684.667 75.3333 722 108 c 257
 738 86 l 257
 712.665 50.6667 684.832 25.5 654.5 10.5 c 256
 624.167 -4.5 597.667 -12 575 -12 c 256
 503 -12 449 16.3333 413 73 c 257
 393 45 368.5 23.8333 339.5 9.5 c 256
 310.5 -4.8333 281.333 -12 252 -12 c 256
 186.667 -12 134.167 10.5 94.5 55.5 c 256
 54.8333 100.5 35 152 35 210 c 256
 35 248.667 42.1667 284 56.5 316 c 256
 70.8334 348 89.1667 373.333 111.5 392 c 256
 133.833 410.667 157.5 425 182.5 435 c 256
 207.5 445 231.667 450 255 450 c 257
 255 450 l 257
564 412 m 257
 540.667 412 519 400.833 499 378.5 c 256
 479 356.167 466.667 325.333 462 286 c 257
 474.667 286 492.333 286.167 515 286.5 c 256
 537.667 286.838 558.5 287.171 577.5 287.5 c 256
 596.5 287.833 614.667 288.333 632 289 c 257
 646 289 653 296.667 653 312 c 256
 653 340 644.833 363.667 628.5 383 c 256
 612.167 402.333 590.667 412 564 412 c 257
 564 412 l 257
244 415 m 257
 214.667 415 189.667 399.5 169 368.5 c 256
 148.333 337.5 138 295.333 138 242 c 256
 138 177.333 149.667 124.667 173 84 c 256
 196.333 43.3333 227.667 23 267 23 c 256
 297 23 322 37.8333 342 67.5 c 256
 362 97.1667 372 143.667 372 207 c 256
 372 269.667 360.833 320 338.5 358 c 256
 316.167 396 284.667 415 244 415 c 257
 244 415 l 257
EndSplineSet
PickledDataWithLists: "(dp0
Vpublic.postscript.hints
p1
(dp2
VformatVersion
p3
V1
p4
sVhintSetList
p5
(lp6
(dp7
Vstems
p8
(lp9
Vhstem -12 71
p10
aVhstem -12 35
p11
aVhstem 246 40
p12
aVhstem 415 35
p13
aVvstem 35 103
p14
aVvstem 372 84.98
p15
aVvstem 653 92
p16
asasVid
p17
Vf464a9e429141e6e9cb00d53a0480b19039b1d4d0897dff80d19cbaa84502cc1c38d261aeb76b95f0178f6ceaae9427560c8851059d1c0f3f628416c561d72a9
p18
ss."
EndChar

StartChar: ograve
Encoding: 306 242 51
GlifName: ograve
Width: 513
VWidth: 0
Flags: W
LayerCount: 2
Fore
SplineSet
260 450 m 257
 322 450 373.667 428.167 415 384.5 c 256
 456.333 340.833 477 288 477 226 c 256
 477 150.667 454.667 92.167 410 50.5 c 256
 365.333 8.8333 314.666 -12 258 -12 c 256
 190.667 -12 136.833 10 96.5 54 c 256
 56.1667 98 36 149.667 36 209 c 256
 36 261 48.3333 306 73 344 c 256
 97.6667 382 126.5 409.167 159.5 425.5 c 256
 192.5 441.833 226 450 260 450 c 257
 260 450 l 257
246 416 m 257
 216 416 190.5 400.667 169.5 370 c 256
 148.5 339.333 138 296.667 138 242 c 256
 138 178 150 125.333 174 84 c 256
 198 42.6667 229.667 22 269 22 c 256
 339.667 22 375 82.3333 375 203 c 256
 375 265.667 363.667 316.833 341 356.5 c 256
 318.333 396.167 286.666 416 246 416 c 257
 246 416 l 257
295 503 m 257
 267 490 l 257
 148 649 l 257
 151 658 l 257
 156.333 661.333 169.333 664.833 190 668.5 c 256
 207.487 671.603 220.44 673.154 228.858 673.154 c 256
 230.389 673.154 231.769 673.103 233 673 c 257
 295 503 l 257
EndSplineSet
PickledDataWithLists: "(dp0
Vpublic.postscript.hints
p1
(dp2
VformatVersion
p3
V1
p4
sVhintSetList
p5
(lp6
(dp7
Vstems
p8
(lp9
Vhstem -12 34
p10
aVhstem 416 34
p11
aVvstem 36 102
p12
aVvstem 375 102
p13
asasVid
p14
V660c16f2639fd7b4e40064a5ebcece501a070a130c4e2498fdcfd7d5b59d8e87a28a41e5963b1a5f5c560d0922052377ebb7926d5d1f8dd1bf0040a1fbccba63
p15
ss."
EndChar

StartChar: onehalf
Encoding: 307 189 52
GlifName: onehalf
Width: 767
VWidth: 0
Flags: W
LayerCount: 2
Fore
SplineSet
272 277 m 257
 72 277 l 257
 72 301 l 257
 99.3333 303 117 307.5 125 314.5 c 256
 133 321.5 137 337 137 361 c 258
 137 535 l 258
 137 554.333 135 566.333 131 571 c 256
 127 575.667 116.667 578.667 100 580 c 258
 71 582 l 257
 71 606 l 257
 117 611.333 162.667 621 208 635 c 257
 208 361 l 258
 208 337 211.833 321.833 219.5 315.5 c 256
 227.167 309.167 244.667 304.333 272 301 c 257
 272 277 l 257
591 630 m 257
 185 -29 l 257
 153 -4 l 257
 556 654 l 257
 591 630 l 257
685 98 m 257
 707 91 l 257
 696.333 55 688.333 24.6667 683 0 c 257
 438 0 l 257
 438 23 l 257
 460.667 41 478.333 55.5 491 66.5 c 256
 503.667 77.5 520.667 93.5 542 114.5 c 256
 563.333 135.5 579.333 156 590 176 c 256
 600.667 196 606 215 606 233 c 256
 606 256.334 600 274.167 588 286.5 c 256
 576 298.833 560.333 305 541 305 c 256
 511.667 305 483.667 287 457 251 c 257
 439 269 l 257
 472 314 l 257
 495.333 344 528 359 570 359 c 256
 600.669 359 626.836 349.333 648.5 330 c 256
 670.172 310.667 681.339 284.333 682 251 c 256
 682 227.666 674.167 205.333 658.5 184 c 256
 642.833 162.667 615.333 135 576 101 c 258
 525 57 l 257
 526 55 l 257
 617 55 l 258
 636.333 55 650.167 57.5 658.5 62.5 c 256
 666.833 67.5 675.667 79.3333 685 98 c 257
 685 98 l 257
EndSplineSet
PickledDataWithLists: "(dp0
Vpublic.postscript.hints
p1
(dp2
VformatVersion
p3
V1
p4
sVhintSetList
p5
(lp6
(dp7
Vstems
p8
(lp9
Vhstem 0 55
p10
aVhstem 277 24
p11
aVhstem 305 54
p12
aVhstem 582 24
p13
aVhstem 634 20
p14
aVvstem 137 71
p15
aVvstem 606 76
p16
aVvstem 685 22
p17
asasVid
p18
V0cab317b80f70036be976727cd5c1e459635059907aea8d9b7f98cb65e61cd41c50aae5ff5654bed35a7d1424503e643dd74ec69341860369642eb04cf489500
p19
ss."
EndChar

StartChar: onequarter
Encoding: 308 188 53
GlifName: onequarter
Width: 766
VWidth: 0
Flags: W
LayerCount: 2
Fore
SplineSet
279 277 m 257
 79 277 l 257
 79 301 l 257
 106.333 303 124 307.5 132 314.5 c 256
 140 321.5 144 337 144 361 c 258
 144 535 l 258
 144 554.333 142.167 566.333 138.5 571 c 256
 134.833 575.667 124.333 578.667 107 580 c 258
 78 582 l 257
 78 606 l 257
 124.667 611.333 170.667 621 216 635 c 257
 215 361 l 258
 215 337 218.833 321.833 226.5 315.5 c 256
 234.167 309.167 251.667 304.333 279 301 c 257
 279 277 l 257
605 630 m 257
 199 -29 l 257
 167 -4 l 257
 571 654 l 257
 605 630 l 257
690 99 m 257
 632 99 l 257
 632 72 l 258
 632 52.6667 635.333 40.1667 642 34.5 c 256
 648.668 28.8333 663.335 25 686 23 c 257
 686 0 l 257
 502 0 l 257
 502 23 l 257
 529.333 25 546.833 28.8333 554.5 34.5 c 256
 562.167 40.1667 566 52.6667 566 72 c 258
 566 99 l 257
 405 99 l 257
 405 123 l 257
 477.667 219.667 539.333 298.333 590 359 c 257
 632 359 l 257
 632 137 l 257
 690 138 l 257
 690 99 l 257
566 138 m 257
 566 282 l 257
 563 282 l 257
 531.667 242 496.667 194 458 138 c 257
 566 138 l 257
EndSplineSet
PickledDataWithLists: "(dp0
Vpublic.postscript.hints
p1
(dp2
VformatVersion
p3
V1
p4
sVhintSetList
p5
(lp6
(dp7
Vstems
p8
(lp9
Vhstem 0 23
p10
aVhstem 99 39
p11
aVhstem 277 24
p12
aVhstem 582 24
p13
aVhstem 634 20
p14
aVvstem 144 71
p15
aVvstem 566 66
p16
asasVid
p17
Vba29e411a44060bebd990e4a8070bea71e762d38defac4d2c0f5a4fb3fc88a02940a9db6d6b8ec3e89426a3031fd2ca8f793dfcaa06ad02758761bbbba715c2f
p18
ss."
EndChar

StartChar: ordfeminine
Encoding: 309 170 54
GlifName: ordfeminine
Width: 310
VWidth: 0
Flags: W
LayerCount: 2
Fore
SplineSet
299 302 m 257
 234 269 l 257
 210.667 269.667 195 282.667 187 308 c 257
 147 282 121.667 269 111 269 c 256
 89 269 70.3333 276.833 55 292.5 c 256
 39.6667 308.167 32 326 32 346 c 256
 32 374.667 48.3333 395 81 407 c 257
 83 407.667 93.6667 411.5 113 418.5 c 256
 132.333 425.5 147.5 431.5 158.5 436.5 c 256
 169.5 441.5 178.333 446.333 185 451 c 257
 185 462 l 258
 185 478 180.667 490.833 172 500.5 c 256
 163.333 510.167 151.667 515 137 515 c 256
 116.333 515 101 497.333 91 462 c 257
 87.6667 451.333 80.3333 446 69 446 c 256
 61.6666 446 54.3333 449 47 455 c 256
 39.6667 461 36 468 36 476 c 256
 36 484.667 43 494 57 504 c 257
 87 526.667 120.333 541 157 547 c 257
 185.667 547 207.834 539.5 223.5 524.5 c 256
 239.167 509.5 247 487.333 247 458 c 258
 247 350 l 258
 247 327.333 254 316 268 316 c 256
 275 316 283 318 292 322 c 257
 299 302 l 257
185 332 m 257
 185 423 l 257
 181 420.333 171.667 416 157 410 c 256
 142.333 404 132.667 399.667 128 397 c 257
 108.667 387 99 374 99 358 c 256
 99 344 103.333 333.167 112 325.5 c 256
 120.667 317.833 130.667 314 142 314 c 256
 157.333 314 171.667 320 185 332 c 257
 185 332 l 257
EndSplineSet
PickledDataWithLists: "(dp0
Vpublic.postscript.hints
p1
(dp2
VformatVersion
p3
V1
p4
sVhintSetList
p5
(lp6
(dp7
Vstems
p8
(lp9
Vhstem 269 45
p10
aVhstem 515 32
p11
aVvstem 32 67
p12
aVvstem 36 55
p13
aVvstem 185 62
p14
asasVid
p15
V5d85d4673a8ce797654b9eeeab1f166fdc2586b19e76e537d23bd04776f8bdcf03d2ff56a2fef0670e89b6eade4a5f4c8e196821a494e73bf50c55547a065fd1
p16
ss."
EndChar

StartChar: ordmasculine
Encoding: 310 186 55
GlifName: ordmasculine
Width: 341
VWidth: 0
Flags: W
LayerCount: 2
Fore
SplineSet
172 547 m 257
 212.667 547 246.167 533.833 272.5 507.5 c 256
 298.833 481.167 312 449.333 312 412 c 256
 311.333 368 296.666 333.167 268 307.5 c 256
 239.333 281.833 206.667 269 170 269 c 256
 126 269 91 282.667 65 310 c 256
 39 337.333 26 369 26 405 c 256
 26.6667 449 42.1667 483.667 72.5 509 c 256
 102.833 534.333 136 547 172 547 c 257
 172 547 l 257
162 519 m 257
 146 519 132 510.333 120 493 c 256
 108 475.667 102 451 102 419 c 256
 102 383.667 109 354.667 123 332 c 256
 137 309.333 154.333 298 175 298 c 256
 215.667 298 236.333 331 237 397 c 256
 237.031 398.675 237.047 400.335 237.047 401.98 c 256
 237.047 435.714 230.531 463.387 217.5 485 c 256
 203.833 507.667 185.333 519 162 519 c 257
 162 519 l 257
EndSplineSet
PickledDataWithLists: "(dp0
Vpublic.postscript.hints
p1
(dp2
VformatVersion
p3
V1
p4
sVhintSetList
p5
(lp6
(dp7
Vstems
p8
(lp9
Vhstem 269 29
p10
aVhstem 519 28
p11
aVvstem 26 76
p12
aVvstem 237.05 74.95
p13
asasVid
p14
V6e093db05a3aedb831967beeab1472d55137c704946c8a1c8a88022da92bf854de41301ee560a394c3feab7955c4eafb349375fa5a7bc5ae0bf9d605b23172a5
p15
ss."
EndChar

StartChar: oslash
Encoding: 311 248 56
GlifName: oslash
Width: 516
VWidth: 0
Flags: W
LayerCount: 2
Fore
SplineSet
434 455 m 257
 399 403 l 257
 453 358.333 480 299.667 480 227 c 256
 480 152.333 457.667 93.833 413 51.5 c 256
 368.333 9.1667 317.333 -12 260 -12 c 256
 218.667 -12 180 -2 144 18 c 257
 106 -36 l 257
 80 -14 l 257
 117 38 l 257
 91 59.3333 71 85.1667 57 115.5 c 256
 43 145.833 36 177.333 36 210 c 256
 36 248.667 43.1667 283.833 57.5 315.5 c 256
 71.8333 347.167 90.3333 372.5 113 391.5 c 256
 135.667 410.5 160 425 186 435 c 256
 212 445 237.333 450 262 450 c 256
 301.333 450 337.667 440.333 371 421 c 257
 407 474 l 257
 434 455 l 257
161 104 m 257
 336 370 l 257
 315.333 400.667 287 416 251 416 c 256
 218.333 416 190.5 400 167.5 368 c 256
 144.5 336 133 291.333 133 234 c 256
 133 182.667 142.333 139.333 161 104 c 257
 161 104 l 257
356 338 m 257
 182 72 l 257
 202.667 38 232 21 270 21 c 256
 302.667 21 329.833 36.5 351.5 67.5 c 256
 373.167 98.5 384 147 384 213 c 256
 384 261 374.667 302.667 356 338 c 257
 356 338 l 257
EndSplineSet
PickledDataWithLists: "(dp0
Vpublic.postscript.hints
p1
(dp2
VformatVersion
p3
V1
p4
sVhintSetList
p5
(lp6
(dp7
Vstems
p8
(lp9
Vhstem -12 33
p10
aVhstem 416 34
p11
aVvstem 36 97
p12
aVvstem 384 96
p13
asasVid
p14
Vd74d85f94f6a9697751205ad14d5d1b16b6bdd1fc7e673de5d252586231ace10e71a30bf9a0e7be4e6ce9bcb878731834d20ab5dd635220bd2e53d9f966b2df9
p15
ss."
EndChar

StartChar: otilde
Encoding: 312 245 57
GlifName: otilde
Width: 513
VWidth: 0
Flags: W
LayerCount: 2
Fore
SplineSet
260 450 m 257
 322 450 373.667 428.167 415 384.5 c 256
 456.333 340.833 477 288 477 226 c 256
 477 150.667 454.667 92.167 410 50.5 c 256
 365.333 8.8333 314.666 -12 258 -12 c 256
 190.667 -12 136.833 10 96.5 54 c 256
 56.1667 98 36 149.667 36 209 c 256
 36 261 48.3333 306 73 344 c 256
 97.6667 382 126.5 409.167 159.5 425.5 c 256
 192.5 441.833 226 450 260 450 c 257
 260 450 l 257
246 416 m 257
 216 416 190.5 400.667 169.5 370 c 256
 148.5 339.333 138 296.667 138 242 c 256
 138 178 150 125.333 174 84 c 256
 198 42.6667 229.667 22 269 22 c 256
 339.667 22 375 82.3333 375 203 c 256
 375 265.667 363.667 316.833 341 356.5 c 256
 318.333 396.167 286.666 416 246 416 c 257
 246 416 l 257
149 519 m 257
 123 536 l 257
 143 598 170.667 629 206 629 c 256
 219.333 629 239 622.333 265 609 c 256
 290.333 596.333 308.333 590 319 590 c 256
 334.333 590 349 605.333 363 636 c 257
 389 622 l 257
 370.333 559.333 343.333 528 308 528 c 256
 292 528 270 535.667 242 551 c 256
 223.333 561.667 207.667 567 195 567 c 256
 177.667 567 162.333 551 149 519 c 257
 149 519 l 257
EndSplineSet
PickledDataWithLists: "(dp0
Vpublic.postscript.hints
p1
(dp2
VformatVersion
p3
V1
p4
sVhintSetList
p5
(lp6
(dp7
Vstems
p8
(lp9
Vhstem -12 34
p10
aVhstem 416 34
p11
aVhstem 528 62
p12
aVhstem 567 62
p13
aVvstem 36 102
p14
aVvstem 123 26
p15
aVvstem 363 26
p16
aVvstem 375 102
p17
asasVid
p18
V075c56a39a6ea313a851d384eb1f22c674d6971b03f1ff7eb839e69a055d012982754921f6f4836cdcff30be7b457c52e841d8d0e7f6cae63117f6347a39c042
p19
ss."
EndChar

StartChar: plusminus
Encoding: 313 177 58
GlifName: plusminus
Width: 579
VWidth: 0
Flags: W
LayerCount: 2
Fore
SplineSet
529 310 m 257
 321 310 l 257
 321 108 l 257
 260 108 l 257
 260 310 l 257
 51 310 l 257
 51 362 l 257
 260 362 l 257
 260 551 l 257
 321 551 l 257
 321 362 l 257
 529 362 l 257
 529 310 l 257
529 0 m 257
 51 0 l 257
 51 52 l 257
 529 52 l 257
 529 0 l 257
EndSplineSet
PickledDataWithLists: "(dp0
Vpublic.postscript.hints
p1
(dp2
VformatVersion
p3
V1
p4
sVhintSetList
p5
(lp6
(dp7
Vstems
p8
(lp9
Vhstem 0 52
p10
aVhstem 310 52
p11
aVvstem 260 61
p12
asasVid
p13
Vw579m529,310l321,310l321,108l260,108l260,310l51,310l51,362l260,362l260,551l321,551l321,362l529,362m529,0l51,0l51,52l529,52
p14
ss."
EndChar

StartChar: questiondown
Encoding: 314 191 59
GlifName: questiondown
Width: 382
VWidth: 0
Flags: W
LayerCount: 2
Fore
SplineSet
195 450 m 257
 211 450 224.5 444.333 235.5 433 c 256
 246.5 421.667 252 407 252 389 c 256
 252 371.667 246.5 357.333 235.5 346 c 256
 224.5 334.667 210.667 329 194 329 c 256
 177.333 329 163.333 334.667 152 346 c 256
 140.667 357.335 135 371.668 135 389 c 256
 135 407 140.667 421.667 152 433 c 256
 163.333 444.333 177.667 450 195 450 c 257
 195 450 l 257
161 220 m 257
 180 244 l 257
 205.333 234.667 230.667 217.5 256 192.5 c 256
 281.333 167.5 294 141 294 113 c 256
 294 95 287.5 77.3333 274.5 60 c 256
 261.5 42.6667 239 22.3333 207 -1 c 256
 185.667 -16.3333 170.167 -27.5 160.5 -34.5 c 256
 150.833 -41.5 139.667 -52.5 127 -67.5 c 256
 114.333 -82.5 108 -95.6667 108 -107 c 256
 108 -141 126.667 -158 164 -158 c 256
 182.667 -158 200.833 -153.333 218.5 -144 c 256
 236.167 -134.667 250.5 -125.333 261.5 -116 c 256
 272.5 -106.667 279.333 -102 282 -102 c 256
 290.667 -102 300.167 -107 310.5 -117 c 256
 320.833 -127 326 -138 326 -150 c 256
 326 -162 319 -174.667 305 -188 c 257
 290.333 -200 273.666 -209.333 255 -216 c 256
 236.333 -222.667 221 -226 209 -226 c 258
 208 -226 l 258
 166 -226 128.333 -209.667 95 -177 c 256
 61.6667 -144.333 45 -107 45 -65 c 256
 45 -29 61.6667 1.6667 95 27 c 257
 99 30.3333 108.833 37.8333 124.5 49.5 c 256
 140.167 61.1667 152.834 71.1667 162.5 79.5 c 256
 172.167 87.8334 181.5 98.1668 190.5 110.5 c 256
 199.5 122.833 204 134.333 204 145 c 256
 204 169.667 189.667 194.667 161 220 c 257
 161 220 l 257
EndSplineSet
PickledDataWithLists: "(dp0
Vpublic.postscript.hints
p1
(dp2
VformatVersion
p3
V1
p4
sVhintSetList
p5
(lp6
(dp7
Vstems
p8
(lp9
Vhstem -226 68
p10
aVhstem -216 114
p11
aVhstem 329 121
p12
aVvstem 45 63
p13
aVvstem 135 117
p14
aVvstem 204 90
p15
asasVid
p16
V210a1956d94de8f7fdf74c4a8903b4359707950a33042e73d63fb10a264adbddfb26b70aecc75d50dfe0064f167f80dc11eca4f5cc81893206098a863e5a6243
p17
ss."
EndChar

StartChar: registered
Encoding: 315 174 60
GlifName: registered
Width: 320
VWidth: 0
Flags: W
LayerCount: 2
Fore
SplineSet
161 659 m 257
 197.667 659 228.5 646.167 253.5 620.5 c 256
 278.5 594.833 291 564.333 291 529 c 256
 291 494.333 278.333 464.166 253 438.5 c 256
 227.667 412.833 196.667 400 160 400 c 256
 123.333 400 92.6667 412.333 68 437 c 256
 43.3333 461.667 31 492.333 31 529 c 256
 31 564.333 43.6667 594.833 69 620.5 c 256
 94.3333 646.167 125 659 161 659 c 257
 161 659 l 257
160 636 m 257
 131.333 636 107.5 625.667 88.5 605 c 256
 69.5 584.333 60 559 60 529 c 256
 60 499 69.6667 473.833 89 453.5 c 256
 108.333 433.167 132.333 423 161 423 c 256
 189.667 423 213.834 433.167 233.5 453.5 c 256
 253.167 473.833 263 499 263 529 c 256
 263 559 253.167 584.333 233.5 605 c 256
 213.833 625.667 189.333 636 160 636 c 257
 160 636 l 257
235 473 m 257
 232 461 l 257
 209.333 461 193 467.667 183 481 c 256
 179.666 485.667 175.833 491.833 171.5 499.5 c 256
 167.167 507.167 164.667 511.333 164 512 c 257
 161.333 516.667 157 519 151 519 c 258
 147 519 l 257
 147 496 l 258
 147 487.33 148 482.163 150 480.5 c 256
 152 478.819 157.333 477.652 166 477 c 257
 166 462 l 257
 98 462 l 257
 98 477 l 257
 107.333 477.667 112.833 478.833 114.5 480.5 c 256
 116.167 482.167 117 487.333 117 496 c 258
 117 565 l 258
 117 573.667 116.167 578.834 114.5 580.5 c 256
 112.833 582.184 107.666 583.351 99 584 c 257
 99 599 l 257
 167 599 l 258
 199.667 599 216 587 216 563 c 256
 216 547 207 535.667 189 529 c 257
 197.667 512.333 208.667 497 222 483 c 256
 224.667 480.333 229 477 235 473 c 257
 235 473 l 257
147 535 m 257
 156 535 l 258
 164 535 169.667 536.333 173 539 c 257
 180.333 543.667 184 550.667 184 560 c 256
 184 568.671 181.5 574.838 176.5 578.5 c 256
 171.5 582.167 166 584 160 584 c 256
 151.333 584 147 580 147 572 c 258
 147 535 l 257
EndSplineSet
PickledDataWithLists: "(dp0
Vpublic.postscript.hints
p1
(dp2
VformatVersion
p3
V1
p4
sVhintSetList
p5
(lp6
(dp7
Vstems
p8
(lp9
Vhstem 400 23
p10
aVhstem 462 15
p11
aVhstem 519 16
p12
aVhstem 584 15
p13
aVhstem 636 23
p14
aVvstem 31 29
p15
aVvstem 117 30
p16
aVvstem 184 32
p17
aVvstem 263 28
p18
asasVid
p19
Vc4655913224f15ff6abcc63a72fdc20d42d69494d73c6cff335b073b56f5889796b1e327d84b0d8d00201830cd71e1531a409dab5da5a93246274d7a7fa7781f
p20
ss."
EndChar

StartChar: ring
Encoding: 316 730 61
GlifName: ring
Width: 277
VWidth: 0
Flags: W
LayerCount: 2
Fore
SplineSet
23.5 667 m 257
 23.5 719 86.5 782 138.5 782 c 256
 190.5 782 253.5 719 253.5 667 c 256
 253.5 615 190.5 552 138.5 552 c 256
 86.5 552 23.5 615 23.5 667 c 257
 23.5 667 l 257
71.5 667 m 257
 71.5 633 104.5 600 138.5 600 c 256
 172.5 600 205.5 633 205.5 667 c 256
 205.5 701 172.5 734 138.5 734 c 256
 104.5 734 71.5 701 71.5 667 c 257
 71.5 667 l 257
EndSplineSet
PickledDataWithLists: "(dp0
Vpublic.postscript.hints
p1
(dp2
VformatVersion
p3
V1
p4
sVhintSetList
p5
(lp6
(dp7
Vstems
p8
(lp9
Vhstem 552 48
p10
aVhstem 734 48
p11
aVvstem 23.5 48
p12
aVvstem 205.5 48
p13
asasVid
p14
Vbf79f8491faaced88c8197761937b4c39c69dce5df9993ce9558071bc5b326af5fd6b70b1dcc4f380892e8f239a5ef242b7d47916dacb9b63a20a491e3803044
p15
ss."
EndChar

StartChar: sterling
Encoding: 317 163 62
GlifName: sterling
Width: 483
VWidth: 0
Flags: W
LayerCount: 2
Fore
SplineSet
380 293 m 257
 213 293 l 257
 213.667 287.667 214 280.667 214 272 c 256
 214 212.667 183.667 156.667 123 104 c 257
 156.333 104 191.333 95.3333 228 78 c 257
 287.333 52.6667 328.333 40 351 40 c 256
 387.667 40 406 54 406 82 c 256
 406 92 403.333 103 398 115 c 257
 395.333 121.667 396.333 129 401 137 c 257
 413.667 154.333 426 163 438 163 c 256
 444.667 163 450.333 158.833 455 150.5 c 256
 459.667 142.167 462 133 462 123 c 256
 462 101.667 454.167 80.1667 438.5 58.5 c 256
 422.833 36.8333 404.333 19 383 5 c 256
 351.667 -16.3333 320.667 -27 290 -27 c 256
 277.333 -27 262 -23.6667 244 -17 c 256
 226 -10.3333 212.667 -4.6667 204 0 c 256
 195.333 4.6667 179 13.6667 155 27 c 256
 127.667 43 107.667 51 95 51 c 256
 79 51 65.6667 36.6666 55 8 c 257
 52.3333 -0.66667 48 -5 42 -5 c 256
 34 -5 28 -0.83333 24 7.5 c 256
 22.5 10.625 21.75 14.2422 21.75 18.3516 c 256
 21.75 25.2005 23.8333 33.4167 28 43 c 257
 34 54.3333 51 75.6667 79 107 c 256
 106.333 138.333 120 181.667 120 237 c 256
 120 255.667 118.667 274.333 116 293 c 257
 27 293 l 257
 27 333 l 257
 111 333 l 257
 107 369 105 396.333 105 415 c 256
 105 487 133.333 545.333 190 590 c 256
 226.667 618.667 262.333 633.667 297 635 c 257
 317.667 635 337.167 630.5 355.5 621.5 c 256
 373.835 612.5 386.668 603.333 394 594 c 256
 398.571 587.905 400.857 581.701 400.857 575.388 c 256
 400.857 570.653 399.571 565.857 397 561 c 256
 393 553 386.333 545 377 537 c 257
 367 530.333 357.667 531.333 349 540 c 257
 313.667 568.667 282 583 254 583 c 256
 210 583 188 553 188 493 c 256
 188 462.333 195.333 409 210 333 c 257
 380 333 l 257
 380 293 l 257
EndSplineSet
PickledDataWithLists: "(dp0
Vpublic.postscript.hints
p1
(dp2
VformatVersion
p3
V1
p4
sVhintSetList
p5
(lp6
(dp7
Vstems
p8
(lp9
Vhstem -27 67
p10
aVhstem 16 -21
p11
aVhstem 293 40
p12
aVhstem 583 52
p13
aVvstem 105 83
p14
aVvstem 120 94
p15
aVvstem 406 56
p16
asasVid
p17
Veebfcf41a530792fab518fce8227c359cfbf17f95dd7907b38d8cb7d743a46f61a3f69e86bba7f1080dc266c79d8dfcbbbe6181f79bb68d1d8df10a07729f6b4
p18
ss."
EndChar

StartChar: threequarters
Encoding: 318 190 63
GlifName: threequarters
Width: 767
VWidth: 0
Flags: W
LayerCount: 2
Fore
SplineSet
608 630 m 257
 202 -29 l 257
 170 -4 l 257
 574 654 l 257
 608 630 l 257
685 99 m 257
 627 99 l 257
 627 72 l 258
 627 52.6667 630.333 40.1667 637 34.5 c 256
 643.669 28.8333 658.336 25 681 23 c 257
 681 0 l 257
 497 0 l 257
 497 23 l 257
 524.333 25 541.833 28.8333 549.5 34.5 c 256
 557.167 40.1667 561 52.6667 561 72 c 258
 561 99 l 257
 400 99 l 257
 400 123 l 257
 472.667 219.667 534.333 298.333 585 359 c 257
 627 359 l 257
 627 137 l 257
 685 138 l 257
 685 99 l 257
561 138 m 257
 561 282 l 257
 558 282 l 257
 526.666 242 491.666 194 453 138 c 257
 561 138 l 257
235 489 m 257
 235 487 l 257
 263 481.667 284.667 471.833 300 457.5 c 256
 315.333 443.167 323 425.333 323 404 c 256
 323 376 311.5 351.167 288.5 329.5 c 256
 265.5 307.833 241.5 292.5 216.5 283.5 c 256
 191.5 274.5 170.333 270 153 270 c 256
 124.333 270 101.333 277 84 291 c 256
 73.3333 299.667 70 309.333 74 320 c 257
 76.6667 329.335 83 337.668 93 345 c 257
 99.6667 349 106.667 348.333 114 343 c 257
 143.333 320.333 168.333 309 189 309 c 256
 207 309 221.667 315 233 327 c 256
 244.333 339 250 357 250 381 c 256
 250 403.667 242.833 420.667 228.5 432 c 256
 214.167 443.333 196.667 449 176 449 c 256
 161.333 449 147.667 446.667 135 442 c 257
 128 468 l 257
 192.667 488.667 225 514.333 225 545 c 256
 225 557.667 220.333 568.167 211 576.5 c 256
 202.358 584.216 191.144 588.074 177.358 588.074 c 256
 176.255 588.074 175.136 588.049 174 588 c 257
 160 588 146.167 583.167 132.5 573.5 c 256
 118.833 563.833 108 553 100 541 c 257
 83 557 l 257
 113 599 l 257
 135.667 623 164.667 635 200 635 c 258
 201 635 l 258
 229.667 635 253 627.5 271 612.5 c 256
 289 597.5 298 579.667 298 559 c 256
 298 542.333 291.667 528.667 279 518 c 256
 265.667 507.331 251 497.665 235 489 c 257
 235 489 l 257
EndSplineSet
PickledDataWithLists: "(dp0
Vpublic.postscript.hints
p1
(dp2
VformatVersion
p3
V1
p4
sVhintSetList
p5
(lp6
(dp7
Vstems
p8
(lp9
Vhstem 0 23
p10
aVhstem 99 39
p11
aVhstem 270 39
p12
aVhstem 442 26
p13
aVhstem 588.07 46.93
p14
aVhstem 634 20
p15
aVvstem 250 73
p16
aVvstem 561 66
p17
asasVid
p18
Vfe9e6d766b2696d600b9e68a63bc0391ad6086c1d494cec906dcb7fdcf3c27399cea2c182a89e6065793614c3065d8d42255d61f33196b9045d9ac824770d89c
p19
ss."
EndChar

StartChar: tilde
Encoding: 319 732 64
GlifName: tilde
Width: 330
VWidth: 0
Flags: W
LayerCount: 2
Fore
SplineSet
106 685 m 257
 157 685 179 632 230 632 c 256
 252 632 263 642 277 684 c 257
 288 685 298 682 304 678 c 257
 292 618 263 579 217 579 c 256
 195 579 174 597 153 611 c 257
 135 622 116 630 99 630 c 256
 73 630 63 615 53 582 c 257
 42 580 32 581 26 587 c 257
 40 646 63 685 106 685 c 257
 106 685 l 257
EndSplineSet
PickledDataWithLists: "(dp0
Vpublic.postscript.hints
p1
(dp2
VformatVersion
p3
V1
p4
sVhintSetList
p5
(lp6
(dp7
Vstems
p8
(lp9
Vhstem 579 53
p10
aVhstem 630 55
p11
aVvstem 277 27
p12
asasVid
p13
V6845d5984aa613cf2c53741b0adb8fc09dff08f890efbb88ba70cdd488483a69082f1126cd7ee655311e664608af91b8ee03ac7ac01e9c44ca8bafcd3f2967bc
p14
ss."
EndChar

StartChar: u0035
Encoding: 53 53 66
GlifName: u0035
Width: 450
VWidth: 0
Flags: W
LayerCount: 2
Fore
SplineSet
313 189 m 257
 313 298 262 341 197 341 c 256
 161 341 123 337 70 317 c 257
 104 605 l 257
 139 602 175 600 212 600 c 256
 265 600 319 605 376 611 c 257
 383 607 l 257
 367 539 l 257
 326 535 292 533 262 533 c 256
 214 533 182 538 145 542 c 257
 125 375 l 257
 143 382 180 391 223 391 c 256
 335 391 402 304 402 207 c 256
 402 81 314 -10 190 -10 c 256
 133 -10 48 23 48 64 c 256
 48 84 67 101 86 101 c 256
 107 101 124 86 137 69 c 256
 152 49 165 24 203 24 c 256
 263 24 313 94 313 189 c 257
 313 189 l 257
EndSplineSet
PickledDataWithLists: "(dp0
Vpublic.postscript.hints
p1
(dp2
VformatVersion
p3
V1
p4
sVhintSetList
p5
(lp6
(dp7
Vstems
p8
(lp9
Vhstem -10 34
p10
aVhstem 341 50
p11
aVhstem 533 67
p12
aVhstem 539 72
p13
aVvstem 313 89
p14
asasVid
p15
Vecd4614c0a829a872f76959e917bb105551d8fe0c8031b8522dacca683d58b821fdd719bf1892db4e7f08ffe852a78a921a4642b9b5a82ba61af1c864c023b23
p16
ss."
EndChar

StartChar: u1F311
Encoding: 321 127761 67
GlifName: u1F_311
Width: 823
VWidth: 0
Flags: W
LayerCount: 2
Fore
SplineSet
804 397 m 257
 804 290 765 197 688 120 c 256
 611 43 519 4 412 4 c 256
 303 4 211 42 134 119 c 256
 58 196 20 289 20 397 c 256
 20 505 58 598 134 675 c 256
 211 752 303 790 411 790 c 256
 519 790 611 751 688 674 c 256
 765 597 804 505 804 397 c 257
 804 397 l 257
EndSplineSet
PickledDataWithLists: "(dp0
Vpublic.postscript.hints
p1
(dp2
VformatVersion
p3
V1
p4
sVhintSetList
p5
(lp6
(dp7
Vstems
p8
(lp9
Vhstem 4 786
p10
aVvstem 20 784
p11
asasVid
p12
V8d3b51e4b44d9a34f45f3bd4efb8ff6f89c5438b4ed8bea07a7aeb56d848c466235a63570d59cdc307eb64e42a7eaa78e7da3c8e7d24040fd328ae44ba5a63ad
p13
ss."
Comment: "+AAoA-Used in liturgical calendars+AAoA-"
EndChar

StartChar: u1F312
Encoding: 322 127762 68
GlifName: u1F_312
Width: 807
VWidth: 0
Flags: W
LayerCount: 2
Fore
SplineSet
786 401 m 257
 786 230 689 103 568 42 c 256
 514 15 459 0 404 0 c 256
 296 0 205 40 131 118 c 256
 57 195 20 290 20 402 c 256
 20 511 58 605 133 684 c 256
 208 764 298 803 402 803 c 256
 569 803 687 699 748 580 c 256
 774 530 786 470 786 401 c 257
 786 401 l 257
760 402 m 257
 760 552 690 665 552 740 c 256
 513 761 473 772 432 772 c 258
 431 772 l 257
 427 772 l 257
 446 766 460 759 472 752 c 257
 516 722 551 670 575 595 c 256
 595 533 605 469 605 402 c 256
 605 334 595 269 574 207 c 256
 549 134 514 81 468 49 c 257
 452 39 438 33 425 33 c 257
 434 32 438 32 439 32 c 256
 442 32 449 34 460 34 c 256
 485 34 511 46 537 57 c 256
 584 76 629 111 672 161 c 256
 716 213 743 264 750 314 c 256
 756 353 760 383 760 402 c 257
 760 402 l 257
EndSplineSet
PickledDataWithLists: "(dp0
Vpublic.postscript.hints
p1
(dp2
VformatVersion
p3
V1
p4
sVhintSetList
p5
(lp6
(dp7
Vstems
p8
(lp9
Vhstem 0 32
p10
aVhstem 772 31
p11
aVvstem 20 585
p12
aVvstem 760 26
p13
asasVid
p14
V2ebacf24c67cc4873685871050e1061f2af08ede2a16a5046dcd724108d1a0604d0330f14b36e6816202c4a659bb93971e65f00aaee9418e541ef2338baaabe9
p15
ss."
Comment: "+AAoA-Used in liturgical calendars+AAoA-"
EndChar

StartChar: u1F313
Encoding: 323 127763 69
GlifName: u1F_313
Width: 836
VWidth: 0
Flags: W
LayerCount: 2
Fore
SplineSet
816 397 m 257
 816 290 776 198 698 120 c 256
 619 42 526 3 417 3 c 256
 251 3 125 100 63 214 c 256
 34 268 19 330 19 399 c 256
 19 506 58 599 136 677 c 256
 214 755 308 794 416 794 c 256
 596 794 727 683 786 551 c 256
 806 507 816 456 816 397 c 257
 816 397 l 257
787 399 m 257
 787 455 776 506 754 553 c 256
 725 613 681 664 622 704 c 256
 561 745 498 766 432 766 c 258
 418 766 l 257
 418 34 l 257
 458 34 l 258
 478 34 505 40 539 52 c 256
 674 99 787 226 787 399 c 257
 787 399 l 257
EndSplineSet
PickledDataWithLists: "(dp0
Vpublic.postscript.hints
p1
(dp2
VformatVersion
p3
V1
p4
sVhintSetList
p5
(lp6
(dp7
Vstems
p8
(lp9
Vhstem 3 31
p10
aVhstem 766 28
p11
aVvstem 19 399
p12
aVvstem 787 29
p13
asasVid
p14
V565dda61bc2e0454636ad4b1dd8897573e2ec3b3781018046e4f0c4f70b22d406f4e190f8c0c9b34bb7d295132bc6c6153c61038a3f849a588864c5d12112095
p15
ss."
Comment: "+AAoA-Used in liturgical calendars+AAoA-"
EndChar

StartChar: u1F314
Encoding: 324 127764 70
GlifName: u1F_314
Width: 846
VWidth: 0
Flags: W
LayerCount: 2
Fore
SplineSet
827 402 m 257
 827 293 787 198 707 119 c 256
 628 40 533 0 423 0 c 256
 310 0 215 39 136 117 c 256
 58 195 19 291 19 403 c 256
 19 513 59 608 139 687 c 256
 218 767 313 806 424 806 c 256
 596 806 722 702 786 582 c 256
 813 532 827 472 827 402 c 257
 827 402 l 257
798 403 m 257
 798 505 762 593 689 667 c 256
 616 741 529 778 427 778 c 256
 372 778 323 746 283 682 c 256
 234 605 213 520 213 403 c 256
 213 269 244 166 306 93 c 256
 340 54 365 30 433 30 c 256
 533 30 619 68 691 143 c 256
 763 217 798 303 798 403 c 257
 798 403 l 257
EndSplineSet
PickledDataWithLists: "(dp0
Vpublic.postscript.hints
p1
(dp2
VformatVersion
p3
V1
p4
sVhintSetList
p5
(lp6
(dp7
Vstems
p8
(lp9
Vhstem 0 30
p10
aVhstem 778 28
p11
aVvstem 19 194
p12
aVvstem 798 29
p13
asasVid
p14
Vdf1c030b3707fa175350813559fff17553b9a7a570665751fadbb6f2935bcdf5df6de4d632e5ae2164a5e765d3d862f3e6dd598ffd259c9066afe471f3bae957
p15
ss."
Comment: "+AAoA-Used in liturgical calendars+AAoA-"
EndChar

StartChar: u1F315
Encoding: 325 127765 71
GlifName: u1F_315
Width: 805
VWidth: 0
Flags: W
LayerCount: 2
Fore
SplineSet
785 402 m 257
 785 223 684 96 557 35 c 256
 510 13 458 0 402 0 c 256
 297 0 206 41 132 119 c 256
 57 198 20 292 20 403 c 256
 20 513 57 607 131 686 c 256
 206 764 296 803 401 803 c 256
 568 803 685 700 746 581 c 256
 772 530 785 470 785 402 c 257
 785 402 l 257
757 403 m 257
 757 505 723 592 653 665 c 256
 583 739 500 775 402 775 c 256
 305 775 221 738 151 665 c 256
 82 592 47 504 47 403 c 256
 47 300 81 213 151 141 c 256
 220 68 304 32 402 32 c 256
 500 32 584 68 653 141 c 256
 723 213 757 300 757 403 c 257
 757 403 l 257
EndSplineSet
PickledDataWithLists: "(dp0
Vpublic.postscript.hints
p1
(dp2
VformatVersion
p3
V1
p4
sVhintSetList
p5
(lp6
(dp7
Vstems
p8
(lp9
Vhstem 0 32
p10
aVhstem 775 28
p11
aVvstem 20 27
p12
aVvstem 757 28
p13
asasVid
p14
V54d1a168252995d6cd7a3d2c17b6320e476d3b05454154dacebeba4850b6557e0143ef12d8024dbad281938ea6863ba51372ba7a866b30e12e20f9825c45bb99
p15
ss."
Comment: "+AAoA-Used in liturgical calendars+AAoA-"
EndChar

StartChar: u1F316
Encoding: 326 127766 72
GlifName: u1F_316
Width: 810
VWidth: 0
Flags: W
LayerCount: 2
Fore
SplineSet
790 402 m 257
 790 293 752 199 676 119 c 256
 600 40 510 0 406 0 c 256
 299 0 208 39 133 118 c 256
 58 197 21 292 21 403 c 256
 21 514 58 609 133 688 c 256
 208 767 298 807 404 807 c 256
 572 807 698 701 754 578 c 256
 778 525 790 466 790 402 c 257
 790 402 l 257
606 403 m 257
 606 517 584 607 539 682 c 256
 501 746 455 779 401 779 c 256
 304 779 221 741 152 667 c 256
 82 592 48 504 48 403 c 256
 48 303 81 216 149 142 c 256
 218 68 300 31 396 31 c 256
 420 31 438 33 450 38 c 256
 480 50 508 78 535 120 c 256
 582 192 606 287 606 403 c 257
 606 403 l 257
EndSplineSet
PickledDataWithLists: "(dp0
Vpublic.postscript.hints
p1
(dp2
VformatVersion
p3
V1
p4
sVhintSetList
p5
(lp6
(dp7
Vstems
p8
(lp9
Vhstem 0 31
p10
aVhstem 779 28
p11
aVvstem 21 27
p12
aVvstem 606 184
p13
asasVid
p14
V3ede766b042cda199825d6325f3a49a02e2c030c5b63e70c1cb56115bd81aaa6cd24a837341b9a1c636b5ed8d92a4297476c3380d5d77e30147b1ea04fcc1b38
p15
ss."
Comment: "+AAoA-Used in liturgical calendars+AAoA-"
EndChar

StartChar: u1F317
Encoding: 327 127767 73
GlifName: u1F_317
Width: 779
VWidth: 0
Flags: W
LayerCount: 2
Fore
SplineSet
759 402 m 257
 759 294 723 200 650 121 c 256
 577 43 491 3 390 3 c 256
 287 3 200 42 128 120 c 256
 56 198 20 292 20 402 c 256
 20 512 56 606 128 684 c 256
 200 762 287 801 388 801 c 256
 490 801 577 762 650 684 c 256
 723 605 759 511 759 402 c 257
 759 402 l 257
388 34 m 257
 388 773 l 257
 376 773 l 258
 364 773 346 770 321 765 c 256
 241 747 175 704 123 636 c 256
 72 569 46 491 46 402 c 256
 46 244 134 126 242 68 c 256
 255 61 334 34 352 34 c 258
 388 34 l 257
EndSplineSet
PickledDataWithLists: "(dp0
Vpublic.postscript.hints
p1
(dp2
VformatVersion
p3
V1
p4
sVhintSetList
p5
(lp6
(dp7
Vstems
p8
(lp9
Vhstem 3 31
p10
aVhstem 773 28
p11
aVvstem 20 26
p12
aVvstem 388 371
p13
asasVid
p14
Vb3d28cfd257e949ccfb79749e7c1fe03f9c4760d452ab19e26a80cc8c5ae332959f9146c27927f6959209758c187796818c8440d62e00b2e7617e09cb296e2af
p15
ss."
Comment: "+AAoA-Used in liturgical calendars+AAoA-"
EndChar

StartChar: u1F318
Encoding: 328 127768 74
GlifName: u1F_318
Width: 836
VWidth: 0
Flags: W
LayerCount: 2
Fore
SplineSet
816 400 m 257
 816 290 777 197 699 118 c 256
 620 40 527 0 418 0 c 256
 308 0 214 39 136 117 c 256
 58 195 20 289 20 400 c 256
 20 510 58 604 136 682 c 256
 213 760 307 799 417 799 c 256
 526 799 620 760 698 681 c 256
 777 603 816 509 816 400 c 257
 816 400 l 257
393 32 m 257
 378 32 361 40 340 55 c 256
 295 87 261 139 238 211 c 256
 218 271 209 334 209 400 c 256
 209 471 220 537 243 600 c 256
 271 677 311 729 362 757 c 257
 371 761 381 765 393 768 c 257
 379 768 l 258
 373 768 366 767 357 766 c 257
 252 748 183 698 125 623 c 256
 90 579 68 537 59 496 c 256
 52 460 48 428 48 400 c 256
 48 307 79 225 141 155 c 256
 192 96 285 32 384 32 c 258
 393 32 l 257
EndSplineSet
PickledDataWithLists: "(dp0
Vpublic.postscript.hints
p1
(dp2
VformatVersion
p3
V1
p4
sVhintSetList
p5
(lp6
(dp7
Vstems
p8
(lp9
Vhstem 0 32
p10
aVhstem 768 31
p11
aVvstem 20 28
p12
aVvstem 209 607
p13
asasVid
p14
Vcc83f04a428b6f75573b75f8d783b522a6f3762e8028808caa5844d1de0cb2b727a38b1c7cbbcd35f0e7a76cb491ceb87d88795abde263bf85e559b1e591f3be
p15
ss."
Comment: "+AAoA-Used in liturgical calendars+AAoA-"
EndChar

StartChar: u1F319
Encoding: 329 127769 75
GlifName: u1F_319
Width: 834
VWidth: 0
Flags: W
LayerCount: 2
Fore
SplineSet
560 768 m 257
 560 780 572 800 584 800 c 256
 587 800 592 797 601 791 c 256
 658 753 699 716 725 681 c 256
 783 602 812 516 812 423 c 256
 812 305 770 206 687 123 c 256
 603 41 503 0 386 0 c 256
 265 0 165 41 85 123 c 257
 77 132 21 195 21 205 c 256
 21 214 48 237 54 240 c 257
 85 224 127 205 180 183 c 257
 218 172 257 166 298 166 c 257
 298 166 304 168 323 172 c 256
 394 188 446 206 480 227 c 256
 505 242 533 268 564 305 c 256
 614 363 641 422 641 514 c 256
 641 560 638 596 633 620 c 257
 631 632 618 659 594 702 c 256
 571 744 560 766 560 768 c 257
 560 768 l 257
787 426 m 257
 787 574 707 693 611 753 c 257
 654 687 676 615 676 536 c 256
 676 428 636 334 558 255 c 256
 479 176 386 136 278 136 c 256
 199 136 128 157 63 200 c 257
 147 85 255 28 388 28 c 256
 496 28 589 67 668 146 c 256
 747 225 787 319 787 426 c 257
 787 426 l 257
EndSplineSet
PickledDataWithLists: "(dp0
Vpublic.postscript.hints
p1
(dp2
VformatVersion
p3
V1
p4
sVhintSetList
p5
(lp6
(dp7
Vstems
p8
(lp9
Vhstem 0 28
p10
aVhstem 136 30
p11
aVvstem 641 35
p12
aVvstem 787 25
p13
asasVid
p14
V117fca7955bb1e5f1a264d23731353696da7d6aef6388f2a578f7c73732beb85fa3096c664af9e90bf86a2f09ff95ec72f09207a3398bdde421eb524203a9de8
p15
ss."
Comment: "+AAoA-Used in liturgical calendars+AAoA-"
EndChar

StartChar: u1F347
Encoding: 330 127815 76
GlifName: u1F_347
Width: 928
VWidth: 0
Flags: W
LayerCount: 2
Fore
SplineSet
150 493 m 257
 114 493 90 447 90 412 c 256
 90 385 105 340 114 332 c 257
 141 306 l 257
 169 327 196 342 222 350 c 257
 208 368 199 413 195 484 c 257
 178 488 164 493 150 493 c 257
 150 493 l 257
91 637 m 257
 91 570 144 521 210 521 c 256
 273 521 322 568 322 631 c 256
 322 699 272 754 205 754 c 256
 140 754 91 703 91 637 c 257
 91 637 l 257
160 216 m 257
 160 161 203 118 258 118 c 256
 311 118 351 160 351 212 c 256
 351 267 310 311 256 311 c 256
 203 311 160 270 160 216 c 257
 160 216 l 257
344 328 m 257
 406 328 454 375 454 436 c 256
 454 497 406 547 345 547 c 256
 284 547 237 501 237 438 c 256
 237 373 282 328 344 328 c 257
 344 328 l 257
387 -16 m 257
 431 -16 460 14 460 57 c 256
 460 102 429 133 385 133 c 256
 343 133 311 102 311 61 c 256
 311 17 343 -16 387 -16 c 257
 387 -16 l 257
429 -80 m 257
 429 -111 453 -135 482 -135 c 256
 511 -135 540 -112 540 -80 c 256
 540 -50 516 -25 484 -25 c 256
 453 -25 429 -48 429 -80 c 257
 429 -80 l 257
477 147 m 257
 529 147 571 189 571 241 c 256
 571 294 529 340 476 340 c 256
 423 340 380 295 380 241 c 256
 380 188 423 147 477 147 c 257
 477 147 l 257
466 775 m 257
 399 775 348 727 348 662 c 256
 348 595 401 544 468 544 c 258
 469 544 l 257
 533 545 582 594 582 658 c 256
 582 725 534 775 466 775 c 257
 466 775 l 257
498 802 m 257
 499 809 500 826 500 844 c 256
 500 882 497 930 490 936 c 257
 487 940 481 941 473 941 c 256
 455 941 431 934 425 930 c 257
 431 800 l 257
 444 805 456 807 468 807 c 256
 478 807 488 805 498 802 c 257
 498 802 l 257
597 336 m 257
 660 336 706 381 706 442 c 256
 706 503 661 552 599 552 c 256
 535 552 488 506 488 443 c 256
 488 381 533 336 597 336 c 257
 597 336 l 257
697 131 m 257
 753 131 793 168 793 222 c 256
 793 278 753 322 698 322 c 256
 642 322 601 279 601 223 c 256
 601 168 641 131 697 131 c 257
 697 131 l 257
719 536 m 257
 790 536 840 584 840 651 c 256
 840 717 790 767 723 767 c 258
 722 767 l 257
 656 766 609 716 609 648 c 256
 609 583 653 536 719 536 c 257
 719 536 l 257
821 334 m 257
 840 354 850 385 850 416 c 256
 850 446 840 476 821 494 c 256
 809 505 799 510 789 510 c 256
 787 510 785 510 783 510 c 257
 769 505 756 501 742 497 c 257
 744 480 745 465 745 451 c 256
 745 415 739 386 726 365 c 257
 745 357 772 344 806 323 c 257
 819 334 821 334 821 334 c 257
 821 334 l 257
582 -108 m 257
 578 -162 533 -196 478 -196 c 256
 418 -196 378 -147 378 -88 c 256
 378 -85 378 -82 378 -79 c 257
 323 -73 286 -43 267 1 c 257
 262 14 259 26 259 37 c 256
 259 43 260 49 262 54 c 257
 199 58 182 70 144 105 c 256
 122 126 111 159 111 205 c 256
 111 220 113 236 115 253 c 257
 84 289 64 318 54 341 c 257
 44 361 40 380 40 399 c 256
 40 443 63 481 92 502 c 257
 91 503 89 506 86 511 c 257
 56 545 41 586 41 627 c 256
 41 667 56 706 86 738 c 256
 117 771 161 788 204 788 c 256
 247 788 290 772 322 741 c 257
 352 766 370 781 376 788 c 257
 378 790 379 797 380 808 c 256
 382 838 384 862 384 884 c 256
 384 909 381 931 375 957 c 257
 394 965 451 984 491 984 c 256
 518 984 530 981 532 954 c 257
 538 916 545 880 545 838 c 256
 545 822 544 808 542 795 c 257
 555 785 573 770 596 749 c 257
 601 750 l 257
 637 783 682 802 727 802 c 256
 765 802 803 788 835 758 c 256
 869 726 886 682 886 637 c 256
 886 596 872 556 841 525 c 257
 849 516 860 502 875 483 c 257
 890 461 897 437 897 413 c 256
 897 359 864 304 830 273 c 257
 836 251 838 231 838 212 c 256
 838 127 777 71 697 67 c 257
 697 55 696 43 695 31 c 257
 687 -30 651 -57 586 -73 c 257
 585 -74 584 -86 582 -108 c 257
 582 -108 l 257
575 139 m 257
 536 139 500 101 500 62 c 256
 500 22 536 -11 576 -11 c 256
 616 -11 650 23 650 62 c 256
 650 102 615 139 575 139 c 257
 575 139 l 257
EndSplineSet
PickledDataWithLists: "(dp0
Vpublic.postscript.hints
p1
(dp2
VformatVersion
p3
V1
p4
sVhintSetList
p5
(lp6
(dp7
Vstems
p8
(lp9
Vhstem -196 61
p10
aVhstem 54 64
p11
aVhstem 67 64
p12
aVhstem 133 14
p13
aVhstem 311 17
p14
aVhstem 322 14
p15
aVhstem 493 28
p16
aVhstem 510 26
p17
aVhstem 754 34
p18
aVhstem 767 35
p19
aVhstem 775 32
p20
aVhstem 941 43
p21
aVvstem 40 50
p22
aVvstem 111 49
p23
aVvstem 195 42
p24
aVvstem 259 52
p25
aVvstem 322 26
p26
aVvstem 351 29
p27
aVvstem 378 51
p28
aVvstem 454 34
p29
aVvstem 460 40
p30
aVvstem 500 45
p31
aVvstem 571 30
p32
aVvstem 582 27
p33
aVvstem 650 47
p34
aVvstem 706 39
p35
aVvstem 793 45
p36
aVvstem 840 46
p37
aVvstem 850 47
p38
asasVid
p39
Vedf7808447a0f347ee961623e5c54ad7d00ae4dbb128717ff5ad589bcc24f71021d4c86588fc3bb670382547d29d3a387043083dc8feebd1d30ee5f92983d248
p40
ss."
Comment: "+AAoA-Used in liturgical calendars+AAoA-"
EndChar

StartChar: u1F377
Encoding: 331 127863 77
GlifName: u1F_377
Width: 714
VWidth: 0
Flags: W
LayerCount: 2
Fore
SplineSet
275 310 m 257
 275 314 276 326 276 330 c 256
 276 336 274 342 269 347 c 257
 265 353 242 364 201 382 c 256
 160 399 134 414 122 426 c 256
 73 475 42 540 31 621 c 256
 27 650 25 658 25 658 c 257
 25 658 26 664 28 680 c 256
 37 759 57 823 90 871 c 257
 608 871 l 257
 624 854 639 819 655 767 c 256
 658 758 668 692 673 658 c 257
 673 658 672 650 668 631 c 257
 651 537 621 469 576 426 c 256
 562 412 526 392 469 368 c 257
 457 364 443 357 427 347 c 257
 425 343 423 330 422 309 c 257
 421 260 410 33 410 33 c 257
 410 7 417 0 437 -9 c 257
 448 -11 464 -14 485 -19 c 256
 563 -37 602 -67 602 -108 c 256
 602 -181 446 -199 349 -199 c 256
 252 -199 96 -181 96 -108 c 256
 96 -80 111 -58 141 -43 c 257
 156 -36 185 -27 226 -18 c 256
 260 -10 278 -2 282 6 c 256
 286 14 288 23 288 33 c 257
 285 88 275 283 275 310 c 257
 275 310 l 257
625 676 m 257
 625 733 613 786 589 834 c 257
 109 834 l 257
 85 785 73 732 73 676 c 256
 73 626 82 585 99 554 c 257
 158 562 202 566 228 566 c 258
 470 566 l 258
 508 566 551 562 599 554 c 257
 616 583 625 623 625 676 c 257
 625 676 l 257
583 534 m 257
 572 537 556 540 535 545 c 257
 511 547 491 548 475 548 c 258
 223 548 l 258
 182 548 146 544 115 534 c 257
 129 531 149 527 177 523 c 257
 218 518 246 515 263 515 c 258
 435 515 l 258
 470 515 519 522 583 534 c 257
 583 534 l 257
507 431 m 257
 496 430 481 431 461 428 c 257
 412 416 375 411 347 411 c 256
 288 411 291 412 240 426 c 256
 223 431 208 431 197 431 c 256
 196 431 195 431 194 431 c 258
 191 431 l 257
 211 423 231 418 250 410 c 257
 274 400 291 387 301 373 c 257
 306 367 309 354 310 335 c 256
 313 277 323 88 323 29 c 256
 323 1 319 -6 306 -27 c 257
 300 -38 297 -44 297 -45 c 258
 297 -68 l 257
 309 -74 328 -77 355 -77 c 256
 372 -77 388 -74 401 -68 c 257
 401 -45 l 257
 401 -46 397 -37 388 -19 c 257
 380 0 375 16 375 29 c 256
 375 34 377 71 379 140 c 256
 381 183 384 248 388 335 c 256
 389 353 392 365 397 373 c 256
 414 400 470 417 507 431 c 257
 507 431 l 257
172 -113 m 257
 211 -129 277 -132 330 -138 c 257
 330 -145 l 257
 324 -151 316 -154 305 -154 c 256
 285 -154 263 -151 239 -145 c 256
 215 -139 204 -136 204 -135 c 257
 202 -135 201 -136 201 -139 c 258
 201 -141 l 257
 240 -154 290 -160 349 -160 c 256
 424 -160 461 -156 514 -136 c 256
 543 -125 558 -115 558 -105 c 256
 558 -93 539 -80 501 -65 c 256
 467 -52 442 -46 426 -46 c 256
 423 -46 418 -47 413 -50 c 257
 415 -53 420 -57 429 -61 c 256
 438 -65 443 -70 443 -78 c 256
 443 -96 412 -105 349 -105 c 256
 286 -105 255 -96 255 -78 c 256
 255 -72 263 -65 280 -57 c 257
 285 -50 l 257
 280 -47 275 -46 272 -46 c 256
 256 -46 231 -52 197 -65 c 256
 159 -80 140 -93 140 -105 c 256
 140 -119 171 -130 184 -136 c 257
 191 -130 l 257
 183 -126 176 -123 171 -120 c 257
 171 -115 l 257
 172 -113 l 257
337 57 m 257
 332 60 330 63 330 69 c 258
 324 321 l 258
 324 339 322 355 319 369 c 257
 331 369 l 257
 335 362 337 358 337 358 c 257
 337 57 l 257
441 -115 m 257
 425 -123 395 -127 349 -127 c 256
 304 -127 273 -123 257 -115 c 257
 261 -108 l 257
 277 -113 297 -115 320 -115 c 258
 371 -115 l 258
 397 -115 419 -113 437 -108 c 257
 441 -115 l 257
EndSplineSet
PickledDataWithLists: "(dp0
Vpublic.postscript.hints
p1
(dp2
VformatVersion
p3
V1
p4
sVhintSetList
p5
(lp6
(dp7
Vstems
p8
(lp9
Vhstem -199 39
p10
aVhstem -154 16
p11
aVhstem -127 12
p12
aVhstem -115 7
p13
aVhstem -105 28
p14
aVhstem 411 104
p15
aVhstem 431 84
p16
aVhstem 548 18
p17
aVhstem 834 37
p18
aVvstem 96 44
p19
aVvstem 255 42
p20
aVvstem 275 35
p21
aVvstem 288 35
p22
aVvstem 324 13
p23
aVvstem 330 7
p24
aVvstem 375 35
p25
aVvstem 388 34
p26
aVvstem 401 42
p27
aVvstem 558 44
p28
asasVid
p29
V9ef32ad0de708059216e02bae289bbb4bd0b7514fdaf5806718605de442f65378cfb3d3d082a069e7c269865aefa3e08e3b5bb6253f3ca985ba35f291df34c0e
p30
ss."
Comment: "+AAoA-Used in liturgical calendars+AAoA-"
EndChar

StartChar: u1F41F
Encoding: 332 128031 78
GlifName: u1F_41F_
Width: 1438
VWidth: 0
Flags: W
LayerCount: 2
Fore
SplineSet
1355 386 m 257
 1364 386 1372 380 1372 369 c 256
 1372 347 1353 317 1343 298 c 257
 1326 255 1317 208 1317 156 c 256
 1317 89 1324 63 1350 0 c 257
 1366 -32 1381 -68 1394 -107 c 257
 1394 -110 1391 -113 1386 -118 c 257
 1354 -114 1322 -84 1290 -28 c 257
 1279 -10 1268 14 1256 45 c 256
 1239 86 1229 111 1224 120 c 257
 1220 120 1215 121 1210 121 c 256
 1168 121 1127 109 1087 85 c 257
 1071 76 1055 62 1039 43 c 257
 1035 39 1034 34 1034 27 c 256
 1034 15 1040 -3 1052 -26 c 256
 1068 -55 1076 -76 1076 -90 c 256
 1076 -93 1075 -96 1074 -99 c 257
 1068 -98 1060 -97 1049 -95 c 257
 1024 -88 986 -54 934 6 c 257
 893 5 853 3 812 2 c 257
 766 2 725 5 691 12 c 257
 680 -8 675 -31 675 -56 c 256
 675 -59 675 -61 675 -63 c 257
 679 -89 682 -115 685 -140 c 257
 682 -141 678 -142 675 -142 c 256
 651 -142 624 -116 594 -65 c 256
 578 -37 552 20 532 36 c 257
 531 37 514 43 482 54 c 256
 423 73 367 103 314 142 c 256
 229 204 157 251 99 284 c 256
 61 305 40 319 35 328 c 257
 32 334 30 340 30 345 c 256
 30 366 54 375 83 375 c 256
 93 375 103 375 116 373 c 257
 116 375 115 378 113 381 c 257
 102 400 90 414 79 422 c 256
 60 436 51 443 51 443 c 257
 48 450 l 257
 50 460 53 466 57 469 c 257
 62 472 83 480 119 492 c 257
 153 505 205 522 274 544 c 257
 361 569 430 581 480 581 c 256
 495 581 507 580 519 578 c 257
 531 613 537 623 566 666 c 256
 586 696 599 713 604 716 c 257
 606 717 607 718 609 718 c 256
 619 718 634 710 636 707 c 257
 636 707 642 655 642 654 c 257
 653 611 705 542 728 521 c 256
 747 504 775 485 814 466 c 257
 858 497 882 514 886 516 c 257
 907 528 923 534 936 534 c 256
 946 534 957 529 957 517 c 256
 957 508 951 493 938 472 c 256
 927 454 921 439 921 428 c 256
 921 423 922 420 924 416 c 257
 932 402 942 390 954 380 c 256
 972 365 1017 337 1089 294 c 256
 1159 252 1200 232 1212 232 c 256
 1224 232 1239 277 1245 290 c 257
 1247 293 1257 307 1278 333 c 257
 1291 350 1309 365 1333 379 c 256
 1342 384 1349 386 1355 386 c 257
 1355 386 l 257
619 694 m 257
 589 653 574 632 573 631 c 257
 557 606 547 582 542 560 c 257
 569 558 620 545 695 523 c 257
 688 536 684 542 670 558 c 256
 639 593 621 638 619 694 c 257
 619 694 l 257
934 505 m 257
 888 494 891 494 863 470 c 256
 848 457 838 449 833 445 c 257
 914 405 l 257
 905 412 900 422 900 434 c 256
 900 442 902 452 907 462 c 257
 916 476 925 490 934 505 c 257
 934 505 l 257
242 389 m 257
 263 389 269 402 270 426 c 257
 270 459 253 484 228 484 c 256
 220 484 212 482 204 477 c 257
 197 473 194 463 194 452 c 256
 194 433 201 409 207 400 c 257
 210 394 228 389 242 389 c 257
 242 389 l 257
652 -60 m 257
 652 -28 661 35 681 35 c 256
 702 35 820 30 876 30 c 256
 887 30 896 30 901 31 c 257
 921 37 951 45 991 54 c 257
 988 47 982 40 973 34 c 257
 959 23 951 18 950 17 c 257
 964 -6 l 257
 965 -9 978 -20 1003 -41 c 256
 1028 -61 1041 -72 1044 -73 c 256
 1047 -74 1051 -75 1056 -76 c 257
 1056 -76 1046 -56 1022 -9 c 256
 1013 8 1009 23 1009 36 c 256
 1009 47 1012 57 1018 64 c 256
 1031 79 1054 97 1088 117 c 256
 1104 126 1159 147 1199 147 c 256
 1216 147 1231 142 1237 131 c 257
 1250 109 1277 30 1290 8 c 257
 1301 -12 1325 -41 1361 -79 c 257
 1345 -44 1331 -9 1320 27 c 257
 1313 44 1304 71 1293 107 c 257
 1291 120 1290 133 1290 147 c 256
 1290 221 1321 308 1346 354 c 257
 1345 356 1345 356 1343 359 c 257
 1325 346 1302 324 1273 293 c 257
 1272 291 1265 275 1252 246 c 257
 1242 227 1232 213 1221 205 c 257
 1216 208 1209 213 1198 219 c 257
 1195 221 1162 234 1100 257 c 258
 723 400 l 257
 705 408 677 418 639 431 c 257
 615 439 543 449 422 463 c 257
 447 420 466 380 469 345 c 257
 518 359 571 367 626 367 c 256
 678 367 801 354 816 328 c 257
 819 322 820 315 818 305 c 257
 807 288 805 287 786 280 c 257
 778 278 772 275 769 273 c 257
 708 238 656 220 613 220 c 256
 608 220 604 220 599 221 c 257
 596 230 597 237 603 240 c 257
 606 242 619 246 643 253 c 256
 702 271 750 291 788 313 c 257
 783 317 777 320 768 320 c 256
 762 320 741 318 705 314 c 257
 674 312 628 307 566 300 c 257
 554 299 545 297 537 297 c 256
 528 297 521 299 515 307 c 257
 516 308 l 257
 534 312 605 320 730 332 c 257
 693 337 657 339 624 339 c 256
 566 339 514 332 469 317 c 257
 469 308 l 258
 469 291 469 274 469 257 c 256
 469 234 465 215 457 200 c 257
 455 196 440 179 414 151 c 256
 403 139 402 137 386 135 c 257
 405 124 429 112 458 101 c 256
 507 82 532 73 533 73 c 257
 541 69 548 63 553 55 c 257
 563 36 593 -26 604 -44 c 256
 621 -73 639 -95 661 -110 c 257
 658 -98 652 -79 652 -60 c 257
 652 -60 l 257
385 316 m 257
 385 262 354 204 302 204 c 256
 287 204 274 210 263 223 c 257
 265 224 l 257
 272 222 280 221 286 221 c 256
 323 221 351 251 357 278 c 257
 359 285 359 294 359 304 c 256
 359 325 352 384 348 390 c 257
 343 399 324 414 306 414 c 256
 302 414 297 413 293 410 c 257
 290 409 267 374 265 372 c 257
 257 368 250 366 242 366 c 256
 220 366 198 382 190 396 c 257
 182 409 179 425 179 442 c 256
 179 451 180 461 182 471 c 257
 173 471 138 464 76 450 c 257
 88 441 104 427 125 405 c 257
 139 386 152 367 166 348 c 257
 181 329 196 317 208 317 c 256
 216 317 222 321 226 330 c 257
 235 328 l 257
 233 299 231 290 210 290 c 256
 187 290 161 310 151 321 c 257
 149 326 144 332 138 341 c 257
 131 347 109 352 90 352 c 256
 73 352 58 348 56 337 c 257
 91 318 142 288 210 247 c 257
 217 241 227 232 240 220 c 257
 286 185 322 165 347 161 c 257
 348 161 350 161 352 161 c 256
 362 161 374 165 388 173 c 256
 433 199 443 230 443 294 c 256
 443 324 440 359 434 392 c 257
 432 401 425 416 413 435 c 256
 401 455 390 468 379 473 c 257
 372 477 361 478 349 478 c 256
 321 478 287 471 275 464 c 257
 283 446 l 257
 285 442 296 437 317 432 c 256
 360 421 385 368 385 316 c 257
 385 316 l 257
228 467 m 257
 242 467 259 440 259 424 c 256
 259 414 249 403 237 403 c 256
 223 403 206 428 206 444 c 256
 206 455 216 467 228 467 c 257
 228 467 l 257
718 300 m 257
 713 290 l 257
 561 280 l 257
 560 290 l 257
 574 293 646 305 688 305 c 256
 703 305 714 304 718 300 c 257
 718 300 l 257
230 450 m 257
 228 450 225 452 222 454 c 257
 218 451 l 257
 217 442 219 437 226 435 c 257
 227 436 228 441 230 450 c 257
 230 450 l 257
248 418 m 257
 248 422 246 427 243 431 c 257
 240 428 236 422 232 414 c 257
 233 414 235 414 237 414 c 256
 241 414 245 416 248 418 c 257
 248 418 l 257
EndSplineSet
PickledDataWithLists: "(dp0
Vpublic.postscript.hints
p1
(dp2
VformatVersion
p3
V1
p4
sVhintSetList
p5
(lp6
(dp7
Vstems
p8
(lp9
Vhstem 2 28
p10
aVhstem 121 26
p11
aVhstem 204 17
p12
aVhstem 290 27
p13
aVhstem 339 28
p14
aVhstem 352 23
p15
aVhstem 366 23
p16
aVhstem 403 11
p17
aVhstem 450 17
p18
aVhstem 484 97
p19
aVvstem 179 15
p20
aVvstem 226 9
p21
aVvstem 248 11
p22
aVvstem 359 26
p23
aVvstem 443 26
p24
aVvstem 619 23
p25
aVvstem 652 23
p26
aVvstem 900 21
p27
aVvstem 1009 25
p28
aVvstem 1290 27
p29
asasVid
p30
V57b382ddb691804f0ad2758b5c3f6fbbb4192298d495d4d1d539e482bcf0f381cd79342d5bb31224ca2cd5915433efbf16306717a60c4bb73fdcb768f4ac6dc5
p31
ss."
Comment: "+AAoA-Used in liturgical calendars+AAoA-"
EndChar

StartChar: u1F540
Encoding: 333 128320 79
GlifName: u1F_540
Width: 789
VWidth: 0
Flags: W
LayerCount: 2
Fore
SplineSet
393 769 m 257
 502 769 593 731 668 656 c 256
 743 581 780 490 780 383 c 256
 780 276 742 186 667 111 c 256
 592 36 501 -1 393 -1 c 256
 288 -1 197 36 122 111 c 256
 47 186 9 276 9 383 c 256
 9 490 46 581 121 656 c 256
 196 731 286 769 393 769 c 257
 393 769 l 257
393 731 m 257
 297 731 215 697 147 630 c 256
 80 563 46 480 46 383 c 256
 46 287 80 205 147 138 c 256
 215 70 297 36 393 36 c 256
 490 36 572 70 639 138 c 257
 707 205 741 287 741 383 c 256
 741 480 707 563 640 630 c 256
 573 697 490 731 393 731 c 257
 393 731 l 257
609 300 m 257
 573 300 549 319 536 346 c 257
 432 346 l 257
 432 242 l 257
 461 229 481 205 481 169 c 256
 481 121 444 82 396 82 c 256
 347 82 311 120 311 169 c 256
 311 205 330 229 357 242 c 257
 357 346 l 257
 253 346 l 257
 240 317 216 297 180 297 c 256
 132 297 93 334 93 382 c 256
 93 430 131 467 180 467 c 256
 215 467 240 448 253 421 c 257
 357 421 l 257
 357 525 l 257
 328 538 311 562 311 598 c 256
 311 647 344 684 393 684 c 256
 442 684 478 647 478 598 c 256
 478 562 459 538 432 525 c 257
 432 421 l 257
 536 421 l 257
 549 450 573 470 609 470 c 256
 658 470 695 434 695 385 c 256
 695 336 658 300 609 300 c 257
 609 300 l 257
EndSplineSet
PickledDataWithLists: "(dp0
Vpublic.postscript.hints
p1
(dp2
VformatVersion
p3
V1
p4
sVhintSetList
p5
(lp6
(dp7
Vstems
p8
(lp9
Vhstem -1 37
p10
aVhstem 300 170
p11
aVhstem 346 75
p12
aVhstem 731 38
p13
aVvstem 9 37
p14
aVvstem 311 170
p15
aVvstem 357 75
p16
aVvstem 741 39
p17
asasVid
p18
Ve0524202e8feeee97d2585b10683cf08abe728efea2bc072fb8fa00d7091e4630292889f5f63017b782ea2734aed2ae54fb6d727849697a974cc951da550d68f
p19
ss."
EndChar

StartChar: u1F540.bmp
Encoding: 334 62464 80
GlifName: u1F_540.bmp
Width: 789
VWidth: 0
Flags: W
LayerCount: 2
Fore
SplineSet
393 769 m 257
 502 769 593 731 668 656 c 256
 743 581 780 490 780 383 c 256
 780 276 742 186 667 111 c 256
 592 36 501 -1 393 -1 c 256
 288 -1 197 36 122 111 c 256
 47 186 9 276 9 383 c 256
 9 490 46 581 121 656 c 256
 196 731 286 769 393 769 c 257
 393 769 l 257
393 731 m 257
 297 731 215 697 147 630 c 256
 80 563 46 480 46 383 c 256
 46 287 80 205 147 138 c 256
 215 70 297 36 393 36 c 256
 490 36 572 70 639 138 c 257
 707 205 741 287 741 383 c 256
 741 480 707 563 640 630 c 256
 573 697 490 731 393 731 c 257
 393 731 l 257
609 300 m 257
 573 300 549 319 536 346 c 257
 432 346 l 257
 432 242 l 257
 461 229 481 205 481 169 c 256
 481 121 444 82 396 82 c 256
 347 82 311 120 311 169 c 256
 311 205 330 229 357 242 c 257
 357 346 l 257
 253 346 l 257
 240 317 216 297 180 297 c 256
 132 297 93 334 93 382 c 256
 93 430 131 467 180 467 c 256
 215 467 240 448 253 421 c 257
 357 421 l 257
 357 525 l 257
 328 538 311 562 311 598 c 256
 311 647 344 684 393 684 c 256
 442 684 478 647 478 598 c 256
 478 562 459 538 432 525 c 257
 432 421 l 257
 536 421 l 257
 549 450 573 470 609 470 c 256
 658 470 695 434 695 385 c 256
 695 336 658 300 609 300 c 257
 609 300 l 257
EndSplineSet
PickledDataWithLists: "(dp0
Vpublic.postscript.hints
p1
(dp2
VformatVersion
p3
V1
p4
sVhintSetList
p5
(lp6
(dp7
Vstems
p8
(lp9
Vhstem -1 37
p10
aVhstem 300 170
p11
aVhstem 346 75
p12
aVhstem 731 38
p13
aVvstem 9 37
p14
aVvstem 311 170
p15
aVvstem 357 75
p16
aVvstem 741 39
p17
asasVid
p18
Ve0524202e8feeee97d2585b10683cf08abe728efea2bc072fb8fa00d7091e4630292889f5f63017b782ea2734aed2ae54fb6d727849697a974cc951da550d68f
p19
ss."
Comment: "+AAoA-Duplicates of Typicon symbols in BMP for legacy app support+AAoA-"
EndChar

StartChar: u1F541
Encoding: 335 128321 81
GlifName: u1F_541
Width: 800
VWidth: 0
Flags: W
AnchorPoint: "DoubleTitlo" 800.5 799.5 basechar 0
AnchorPoint: "HalfMark" 404 799 basechar 0
AnchorPoint: "Yerok" 627.5 705.5 basechar 0
AnchorPoint: "Diacritic" 626 708 basechar 0
LayerCount: 2
Fore
SplineSet
789 383 m 257
 789 276 751 186 676 111 c 256
 601 36 510 -1 402 -1 c 256
 297 -1 206 36 131 111 c 256
 56 186 18 276 18 383 c 257
 56 383 l 257
 56 287 90 205 157 138 c 256
 225 70 307 36 404 36 c 256
 500 36 582 70 650 138 c 256
 717 205 751 287 751 383 c 257
 789 383 l 257
617 320 m 257
 581 320 557 339 544 366 c 257
 440 366 l 257
 440 262 l 257
 469 249 489 225 489 189 c 256
 489 141 452 102 404 102 c 256
 355 102 319 140 319 189 c 256
 319 225 338 249 365 262 c 257
 365 366 l 257
 261 366 l 257
 248 337 224 317 188 317 c 256
 140 317 101 354 101 402 c 256
 101 450 139 487 188 487 c 256
 223 487 248 468 261 441 c 257
 365 441 l 257
 365 545 l 257
 336 558 319 582 319 618 c 256
 319 667 352 704 401 704 c 256
 450 704 486 667 486 618 c 256
 486 582 467 558 440 545 c 257
 440 441 l 257
 544 441 l 257
 557 470 581 490 617 490 c 256
 666 490 703 454 703 405 c 256
 703 356 666 320 617 320 c 257
 617 320 l 257
EndSplineSet
PickledDataWithLists: "(dp0
Vpublic.postscript.hints
p1
(dp2
VformatVersion
p3
V1
p4
sVhintSetList
p5
(lp6
(dp7
Vstems
p8
(lp9
Vhstem -1 37
p10
aVhstem 320 170
p11
aVhstem 366 75
p12
aVvstem 18 38
p13
aVvstem 319 170
p14
aVvstem 365 75
p15
aVvstem 751 38
p16
asasVid
p17
Ve6504ce08dfb5d505717ab28cf9cbbd085a32305d2c04faafbc01a9454f26d96426ba928d08db14a4620b610920e59a7e0434d951ccfadacf8b6a770cd760162
p18
ss."
EndChar

StartChar: u1F541.bmp
Encoding: 336 62465 82
GlifName: u1F_541.bmp
Width: 800
VWidth: 0
Flags: W
AnchorPoint: "DoubleTitlo" 800.5 799.5 basechar 0
AnchorPoint: "HalfMark" 404 799 basechar 0
AnchorPoint: "Yerok" 627.5 705.5 basechar 0
AnchorPoint: "Diacritic" 626 708 basechar 0
LayerCount: 2
Fore
SplineSet
789 383 m 257
 789 276 751 186 676 111 c 256
 601 36 510 -1 402 -1 c 256
 297 -1 206 36 131 111 c 256
 56 186 18 276 18 383 c 257
 56 383 l 257
 56 287 90 205 157 138 c 256
 225 70 307 36 404 36 c 256
 500 36 582 70 650 138 c 256
 717 205 751 287 751 383 c 257
 789 383 l 257
617 320 m 257
 581 320 557 339 544 366 c 257
 440 366 l 257
 440 262 l 257
 469 249 489 225 489 189 c 256
 489 141 452 102 404 102 c 256
 355 102 319 140 319 189 c 256
 319 225 338 249 365 262 c 257
 365 366 l 257
 261 366 l 257
 248 337 224 317 188 317 c 256
 140 317 101 354 101 402 c 256
 101 450 139 487 188 487 c 256
 223 487 248 468 261 441 c 257
 365 441 l 257
 365 545 l 257
 336 558 319 582 319 618 c 256
 319 667 352 704 401 704 c 256
 450 704 486 667 486 618 c 256
 486 582 467 558 440 545 c 257
 440 441 l 257
 544 441 l 257
 557 470 581 490 617 490 c 256
 666 490 703 454 703 405 c 256
 703 356 666 320 617 320 c 257
 617 320 l 257
EndSplineSet
PickledDataWithLists: "(dp0
Vpublic.postscript.hints
p1
(dp2
VformatVersion
p3
V1
p4
sVhintSetList
p5
(lp6
(dp7
Vstems
p8
(lp9
Vhstem -1 37
p10
aVhstem 320 170
p11
aVhstem 366 75
p12
aVvstem 18 38
p13
aVvstem 319 170
p14
aVvstem 365 75
p15
aVvstem 751 38
p16
asasVid
p17
Ve6504ce08dfb5d505717ab28cf9cbbd085a32305d2c04faafbc01a9454f26d96426ba928d08db14a4620b610920e59a7e0434d951ccfadacf8b6a770cd760162
p18
ss."
Comment: "+AAoA-Duplicates of Typicon symbols in BMP for legacy app support+AAoA-"
EndChar

StartChar: u1F542
Encoding: 337 128322 83
GlifName: u1F_542
Width: 645
VWidth: 0
Flags: W
LayerCount: 2
Fore
SplineSet
533 300 m 257
 497 300 472 318 459 346 c 257
 356 346 l 257
 356 242 l 257
 385 229 405 205 405 169 c 256
 405 120 368 82 319 82 c 256
 271 82 235 120 235 169 c 256
 235 204 254 229 280 242 c 257
 280 346 l 257
 177 346 l 257
 164 317 140 297 104 297 c 256
 54 297 17 333 17 382 c 256
 17 431 54 467 104 467 c 256
 140 467 164 448 177 421 c 257
 280 421 l 257
 280 525 l 257
 252 538 231 562 231 598 c 256
 231 646 269 684 317 684 c 256
 365 684 401 647 401 598 c 256
 401 563 382 538 356 525 c 257
 356 421 l 257
 459 421 l 257
 472 450 496 470 533 470 c 256
 582 470 619 434 619 385 c 256
 619 336 582 300 533 300 c 257
 533 300 l 257
EndSplineSet
PickledDataWithLists: "(dp0
Vpublic.postscript.hints
p1
(dp2
VformatVersion
p3
V1
p4
sVhintSetList
p5
(lp6
(dp7
Vstems
p8
(lp9
Vhstem 300 170
p10
aVhstem 346 75
p11
aVvstem 235 170
p12
aVvstem 280 76
p13
asasVid
p14
V33516ef86fe122082bdaad79b0ef0d7bf5c01b492d59e025d47c8c8e08c1ff9d8855f472d2900d8c94cbe50c0ee82016e880297f818eb3e6b568167025ab6f4d
p15
ss."
EndChar

StartChar: u1F542.bmp
Encoding: 338 62466 84
GlifName: u1F_542.bmp
Width: 645
VWidth: 0
Flags: W
LayerCount: 2
Fore
SplineSet
533 300 m 257
 497 300 472 318 459 346 c 257
 356 346 l 257
 356 242 l 257
 385 229 405 205 405 169 c 256
 405 120 368 82 319 82 c 256
 271 82 235 120 235 169 c 256
 235 204 254 229 280 242 c 257
 280 346 l 257
 177 346 l 257
 164 317 140 297 104 297 c 256
 54 297 17 333 17 382 c 256
 17 431 54 467 104 467 c 256
 140 467 164 448 177 421 c 257
 280 421 l 257
 280 525 l 257
 252 538 231 562 231 598 c 256
 231 646 269 684 317 684 c 256
 365 684 401 647 401 598 c 256
 401 563 382 538 356 525 c 257
 356 421 l 257
 459 421 l 257
 472 450 496 470 533 470 c 256
 582 470 619 434 619 385 c 256
 619 336 582 300 533 300 c 257
 533 300 l 257
EndSplineSet
PickledDataWithLists: "(dp0
Vpublic.postscript.hints
p1
(dp2
VformatVersion
p3
V1
p4
sVhintSetList
p5
(lp6
(dp7
Vstems
p8
(lp9
Vhstem 300 170
p10
aVhstem 346 75
p11
aVvstem 235 170
p12
aVvstem 280 76
p13
asasVid
p14
V33516ef86fe122082bdaad79b0ef0d7bf5c01b492d59e025d47c8c8e08c1ff9d8855f472d2900d8c94cbe50c0ee82016e880297f818eb3e6b568167025ab6f4d
p15
ss."
Comment: "+AAoA-Duplicates of Typicon symbols in BMP for legacy app support+AAoA-"
EndChar

StartChar: u1F543
Encoding: 339 128323 85
GlifName: u1F_543
Width: 705
VWidth: 0
Flags: W
LayerCount: 2
Fore
SplineSet
17 551 m 257
 17 582 23 611 34 638 c 257
 67 713 138 774 245 774 c 256
 289 774 334 766 379 750 c 256
 457 721 540 679 602 642 c 256
 628 626 644 618 650 618 c 256
 661 618 667 628 670 636 c 257
 675 648 l 257
 676 652 679 654 683 654 c 256
 690 654 691 650 691 643 c 258
 691 610 l 258
 691 597 690 578 690 551 c 256
 690 548 687 547 681 547 c 256
 678 547 670 551 660 560 c 257
 648 569 634 579 616 590 c 258
 554 630 l 258
 530 645 505 658 478 670 c 256
 430 691 369 712 304 712 c 256
 179 712 127 643 127 526 c 256
 127 518 128 510 128 502 c 256
 128 465 137 418 137 384 c 256
 137 381 137 377 137 374 c 256
 137 342 128 301 128 268 c 256
 128 260 127 252 127 244 c 256
 127 126 181 57 304 57 c 256
 333 57 363 61 392 70 c 257
 451 86 508 110 553 139 c 258
 615 179 l 258
 634 191 648 201 659 210 c 257
 670 218 678 222 681 222 c 256
 687 222 690 221 690 218 c 256
 690 191 691 172 691 159 c 258
 691 127 l 258
 691 120 690 115 683 115 c 256
 679 115 676 117 675 121 c 257
 671 133 666 152 650 152 c 256
 644 152 628 144 602 127 c 257
 575 111 543 93 504 73 c 256
 436 38 342 -5 245 -5 c 256
 174 -5 120 22 82 59 c 257
 46 96 17 150 17 218 c 256
 17 287 43 345 79 384 c 257
 43 426 17 480 17 551 c 257
 17 551 l 257
304 493 m 257
 264 493 234 524 234 564 c 256
 234 603 265 635 304 635 c 256
 343 635 376 603 376 564 c 256
 376 524 344 493 304 493 c 257
 304 493 l 257
304 134 m 257
 264 134 234 165 234 205 c 256
 234 245 264 277 304 277 c 256
 344 277 376 245 376 205 c 256
 376 165 344 134 304 134 c 257
 304 134 l 257
532 313 m 257
 493 313 460 345 460 384 c 256
 460 424 492 456 532 456 c 256
 572 456 602 424 602 384 c 256
 602 345 571 313 532 313 c 257
 532 313 l 257
EndSplineSet
PickledDataWithLists: "(dp0
Vpublic.postscript.hints
p1
(dp2
VformatVersion
p3
V1
p4
sVhintSetList
p5
(lp6
(dp7
Vstems
p8
(lp9
Vhstem -5 62
p10
aVhstem 134 143
p11
aVhstem 152 70
p12
aVhstem 313 143
p13
aVhstem 493 142
p14
aVhstem 547 71
p15
aVhstem 712 62
p16
aVvstem 17 110
p17
aVvstem 234 142
p18
aVvstem 460 142
p19
aVvstem 675 16
p20
asasVid
p21
V8b9bbcaec6ce15ea2ae489597170d2f7c01cd50a60ea597b29c4cb3da057978e7df563804a04c41abaef78840a1668a7131872755e36bee23d35c3c8971debbf
p22
ss."
EndChar

StartChar: u1F543.bmp
Encoding: 340 62467 86
GlifName: u1F_543.bmp
Width: 705
VWidth: 0
Flags: W
LayerCount: 2
Fore
SplineSet
17 551 m 257
 17 582 23 611 34 638 c 257
 67 713 138 774 245 774 c 256
 289 774 334 766 379 750 c 256
 457 721 540 679 602 642 c 256
 628 626 644 618 650 618 c 256
 661 618 667 628 670 636 c 257
 675 648 l 257
 676 652 679 654 683 654 c 256
 690 654 691 650 691 643 c 258
 691 610 l 258
 691 597 690 578 690 551 c 256
 690 548 687 547 681 547 c 256
 678 547 670 551 660 560 c 257
 648 569 634 579 616 590 c 258
 554 630 l 258
 530 645 505 658 478 670 c 256
 430 691 369 712 304 712 c 256
 179 712 127 643 127 526 c 256
 127 518 128 510 128 502 c 256
 128 465 137 418 137 384 c 256
 137 381 137 377 137 374 c 256
 137 342 128 301 128 268 c 256
 128 260 127 252 127 244 c 256
 127 126 181 57 304 57 c 256
 333 57 363 61 392 70 c 257
 451 86 508 110 553 139 c 258
 615 179 l 258
 634 191 648 201 659 210 c 257
 670 218 678 222 681 222 c 256
 687 222 690 221 690 218 c 256
 690 191 691 172 691 159 c 258
 691 127 l 258
 691 120 690 115 683 115 c 256
 679 115 676 117 675 121 c 257
 671 133 666 152 650 152 c 256
 644 152 628 144 602 127 c 257
 575 111 543 93 504 73 c 256
 436 38 342 -5 245 -5 c 256
 174 -5 120 22 82 59 c 257
 46 96 17 150 17 218 c 256
 17 287 43 345 79 384 c 257
 43 426 17 480 17 551 c 257
 17 551 l 257
304 493 m 257
 264 493 234 524 234 564 c 256
 234 603 265 635 304 635 c 256
 343 635 376 603 376 564 c 256
 376 524 344 493 304 493 c 257
 304 493 l 257
304 134 m 257
 264 134 234 165 234 205 c 256
 234 245 264 277 304 277 c 256
 344 277 376 245 376 205 c 256
 376 165 344 134 304 134 c 257
 304 134 l 257
532 313 m 257
 493 313 460 345 460 384 c 256
 460 424 492 456 532 456 c 256
 572 456 602 424 602 384 c 256
 602 345 571 313 532 313 c 257
 532 313 l 257
EndSplineSet
PickledDataWithLists: "(dp0
Vpublic.postscript.hints
p1
(dp2
VformatVersion
p3
V1
p4
sVhintSetList
p5
(lp6
(dp7
Vstems
p8
(lp9
Vhstem -5 62
p10
aVhstem 134 143
p11
aVhstem 152 70
p12
aVhstem 313 143
p13
aVhstem 493 142
p14
aVhstem 547 71
p15
aVhstem 712 62
p16
aVvstem 17 110
p17
aVvstem 234 142
p18
aVvstem 460 142
p19
aVvstem 675 16
p20
asasVid
p21
V8b9bbcaec6ce15ea2ae489597170d2f7c01cd50a60ea597b29c4cb3da057978e7df563804a04c41abaef78840a1668a7131872755e36bee23d35c3c8971debbf
p22
ss."
Comment: "+AAoA-Duplicates of Typicon symbols in BMP for legacy app support+AAoA-"
EndChar

StartChar: u1F544
Encoding: 341 128324 87
GlifName: u1F_544
Width: 711
VWidth: 0
Flags: W
LayerCount: 2
Fore
SplineSet
636 384 m 257
 672 345 697 287 697 218 c 256
 697 187 691 158 680 131 c 256
 647 55 577 -5 470 -5 c 256
 426 -5 384 3 339 19 c 256
 260 47 173 89 112 128 c 257
 85 144 71 152 65 152 c 256
 53 152 47 142 44 134 c 257
 42 127 39 115 32 115 c 256
 24 115 23 120 23 127 c 258
 23 218 l 258
 23 221 27 222 33 222 c 256
 36 222 44 218 55 210 c 257
 66 201 80 191 99 179 c 258
 161 139 l 258
 184 124 210 111 237 100 c 256
 285 79 345 57 410 57 c 256
 535 57 587 127 587 244 c 256
 587 252 587 260 587 268 c 256
 587 301 577 342 577 374 c 256
 577 378 577 381 577 384 c 256
 577 418 587 464 587 502 c 256
 587 510 587 519 587 527 c 256
 587 645 534 712 410 712 c 256
 381 712 351 708 322 700 c 256
 262 684 207 659 161 630 c 258
 99 591 l 258
 80 579 66 569 55 560 c 256
 44 551 36 547 33 547 c 256
 27 547 23 548 23 551 c 258
 23 643 l 258
 23 650 24 654 32 654 c 256
 35 654 38 652 40 649 c 257
 45 636 47 618 65 618 c 256
 71 618 85 626 112 642 c 256
 138 658 172 676 210 696 c 256
 278 730 374 774 470 774 c 256
 540 774 596 745 632 709 c 256
 668 672 697 620 697 551 c 256
 697 480 672 426 636 384 c 257
 636 384 l 257
481 564 m 257
 481 524 450 493 410 493 c 256
 371 493 339 525 339 564 c 256
 339 602 372 635 410 635 c 256
 449 635 481 603 481 564 c 257
 481 564 l 257
481 205 m 257
 481 165 450 134 410 134 c 256
 371 134 339 166 339 205 c 256
 339 244 371 277 410 277 c 256
 450 277 481 245 481 205 c 257
 481 205 l 257
254 384 m 257
 254 346 221 313 183 313 c 256
 144 313 112 345 112 384 c 256
 112 424 143 456 183 456 c 256
 222 456 254 423 254 384 c 257
 254 384 l 257
EndSplineSet
PickledDataWithLists: "(dp0
Vpublic.postscript.hints
p1
(dp2
VformatVersion
p3
V1
p4
sVhintSetList
p5
(lp6
(dp7
Vstems
p8
(lp9
Vhstem -5 62
p10
aVhstem 134 143
p11
aVhstem 152 70
p12
aVhstem 313 143
p13
aVhstem 493 142
p14
aVhstem 547 71
p15
aVhstem 712 62
p16
aVvstem 23 17
p17
aVvstem 112 142
p18
aVvstem 339 142
p19
aVvstem 587 110
p20
asasVid
p21
V97b3150a6af688aff8836534d301c1c0219917dd7460a655995632fb54f2613ee69e17c5cc753ff075255ce089ba76037a5d986faf421a98a55a8e02bbc51e0c
p22
ss."
EndChar

StartChar: u1F544.bmp
Encoding: 342 62468 88
GlifName: u1F_544.bmp
Width: 711
VWidth: 0
Flags: W
LayerCount: 2
Fore
SplineSet
636 384 m 257
 672 345 697 287 697 218 c 256
 697 187 691 158 680 131 c 256
 647 55 577 -5 470 -5 c 256
 426 -5 384 3 339 19 c 256
 260 47 173 89 112 128 c 257
 85 144 71 152 65 152 c 256
 53 152 47 142 44 134 c 257
 42 127 39 115 32 115 c 256
 24 115 23 120 23 127 c 258
 23 218 l 258
 23 221 27 222 33 222 c 256
 36 222 44 218 55 210 c 257
 66 201 80 191 99 179 c 258
 161 139 l 258
 184 124 210 111 237 100 c 256
 285 79 345 57 410 57 c 256
 535 57 587 127 587 244 c 256
 587 252 587 260 587 268 c 256
 587 301 577 342 577 374 c 256
 577 378 577 381 577 384 c 256
 577 418 587 464 587 502 c 256
 587 510 587 519 587 527 c 256
 587 645 534 712 410 712 c 256
 381 712 351 708 322 700 c 256
 262 684 207 659 161 630 c 258
 99 591 l 258
 80 579 66 569 55 560 c 256
 44 551 36 547 33 547 c 256
 27 547 23 548 23 551 c 258
 23 643 l 258
 23 650 24 654 32 654 c 256
 35 654 38 652 40 649 c 257
 45 636 47 618 65 618 c 256
 71 618 85 626 112 642 c 256
 138 658 172 676 210 696 c 256
 278 730 374 774 470 774 c 256
 540 774 596 745 632 709 c 256
 668 672 697 620 697 551 c 256
 697 480 672 426 636 384 c 257
 636 384 l 257
481 564 m 257
 481 524 450 493 410 493 c 256
 371 493 339 525 339 564 c 256
 339 602 372 635 410 635 c 256
 449 635 481 603 481 564 c 257
 481 564 l 257
481 205 m 257
 481 165 450 134 410 134 c 256
 371 134 339 166 339 205 c 256
 339 244 371 277 410 277 c 256
 450 277 481 245 481 205 c 257
 481 205 l 257
254 384 m 257
 254 346 221 313 183 313 c 256
 144 313 112 345 112 384 c 256
 112 424 143 456 183 456 c 256
 222 456 254 423 254 384 c 257
 254 384 l 257
EndSplineSet
PickledDataWithLists: "(dp0
Vpublic.postscript.hints
p1
(dp2
VformatVersion
p3
V1
p4
sVhintSetList
p5
(lp6
(dp7
Vstems
p8
(lp9
Vhstem -5 62
p10
aVhstem 134 143
p11
aVhstem 152 70
p12
aVhstem 313 143
p13
aVhstem 493 142
p14
aVhstem 547 71
p15
aVhstem 712 62
p16
aVvstem 23 20
p17
aVvstem 112 142
p18
aVvstem 339 142
p19
aVvstem 587 110
p20
asasVid
p21
V97b3150a6af688aff8836534d301c1c0219917dd7460a655995632fb54f2613ee69e17c5cc753ff075255ce089ba76037a5d986faf421a98a55a8e02bbc51e0c
p22
ss."
Comment: "+AAoA-Duplicates of Typicon symbols in BMP for legacy app support+AAoA-"
EndChar

StartChar: u1F545
Encoding: 343 128325 89
GlifName: u1F_545
Width: 747
VWidth: 0
Flags: W
LayerCount: 2
Fore
SplineSet
385 774 m 257
 462 774 501 733 501 655 c 256
 501 602 470 588 419 588 c 256
 397 588 375 592 353 600 c 257
 353 462 l 257
 264 462 l 257
 264 653 l 258
 264 730 300 774 372 774 c 256
 377 774 381 774 385 774 c 257
 385 774 l 257
353 626 m 257
 362 625 370 625 378 625 c 256
 416 625 442 637 448 662 c 257
 450 668 448 673 448 678 c 256
 448 700 433 720 402 730 c 257
 397 732 393 730 388 730 c 256
 364 730 352 702 352 648 c 256
 352 641 353 634 353 626 c 257
 353 626 l 257
712 1039 m 257
 700 970 702 963 677 921 c 256
 653 881 618 856 571 844 c 256
 558 841 545 839 531 839 c 256
 496 839 451 849 434 859 c 256
 400 878 369 901 347 921 c 258
 307 956 l 257
 292 970 277 979 263 981 c 257
 253 981 l 258
 214 981 202 953 190 922 c 257
 187 913 186 897 183 874 c 258
 177 829 l 257
 159 832 l 258
 152 833 145 834 139 834 c 258
 132 834 l 258
 113 834 103 833 103 832 c 257
 79 829 l 257
 72 827 64 826 57 825 c 257
 54 830 l 257
 54 886 86 945 119 971 c 257
 144 992 157 1002 203 1013 c 257
 222 1016 248 1018 281 1018 c 256
 301 1018 318 1015 332 1010 c 256
 335 1009 351 1000 380 981 c 256
 408 962 431 937 458 913 c 257
 475 899 497 886 526 886 c 258
 539 886 l 257
 557 890 566 911 569 930 c 257
 576 958 l 257
 581 996 l 257
 584 1014 585 1029 585 1039 c 258
 585 1044 l 257
 614 1038 l 257
 620 1037 628 1036 639 1036 c 258
 661 1036 l 258
 672 1036 680 1038 686 1040 c 257
 709 1044 l 257
 712 1039 l 257
45 0 m 257
 45 761 l 257
 167 761 l 257
 167 450 l 257
 211 450 256 426 299 381 c 257
 343 337 367 306 372 288 c 257
 378 309 402 339 448 377 c 257
 490 414 530 435 563 440 c 257
 563 761 l 257
 685 761 l 257
 685 0 l 257
 563 0 l 257
 563 401 l 257
 544 395 518 379 486 352 c 256
 461 332 443 308 433 281 c 257
 433 0 l 257
 311 0 l 257
 311 281 l 257
 289 336 228 393 168 404 c 257
 168 0 l 257
 45 0 l 257
EndSplineSet
PickledDataWithLists: "(dp0
Vpublic.postscript.hints
p1
(dp2
VformatVersion
p3
V1
p4
sVhintSetList
p5
(lp6
(dp7
Vstems
p8
(lp9
Vhstem 21 -21
p10
aVhstem 404 46
p11
aVhstem 588 37
p12
aVhstem 730 44
p13
aVhstem 839 47
p14
aVhstem 981 37
p15
aVvstem 45 123
p16
aVvstem 264 89
p17
aVvstem 311 122
p18
aVvstem 448 53
p19
aVvstem 563 122
p20
asasVid
p21
V8f1c7f0320c02e493c48b6c34187a6b9054287a283e892c859e5dd06470447b1208726c8017ecaa09749344b5ca8bb3b1755e5b81a8f8db8dd8139c4d17ac2ff
p22
ss."
EndChar

StartChar: u1F545.alt1
Encoding: 344 58832 90
GlifName: u1F_545.alt1
Width: 735
VWidth: 0
Flags: W
LayerCount: 2
Fore
SplineSet
374 789 m 257
 372 776 369 764 366 751 c 257
 361 715 l 258
 359 701 359 689 359 678 c 258
 359 654 l 258
 359 645 359 635 361 630 c 257
 353 629 345 630 337 630 c 258
 315 630 l 258
 306 630 298 629 292 630 c 257
 290 647 l 257
 290 668 l 258
 290 688 295 730 295 741 c 257
 301 772 l 257
 302 780 306 789 308 797 c 257
 338 802 l 257
 345 802 352 803 360 803 c 256
 369 803 374 798 374 789 c 257
 374 789 l 257
510 802 m 257
 485 778 l 257
 465 761 l 257
 464 759 457 766 457 766 c 257
 448 772 l 257
 447 773 438 778 434 778 c 257
 425 774 415 764 409 756 c 257
 399 741 l 257
 395 737 393 734 391 730 c 257
 437 730 l 257
 444 723 449 716 452 711 c 257
 465 686 l 257
 470 673 479 647 481 630 c 257
 459 630 438 630 416 630 c 257
 411 662 395 695 379 719 c 256
 377 722 376 725 375 727 c 257
 375 730 l 257
 380 748 385 754 396 766 c 257
 403 776 411 782 416 785 c 257
 435 794 l 257
 441 798 458 802 468 802 c 258
 489 802 l 257
 497 803 503 803 508 803 c 256
 509 803 510 803 510 802 c 257
 510 802 l 257
485 529 m 258
 485 489 462 471 425 471 c 258
 415 471 l 257
 412 470 405 469 395 471 c 257
 367 481 l 257
 367 468 368 457 368 448 c 256
 368 436 368 425 368 413 c 257
 338 402 l 257
 305 398 l 257
 301 402 l 257
 301 441 301 480 301 519 c 257
 308 569 355 596 412 596 c 256
 427 596 441 592 455 584 c 257
 475 575 485 557 485 532 c 258
 485 529 l 258
370 516 m 257
 368 504 l 257
 385 498 l 257
 390 497 395 496 401 496 c 256
 411 496 422 501 424 509 c 257
 424 522 l 258
 424 539 417 546 402 548 c 257
 401 548 400 548 399 548 c 256
 384 548 370 541 370 529 c 258
 370 516 l 257
714 1039 m 257
 706 978 703 965 679 921 c 257
 654 882 620 856 572 844 c 256
 560 841 547 839 533 839 c 256
 498 839 453 849 436 859 c 256
 402 878 371 901 349 921 c 257
 308 956 l 257
 293 970 279 979 265 981 c 257
 255 981 l 258
 216 981 204 953 192 922 c 257
 189 913 181 882 181 859 c 257
 179 829 l 257
 160 832 l 258
 154 833 147 834 141 834 c 258
 134 834 l 258
 114 834 105 833 105 832 c 257
 81 829 l 257
 73 827 66 826 59 825 c 257
 56 831 l 257
 56 886 88 945 121 971 c 257
 146 992 159 1002 205 1013 c 257
 224 1016 250 1018 282 1018 c 256
 303 1018 320 1016 334 1010 c 257
 336 1009 352 1000 381 981 c 256
 410 962 433 937 460 913 c 257
 477 899 499 886 528 886 c 258
 541 886 l 257
 559 890 568 911 571 930 c 257
 578 958 l 257
 583 996 l 258
 585 1014 586 1029 586 1039 c 258
 586 1044 l 257
 616 1038 l 257
 622 1037 630 1037 641 1037 c 258
 663 1037 l 258
 674 1037 682 1038 688 1040 c 257
 711 1044 l 257
 714 1039 l 257
47 0 m 257
 47 761 l 257
 169 761 l 257
 169 450 l 257
 213 450 257 426 301 382 c 257
 344 337 369 306 374 288 c 257
 380 309 405 339 451 377 c 257
 494 414 532 435 565 440 c 257
 565 761 l 257
 687 761 l 257
 687 0 l 257
 565 0 l 257
 565 401 l 257
 546 395 520 379 487 352 c 256
 463 332 445 308 435 281 c 257
 435 0 l 257
 313 0 l 257
 313 281 l 257
 302 308 285 332 262 354 c 257
 232 381 201 398 170 404 c 257
 170 0 l 257
 47 0 l 257
EndSplineSet
PickledDataWithLists: "(dp0
Vpublic.postscript.hints
p1
(dp2
VformatVersion
p3
V1
p4
sVhintSetList
p5
(lp6
(dp7
Vstems
p8
(lp9
Vhstem 21 -21
p10
aVhstem 471 25
p11
aVhstem 548 48
p12
aVhstem 630 100
p13
aVhstem 778 24
p14
aVhstem 839 47
p15
aVhstem 981 37
p16
aVvstem 47 123
p17
aVvstem 290 69
p18
aVvstem 301 67
p19
aVvstem 313 122
p20
aVvstem 416 65
p21
aVvstem 424 61
p22
aVvstem 565 122
p23
asasVid
p24
Va71a1272e22f10797f57773f56d4aae9bbff217ccf511916d06493fb18520f93d9338727ad17d9255e409d10da42bdbd82f4bce89b88abf998acd72cf1a352a1
p25
ss."
EndChar

StartChar: u1F545.alt2
Encoding: 345 58833 91
GlifName: u1F_545.alt2
Width: 1035
VWidth: 0
Flags: W
LayerCount: 2
Fore
SplineSet
714 1039 m 257
 707 999 701 972 697 959 c 256
 694 950 688 937 679 921 c 257
 653 882 621 855 572 844 c 256
 560 841 547 839 533 839 c 256
 497 839 453 849 436 859 c 256
 416 871 400 881 388 889 c 257
 370 903 357 914 349 921 c 258
 308 956 l 257
 293 970 279 979 265 981 c 257
 255 981 l 258
 232 981 226 972 213 961 c 257
 202 948 197 938 192 922 c 256
 189 913 180 882 180 859 c 257
 179 829 l 257
 160 832 l 258
 154 833 147 834 141 834 c 258
 134 834 l 258
 114 834 105 833 105 832 c 257
 81 829 l 257
 73 827 66 826 59 825 c 257
 56 831 l 257
 56 869 71 901 87 929 c 257
 108 963 134 979 156 993 c 256
 183 1010 213 1018 266 1018 c 256
 287 1018 306 1014 328 1007 c 256
 338 1004 352 1000 381 981 c 256
 411 962 432 937 460 913 c 257
 477 900 499 886 528 886 c 258
 541 886 l 257
 559 891 568 910 571 930 c 257
 578 958 l 257
 583 996 l 258
 585 1014 586 1029 586 1039 c 258
 586 1044 l 257
 616 1038 l 257
 622 1037 630 1037 641 1037 c 258
 663 1037 l 258
 674 1037 682 1038 688 1040 c 257
 711 1044 l 257
 714 1039 l 257
50 0 m 257
 50 761 l 257
 172 761 l 257
 173 450 l 257
 217 449 260 426 304 381 c 256
 348 337 372 306 377 288 c 257
 383 309 409 339 454 377 c 256
 497 414 535 435 568 440 c 257
 568 761 l 257
 690 761 l 257
 691 438 l 257
 742 440 776 477 793 550 c 256
 802 591 807 630 807 667 c 256
 807 697 804 726 797 754 c 257
 939 754 l 257
 935 638 893 541 813 464 c 257
 778 438 l 257
 865 438 929 363 968 213 c 257
 986 0 l 257
 848 0 l 257
 842 174 l 257
 842 278 804 360 729 419 c 257
 711 414 699 388 691 341 c 257
 692 0 l 257
 568 0 l 257
 568 401 l 257
 549 395 523 379 490 352 c 256
 466 332 448 308 438 281 c 257
 441 0 l 257
 316 0 l 257
 316 281 l 257
 305 308 288 332 265 354 c 257
 235 381 204 398 173 404 c 257
 175 0 l 257
 50 0 l 257
382 625 m 257
 426 625 453 641 453 678 c 256
 453 700 438 717 407 727 c 257
 402 729 398 730 393 730 c 256
 369 730 357 702 357 648 c 256
 357 641 357 634 358 626 c 257
 367 625 375 625 382 625 c 257
 382 625 l 257
390 774 m 257
 468 774 506 732 506 655 c 256
 506 602 474 588 423 588 c 256
 401 588 380 592 358 600 c 257
 358 462 l 257
 269 462 l 257
 271 653 l 257
 271 655 271 657 271 659 c 256
 271 737 311 774 390 774 c 257
 390 774 l 257
EndSplineSet
PickledDataWithLists: "(dp0
Vpublic.postscript.hints
p1
(dp2
VformatVersion
p3
V1
p4
sVhintSetList
p5
(lp6
(dp7
Vstems
p8
(lp9
Vhstem 21 -21
p10
aVhstem 588 37
p11
aVhstem 730 44
p12
aVhstem 839 47
p13
aVhstem 981 37
p14
aVvstem 50 125
p15
aVvstem 50 123
p16
aVvstem 271 87
p17
aVvstem 316 125
p18
aVvstem 453 53
p19
aVvstem 568 123
p20
aVvstem 807 132
p21
aVvstem 848 138
p22
asasVid
p23
V3ad9137e3cc7cd4cc551623f2c9bbb8bcd4756fdfaec9ac83245abac8a37e86ff046e80a0a0f91a22345ee319ec885f7b705aefce51278b15c04620e8bdf2396
p24
ss."
EndChar

StartChar: u1F545.alt3
Encoding: 346 58834 92
GlifName: u1F_545.alt3
Width: 743
VWidth: 0
Flags: W
LayerCount: 2
Fore
SplineSet
352 172 m 257
 350 159 347 147 345 134 c 258
 339 98 l 257
 339 84 337 72 337 61 c 258
 337 37 l 258
 337 27 338 18 339 13 c 257
 331 12 321 13 313 13 c 258
 293 13 l 258
 284 13 276 12 270 13 c 257
 268 30 l 257
 268 51 l 258
 268 70 272 114 274 124 c 258
 280 155 l 257
 282 163 283 172 286 180 c 257
 316 185 l 257
 323 185 331 185 338 186 c 257
 347 185 352 181 352 172 c 257
 352 172 l 257
488 185 m 257
 474 171 459 157 444 144 c 257
 443 143 442 143 442 144 c 257
 439 147 436 148 435 149 c 257
 426 155 l 257
 425 156 416 161 412 161 c 257
 403 157 394 148 387 139 c 257
 377 125 l 258
 374 121 371 117 370 113 c 257
 415 113 l 257
 422 106 427 99 431 94 c 257
 444 69 l 257
 449 56 457 31 459 13 c 257
 438 13 416 13 395 13 c 257
 388 45 375 77 358 102 c 257
 355 105 354 108 353 110 c 257
 353 113 l 257
 357 129 363 138 374 149 c 257
 381 159 389 165 395 168 c 257
 413 176 l 257
 415 178 419 179 425 180 c 256
 432 181 439 184 446 185 c 257
 468 185 l 257
 475 186 481 186 486 186 c 256
 488 186 488 186 488 185 c 257
 488 185 l 257
470 664 m 258
 470 624 446 607 409 607 c 258
 400 607 l 257
 397 606 390 605 380 607 c 257
 352 616 l 257
 352 604 353 593 353 584 c 258
 353 568 l 257
 351 549 l 257
 323 538 l 257
 290 534 l 257
 286 538 l 257
 286 577 286 616 286 655 c 257
 294 704 338 732 395 732 c 256
 434 732 470 708 470 668 c 258
 470 664 l 258
386 632 m 257
 396 630 407 637 409 645 c 257
 409 658 l 258
 409 675 402 681 387 684 c 257
 385 684 384 684 382 684 c 256
 367 684 356 676 354 664 c 257
 354 656 354 647 354 639 c 257
 370 634 l 257
 375 632 380 632 386 632 c 257
 386 632 l 257
714 1039 m 257
 707 999 701 972 697 959 c 256
 694 950 688 937 679 921 c 257
 653 882 621 855 572 844 c 256
 560 841 547 839 533 839 c 256
 497 839 453 849 436 859 c 256
 416 871 400 881 388 889 c 257
 370 903 357 914 349 921 c 258
 308 956 l 257
 293 970 279 979 265 981 c 257
 255 981 l 258
 232 981 226 972 213 961 c 257
 202 948 197 938 192 922 c 256
 189 913 180 882 180 859 c 257
 179 829 l 257
 160 832 l 258
 154 833 147 834 141 834 c 258
 134 834 l 258
 114 834 105 833 105 832 c 257
 81 829 l 257
 73 827 66 826 59 825 c 257
 56 831 l 257
 56 869 71 901 87 929 c 257
 108 963 134 979 156 993 c 256
 183 1010 213 1018 266 1018 c 256
 287 1018 306 1014 328 1007 c 256
 338 1004 352 1000 381 981 c 256
 411 962 432 937 460 913 c 257
 477 900 499 886 528 886 c 258
 541 886 l 257
 559 891 568 910 571 930 c 257
 578 958 l 257
 583 996 l 258
 585 1014 586 1029 586 1039 c 258
 586 1044 l 257
 616 1038 l 257
 622 1037 630 1037 641 1037 c 258
 663 1037 l 258
 674 1037 682 1038 688 1040 c 257
 711 1044 l 257
 714 1039 l 257
47 0 m 257
 47 763 l 257
 169 763 l 257
 169 527 l 257
 213 527 257 503 301 459 c 257
 344 414 369 383 374 365 c 257
 380 386 405 416 451 454 c 257
 494 491 532 512 565 517 c 257
 565 763 l 257
 687 763 l 257
 687 0 l 257
 565 0 l 257
 565 478 l 257
 546 472 520 456 487 429 c 256
 463 409 445 385 435 358 c 257
 435 229 l 257
 313 229 l 257
 313 358 l 257
 302 385 285 409 262 431 c 257
 232 458 201 475 170 481 c 257
 170 0 l 257
 47 0 l 257
EndSplineSet
PickledDataWithLists: "(dp0
Vpublic.postscript.hints
p1
(dp2
VformatVersion
p3
V1
p4
sVhintSetList
p5
(lp6
(dp7
Vstems
p8
(lp9
Vhstem 13 100
p10
aVhstem 21 -21
p11
aVhstem 161 24
p12
aVhstem 607 25
p13
aVhstem 684 48
p14
aVhstem 839 47
p15
aVhstem 981 37
p16
aVvstem 47 123
p17
aVvstem 268 69
p18
aVvstem 286 68
p19
aVvstem 313 122
p20
aVvstem 395 64
p21
aVvstem 409 61
p22
aVvstem 565 122
p23
asasVid
p24
Vf50c6f8b67e8a352cf884b88f126bcf8cfe7512d5e9b5cf679aa76fb61d10abf6ec7fb38adb231b05410cca38e86fb554bb02981989fa09a704463d393dfd4da
p25
ss."
EndChar

StartChar: u1F545.alt4
Encoding: 347 58835 93
GlifName: u1F_545.alt4
Width: 743
VWidth: 0
Flags: W
LayerCount: 2
Fore
SplineSet
352 172 m 257
 350 159 347 147 345 134 c 258
 339 98 l 257
 339 84 337 72 337 61 c 258
 337 37 l 258
 337 27 338 18 339 13 c 257
 331 12 321 13 313 13 c 258
 293 13 l 258
 284 13 276 12 270 13 c 257
 268 30 l 257
 268 51 l 258
 268 70 272 114 274 124 c 258
 280 155 l 257
 282 163 283 172 286 180 c 257
 316 185 l 257
 323 185 331 185 338 186 c 257
 347 185 352 181 352 172 c 257
 352 172 l 257
488 185 m 257
 474 171 459 157 444 144 c 257
 443 143 442 143 442 144 c 257
 439 147 436 148 435 149 c 257
 426 155 l 257
 425 156 416 161 412 161 c 257
 403 157 394 148 387 139 c 257
 377 125 l 258
 374 121 371 117 370 113 c 257
 415 113 l 257
 422 106 427 99 431 94 c 257
 444 69 l 257
 449 56 457 31 459 13 c 257
 438 13 416 13 395 13 c 257
 388 45 375 77 358 102 c 257
 355 105 354 108 353 110 c 257
 353 113 l 257
 357 129 363 138 374 149 c 257
 381 159 389 165 395 168 c 257
 413 176 l 257
 415 178 419 179 425 180 c 256
 432 181 439 184 446 185 c 257
 468 185 l 257
 475 186 481 186 486 186 c 256
 488 186 488 186 488 185 c 257
 488 185 l 257
714 1039 m 257
 707 999 701 972 697 959 c 256
 694 950 688 937 679 921 c 257
 653 882 621 855 572 844 c 256
 560 841 547 839 533 839 c 256
 497 839 453 849 436 859 c 256
 416 871 400 881 388 889 c 257
 370 903 357 914 349 921 c 258
 308 956 l 257
 293 970 279 979 265 981 c 257
 255 981 l 258
 232 981 226 972 213 961 c 257
 202 948 197 938 192 922 c 256
 189 913 180 882 180 859 c 257
 179 829 l 257
 160 832 l 258
 154 833 147 834 141 834 c 258
 134 834 l 258
 114 834 105 833 105 832 c 257
 81 829 l 257
 73 827 66 826 59 825 c 257
 56 831 l 257
 56 869 71 901 87 929 c 257
 108 963 134 979 156 993 c 256
 183 1010 213 1018 266 1018 c 256
 287 1018 306 1014 328 1007 c 256
 338 1004 352 1000 381 981 c 256
 411 962 432 937 460 913 c 257
 477 900 499 886 528 886 c 258
 541 886 l 257
 559 891 568 910 571 930 c 257
 578 958 l 257
 583 996 l 258
 585 1014 586 1029 586 1039 c 258
 586 1044 l 257
 616 1038 l 257
 622 1037 630 1037 641 1037 c 258
 663 1037 l 258
 674 1037 682 1038 688 1040 c 257
 711 1044 l 257
 714 1039 l 257
47 0 m 257
 47 763 l 257
 169 763 l 257
 169 639 l 257
 213 639 257 615 301 571 c 257
 344 526 369 495 374 477 c 257
 380 498 405 528 451 566 c 257
 494 603 532 624 565 629 c 257
 565 763 l 257
 687 763 l 257
 687 0 l 257
 565 0 l 257
 565 590 l 257
 546 584 520 568 487 541 c 256
 463 521 445 497 435 470 c 257
 435 222 l 257
 313 222 l 257
 313 470 l 257
 302 497 285 521 262 543 c 257
 232 570 201 587 170 593 c 257
 170 0 l 257
 47 0 l 257
EndSplineSet
PickledDataWithLists: "(dp0
Vpublic.postscript.hints
p1
(dp2
VformatVersion
p3
V1
p4
sVhintSetList
p5
(lp6
(dp7
Vstems
p8
(lp9
Vhstem 13 100
p10
aVhstem 21 -21
p11
aVhstem 161 24
p12
aVhstem 839 47
p13
aVhstem 981 37
p14
aVvstem 47 123
p15
aVvstem 268 69
p16
aVvstem 313 122
p17
aVvstem 395 64
p18
aVvstem 565 122
p19
asasVid
p20
Vf86e728f736f305fcbec27a00822927061cd95b0450ad0b1b13b737dbe6b1d3c2998ec83d919d857d904b5e967a73dcc9ee0ae93b6e801e37d19fa69781a94d3
p21
ss."
EndChar

StartChar: u1F545.alt5
Encoding: 348 58836 94
GlifName: u1F_545.alt5
Width: 939
VWidth: 0
Flags: W
LayerCount: 2
Fore
SplineSet
10 897 m 257
 916 897 l 257
 916 -162 l 257
 10 -162 l 257
 10 897 l 257
66 849 m 257
 66 -117 l 257
 862 -117 l 257
 862 849 l 257
 66 849 l 257
186 144 m 257
 186 802 l 257
 292 802 l 257
 292 533 l 257
 330 533 368 512 406 474 c 257
 443 436 465 409 469 393 c 257
 474 411 496 437 536 470 c 256
 573 502 606 520 634 525 c 257
 634 802 l 257
 740 802 l 257
 740 144 l 257
 634 144 l 257
 634 491 l 257
 618 486 596 472 567 448 c 256
 546 431 531 410 522 387 c 257
 522 144 l 257
 416 144 l 257
 416 387 l 257
 407 410 392 431 372 450 c 256
 346 474 320 488 293 493 c 257
 293 144 l 257
 186 144 l 257
264 53 m 257
 264 56 264 58 263 62 c 257
 259 49 246 37 233 27 c 257
 225 20 217 12 217 6 c 256
 217 0 222 0 226 0 c 256
 237 0 247 8 251 15 c 257
 260 28 264 39 264 53 c 257
 264 53 l 257
267 30 m 257
 260 9 237 -13 216 -13 c 257
 224 -16 229 -23 229 -31 c 256
 229 -32 229 -33 229 -34 c 256
 229 -44 219 -51 210 -51 c 257
 210 -54 l 258
 210 -64 220 -82 228 -82 c 258
 237 -82 l 257
 237 -88 l 257
 178 -88 l 257
 178 -82 l 257
 185 -82 l 258
 195 -82 203 -63 203 -53 c 258
 203 -50 l 257
 194 -47 188 -40 188 -31 c 256
 188 -20 196 -12 206 -12 c 257
 199 -9 195 -3 195 4 c 256
 195 24 215 33 237 45 c 256
 250 52 258 63 258 72 c 258
 258 73 l 257
 254 80 247 85 239 85 c 258
 236 85 l 257
 240 83 243 78 243 72 c 256
 243 63 236 56 227 56 c 256
 218 56 211 63 211 71 c 256
 211 76 213 81 216 84 c 257
 217 84 l 257
 223 89 231 92 239 92 c 256
 253 92 262 82 267 71 c 257
 267 102 l 257
 251 102 l 257
 251 108 l 257
 312 108 l 257
 312 102 l 257
 297 102 l 257
 297 -82 l 257
 312 -82 l 257
 312 -88 l 257
 251 -88 l 257
 251 -82 l 257
 267 -82 l 257
 267 30 l 257
413 104 m 257
 392 104 381 92 381 72 c 258
 381 8 l 257
 407 41 l 257
 408 42 409 42 410 41 c 257
 411 41 l 257
 414 39 418 36 423 36 c 256
 436 36 443 55 443 69 c 256
 443 88 434 104 413 104 c 257
 413 104 l 257
421 111 m 257
 448 111 471 96 471 69 c 256
 471 45 459 25 436 25 c 256
 425 25 416 30 409 34 c 257
 381 0 l 257
 381 -81 l 257
 395 -81 l 257
 395 -87 l 257
 337 -87 l 257
 337 -81 l 257
 352 -81 l 257
 352 64 l 258
 352 72 356 82 360 87 c 257
 367 97 390 111 421 111 c 257
 421 111 l 257
602 72 m 257
 602 44 586 25 561 18 c 257
 574 15 588 13 597 0 c 256
 607 -14 609 -34 609 -41 c 256
 609 -52 608 -78 608 -81 c 257
 620 -81 l 257
 620 -87 l 257
 561 -87 l 257
 561 -81 l 257
 575 -81 l 257
 576 -74 579 -59 579 -49 c 256
 579 -31 576 -10 569 0 c 257
 562 8 555 12 547 15 c 257
 538 13 529 12 519 12 c 257
 519 -81 l 257
 535 -81 l 257
 535 -87 l 257
 473 -87 l 257
 473 -81 l 257
 489 -81 l 257
 489 103 l 257
 473 103 l 257
 473 109 l 257
 535 109 l 257
 535 103 l 257
 519 103 l 257
 519 19 l 257
 532 19 551 21 559 32 c 257
 570 46 573 63 573 80 c 256
 573 89 572 98 570 103 c 257
 556 103 l 257
 556 109 l 257
 615 109 l 257
 615 103 l 257
 602 103 l 257
 602 97 602 83 602 72 c 257
 602 72 l 257
707 105 m 257
 672 105 663 67 663 26 c 256
 663 -2 667 -31 673 -46 c 257
 677 -54 680 -69 680 -76 c 258
 680 -82 l 257
 689 -82 696 -75 703 -70 c 257
 712 -62 721 -29 721 -4 c 256
 721 20 719 33 713 54 c 256
 709 69 707 77 707 90 c 258
 707 105 l 257
715 -69 m 257
 707 -76 691 -88 677 -88 c 256
 675 -88 673 -87 673 -86 c 258
 673 -78 l 258
 673 -68 663 -49 656 -39 c 256
 644 -21 631 -2 631 26 c 256
 631 60 658 85 671 96 c 257
 681 105 694 112 711 112 c 256
 712 112 714 110 714 109 c 258
 714 98 l 258
 714 82 727 73 738 54 c 257
 748 38 753 28 753 8 c 256
 753 -30 734 -53 715 -69 c 257
 715 -69 l 257
EndSplineSet
PickledDataWithLists: "(dp0
Vpublic.postscript.hints
p1
(dp2
VformatVersion
p3
V1
p4
sVhintSetList
p5
(lp6
(dp7
Vstems
p8
(lp9
Vhstem -162 45
p10
aVhstem -87 6
p11
aVhstem -13 13
p12
aVhstem 12 7
p13
aVhstem 25 16
p14
aVhstem 56 28
p15
aVhstem 85 7
p16
aVhstem 103 6
p17
aVhstem 849 48
p18
aVvstem 10 56
p19
aVvstem 188 41
p20
aVvstem 195 22
p21
aVvstem 203 7
p22
aVvstem 211 32
p23
aVvstem 267 30
p24
aVvstem 352 29
p25
aVvstem 416 106
p26
aVvstem 443 28
p27
aVvstem 489 30
p28
aVvstem 573 29
p29
aVvstem 579 30
p30
aVvstem 631 32
p31
aVvstem 634 106
p32
aVvstem 673 7
p33
aVvstem 707 7
p34
aVvstem 721 32
p35
aVvstem 862 54
p36
asasVid
p37
V0d79c021aec882bc01492c775f8c858d0eb571e3e636e2ef79f31f13726f0582b7a14d6363f766b1adafb648436d8fc62d577d05bc531e7f856791280658d833
p38
ss."
EndChar

StartChar: u1F545.alt6
Encoding: 349 58837 95
GlifName: u1F_545.alt6
Width: 857
VWidth: 0
Flags: W
LayerCount: 2
Fore
SplineSet
0 0 m 257
 0 32 l 257
 51 32 l 257
 109 665 l 257
 58 665 l 257
 58 694 l 257
 237 694 l 257
 285 269 334 133 417 133 c 256
 500 133 549 269 598 694 c 257
 777 694 l 257
 777 665 l 257
 727 665 l 257
 783 32 l 257
 834 32 l 257
 834 0 l 257
 590 0 l 257
 590 32 l 257
 645 32 l 257
 605 471 l 257
 602 471 l 257
 561 177 501 -5 417 -5 c 256
 333 -5 274 177 234 471 c 257
 231 471 l 257
 191 32 l 257
 245 32 l 257
 245 0 l 257
 0 0 l 257
313 492 m 257
 313 686 l 258
 313 748 365 783 434 783 c 256
 510 783 549 741 549 688 c 256
 549 633 502 602 447 602 c 256
 431 602 413 604 396 610 c 257
 393 608 l 257
 393 492 l 257
 377 489 369 488 353 488 c 256
 337 488 329 489 313 492 c 257
 313 492 l 257
393 693 m 257
 393 649 402 624 430 624 c 256
 458 624 468 649 468 693 c 256
 468 737 458 763 430 763 c 256
 402 763 393 737 393 693 c 257
 393 693 l 257
228 788 m 258
 228 770 149 741 128 741 c 256
 107 741 108 760 102 784 c 256
 99 796 97 808 97 820 c 256
 97 875 134 914 170 939 c 256
 196 958 226 972 259 983 c 256
 292 994 330 1002 366 1002 c 256
 441 1002 490 963 534 930 c 256
 579 895 641 876 699 852 c 257
 714 847 729 843 729 829 c 256
 729 809 711 806 685 806 c 256
 673 806 661 804 648 804 c 256
 598 804 544 810 509 824 c 257
 458 847 424 890 380 920 c 257
 366 929 353 937 330 937 c 258
 323 937 l 258
 295 937 257 918 241 904 c 257
 226 892 217 876 217 850 c 256
 217 829 221 805 228 790 c 257
 228 788 l 258
EndSplineSet
PickledDataWithLists: "(dp0
Vpublic.postscript.hints
p1
(dp2
VformatVersion
p3
V1
p4
sVhintSetList
p5
(lp6
(dp7
Vstems
p8
(lp9
Vhstem -5 138
p10
aVhstem 0 32
p11
aVhstem 602 22
p12
aVhstem 665 29
p13
aVhstem 763 20
p14
aVhstem 804 49.25
p15
aVhstem 937 65
p16
aVvstem 97 120
p17
aVvstem 313 80
p18
aVvstem 468 81
p19
asasVid
p20
V598c599f1d0c581e05ebf14a68e7dfb706d774acbfc9cee4acab107639f3f2e2c5859784210da97bb2fb2378ab8c5d2d702c1a139cd051b51d88d261618b98c4
p21
ss."
EndChar

StartChar: u1F545.alt7
Encoding: 350 58838 96
GlifName: u1F_545.alt7
Width: 675
VWidth: 0
Flags: W
LayerCount: 2
Fore
SplineSet
624 -6 m 257
 619 -6 608 -3 603 -3 c 258
 573 -3 l 258
 552 -3 542 5 535 21 c 257
 535 54 l 257
 535 62 l 257
 536 64 538 68 538 70 c 256
 538 95 536 122 532 152 c 256
 529 177 524 215 516 264 c 257
 516 271 515 283 508 283 c 256
 506 283 504 279 503 270 c 257
 502 249 486 221 477 203 c 256
 473 195 469 186 464 176 c 257
 446 148 436 132 434 129 c 257
 422 114 409 101 394 91 c 257
 383 79 363 73 334 73 c 256
 317 73 299 85 278 108 c 257
 265 125 247 150 224 185 c 257
 219 196 215 206 212 215 c 257
 202 238 l 257
 197 247 191 261 182 280 c 257
 182 267 178 239 170 196 c 256
 153 101 153 91 146 36 c 257
 144 24 140 14 133 6 c 257
 128 1 120 -2 111 -4 c 257
 80 -4 l 258
 71 -4 61 -5 50 -6 c 257
 39 -5 33 -4 31 -3 c 257
 24 -3 21 3 21 14 c 256
 21 17 24 34 30 65 c 256
 31 71 41 114 58 194 c 256
 69 245 77 289 81 324 c 257
 85 371 l 257
 90 400 l 257
 90 411 l 257
 93 438 l 257
 94 465 97 504 104 557 c 257
 109 580 117 593 128 596 c 257
 147 599 l 257
 155 599 163 599 172 600 c 257
 196 602 l 257
 217 602 l 258
 226 602 230 597 230 588 c 256
 230 574 225 557 216 538 c 257
 213 517 197 381 197 356 c 256
 197 319 228 267 248 247 c 256
 255 240 264 231 277 220 c 257
 298 197 316 182 364 180 c 257
 404 186 412 199 435 229 c 256
 463 265 482 302 492 339 c 257
 495 352 497 365 497 377 c 256
 497 419 484 485 478 538 c 257
 477 545 469 566 469 574 c 256
 469 593 520 596 550 596 c 256
 560 596 567 588 571 571 c 257
 571 542 581 483 584 463 c 256
 585 455 586 450 586 447 c 257
 590 427 l 258
 595 400 598 384 607 321 c 256
 614 274 650 105 657 52 c 257
 657 51 657 50 658 47 c 257
 658 43 l 258
 658 10 647 -6 624 -6 c 257
 624 -6 l 257
308 280 m 258
 306 280 298 283 296 283 c 257
 294 296 293 308 293 319 c 258
 293 389 l 257
 298 422 325 438 374 438 c 256
 393 438 413 404 413 385 c 258
 413 375 l 258
 413 353 396 342 376 333 c 257
 369 331 365 330 362 330 c 256
 353 330 343 333 333 339 c 257
 329 339 l 258
 327 339 326 338 326 336 c 258
 326 290 l 258
 326 283 321 280 312 280 c 258
 308 280 l 258
323 391 m 257
 323 371 340 353 360 353 c 256
 377 353 387 363 390 384 c 257
 385 401 l 257
 384 403 380 408 374 416 c 257
 367 419 359 421 350 421 c 258
 348 421 l 258
 331 421 323 411 323 391 c 257
 323 391 l 257
378 463 m 257
 372 467 366 492 366 505 c 257
 365 512 362 517 359 520 c 257
 354 522 336 531 336 545 c 256
 336 552 338 557 342 560 c 256
 349 565 353 569 354 570 c 257
 363 588 l 257
 366 593 369 599 373 606 c 257
 376 610 382 612 392 612 c 258
 396 612 l 258
 403 612 410 609 415 604 c 257
 415 598 l 257
 414 588 407 583 394 582 c 257
 382 580 366 563 366 547 c 256
 366 536 381 527 388 522 c 257
 396 515 401 503 402 488 c 257
 400 477 399 463 386 463 c 258
 378 463 l 257
308 476 m 257
 297 476 292 481 292 494 c 256
 292 499 293 505 294 512 c 257
 293 597 l 257
 296 600 299 602 303 602 c 256
 313 602 320 598 323 591 c 257
 325 554 l 257
 326 543 326 531 326 519 c 256
 326 498 324 476 308 476 c 257
 308 476 l 257
621 769 m 257
 621 739 565 736 528 729 c 257
 502 729 l 257
 481 732 465 737 456 744 c 257
 445 752 428 764 407 779 c 257
 397 791 379 804 359 817 c 257
 337 828 317 834 299 834 c 258
 291 834 l 257
 258 828 231 811 210 782 c 257
 209 777 208 772 208 765 c 258
 208 759 l 257
 209 755 209 752 209 749 c 256
 209 742 208 738 207 735 c 257
 198 723 179 717 151 717 c 258
 134 717 l 258
 129 717 121 720 111 726 c 257
 111 735 l 258
 111 765 133 790 146 810 c 257
 171 839 210 857 268 872 c 257
 318 869 l 257
 370 858 l 258
 407 851 428 838 456 826 c 257
 482 810 l 258
 494 803 528 779 547 779 c 258
 584 779 l 258
 593 779 598 782 600 789 c 257
 600 790 601 791 602 791 c 256
 615 791 621 784 621 769 c 257
 621 769 l 257
EndSplineSet
PickledDataWithLists: "(dp0
Vpublic.postscript.hints
p1
(dp2
VformatVersion
p3
V1
p4
sVhintSetList
p5
(lp6
(dp7
Vstems
p8
(lp9
Vhstem 15 -21
p10
aVhstem 73 107
p11
aVhstem 330 23
p12
aVhstem 421 17
p13
aVhstem 576 20
p14
aVhstem 582 30
p15
aVhstem 729 50
p16
aVvstem 90 107
p17
aVvstem 111 97
p18
aVvstem 293 33
p19
aVvstem 336 30
p20
aVvstem 469 102
p21
aVvstem 535 123
p22
aVvstem 600 21
p23
asasVid
p24
V7b38444edd71d89cf83d76ba28cbec130e8941c926804959c8f0bcf69e909edf8320757599694588de5cc6a3de43b95fd52ba30e35d6cb0067039fded7337140
p25
ss."
EndChar

StartChar: u1F545.alt8
Encoding: 351 58839 97
GlifName: u1F_545.alt8
Width: 1251
VWidth: 0
Flags: W
LayerCount: 2
Fore
SplineSet
294 142 m 257
 302 178 309 174 344 176 c 256
 357 177 367 186 375 205 c 258
 398 262 l 257
 415 315 l 257
 419 341 419 368 427 393 c 258
 442 439 l 257
 474 457 l 257
 514 457 l 257
 533 413 l 257
 546 341 l 257
 573 273 l 257
 621 210 l 257
 672 190 l 257
 703 226 l 257
 726 285 l 257
 742 348 l 257
 754 415 l 257
 767 464 l 257
 812 479 l 257
 864 472 l 257
 886 436 l 257
 902 364 l 257
 921 269 l 257
 921 199 l 257
 948 161 l 257
 974 150 l 257
 976 164 l 257
 969 180 l 257
 974 201 l 257
 997 210 l 257
 1021 192 l 257
 1038 158 l 257
 1038 118 l 257
 1000 89 l 257
 939 89 l 257
 881 136 l 257
 854 223 l 257
 846 345 l 257
 833 419 l 257
 811 428 l 257
 802 380 l 257
 801 295 l 257
 790 224 l 257
 765 155 l 257
 701 106 l 257
 610 114 l 257
 546 152 l 257
 517 208 l 257
 504 276 l 257
 497 339 l 257
 493 379 l 257
 485 397 l 257
 469 398 l 257
 457 365 l 257
 452 306 l 257
 446 246 l 257
 435 176 l 257
 411 122 l 257
 342 108 l 257
 294 142 l 257
536 -107 m 257
 514 -105 490 -107 490 -84 c 256
 490 -72 501 74 503 83 c 257
 507 98 506 109 525 109 c 256
 548 109 552 100 561 87 c 256
 571 73 574 -6 577 -28 c 257
 578 -38 580 -52 580 -65 c 256
 580 -83 577 -100 566 -104 c 256
 558 -107 548 -108 536 -107 c 257
 536 -107 l 257
721 38 m 257
 737 39 748 46 756 59 c 257
 764 74 781 89 804 89 c 256
 825 89 836 72 846 60 c 256
 852 53 852 44 846 33 c 257
 841 22 829 16 811 14 c 256
 795 12 763 1 763 -10 c 256
 763 -14 768 -18 779 -22 c 256
 795 -28 809 -35 820 -43 c 256
 832 -52 842 -58 851 -62 c 257
 864 -67 872 -87 872 -106 c 256
 872 -109 872 -112 872 -114 c 257
 870 -133 836 -138 813 -138 c 256
 798 -138 788 -131 783 -116 c 256
 778 -101 769 -91 756 -86 c 256
 743 -81 730 -74 718 -64 c 256
 707 -55 692 -48 675 -45 c 256
 658 -42 649 -33 649 -20 c 256
 650 22 680 37 721 38 c 257
 721 38 l 257
681 379 m 257
 681 349 680 292 654 292 c 256
 640 292 631 306 627 318 c 257
 624 329 621 349 618 379 c 256
 612 451 590 514 590 592 c 256
 590 618 593 643 603 660 c 256
 623 696 653 723 708 723 c 256
 758 723 785 709 815 687 c 256
 837 670 855 655 855 624 c 256
 855 600 846 578 836 569 c 257
 821 557 795 537 766 537 c 256
 733 537 719 554 693 554 c 256
 676 554 666 546 666 528 c 256
 666 518 667 506 671 491 c 256
 677 468 681 419 681 379 c 257
 681 379 l 257
701 680 m 257
 671 680 655 653 645 631 c 257
 643 627 643 623 643 620 c 256
 643 599 672 591 697 591 c 256
 732 591 765 599 778 618 c 256
 780 621 781 625 781 628 c 256
 781 642 764 655 758 660 c 257
 749 667 722 680 701 680 c 257
 701 680 l 257
1114 726 m 257
 1085 726 1075 756 1075 784 c 256
 1075 807 1084 823 1108 823 c 256
 1109 823 1110 823 1111 823 c 257
 1102 835 1088 841 1073 841 c 256
 1027 841 1011 790 1011 742 c 256
 1011 701 1019 682 1036 652 c 257
 1046 636 1061 617 1081 597 c 256
 1101 577 1119 550 1136 516 c 256
 1148 493 1154 458 1154 413 c 256
 1154 391 1153 368 1150 342 c 257
 1166 334 1182 323 1198 310 c 256
 1215 296 1226 275 1233 245 c 257
 1240 209 1250 130 1250 70 c 256
 1250 -24 1230 -110 1195 -171 c 256
 1153 -245 1062 -293 966 -312 c 256
 907 -323 873 -329 828 -329 c 256
 783 -329 756 -327 726 -305 c 256
 706 -290 685 -282 661 -279 c 256
 637 -276 620 -275 609 -275 c 256
 598 -275 580 -278 553 -285 c 256
 497 -301 434 -326 367 -326 c 256
 345 -326 322 -323 300 -317 c 256
 232 -297 158 -253 115 -203 c 256
 90 -174 69 -146 52 -119 c 256
 19 -66 8 -12 0 63 c 256
 -1 71 0 79 0 88 c 256
 0 151 26 210 54 243 c 256
 85 279 109 311 144 337 c 257
 158 348 167 371 170 405 c 256
 177 479 180 522 208 578 c 256
 238 641 286 704 334 755 c 257
 330 790 318 842 286 842 c 256
 271 842 264 825 263 809 c 257
 262 799 256 790 245 783 c 256
 237 778 225 771 216 771 c 256
 201 771 199 798 199 815 c 256
 199 862 227 883 271 892 c 257
 279 893 286 894 293 894 c 256
 325 894 342 877 357 856 c 257
 365 844 369 829 369 811 c 256
 369 807 369 803 369 799 c 257
 414 849 459 886 510 923 c 256
 533 940 552 952 566 958 c 257
 592 971 618 999 645 1010 c 257
 653 1013 661 1015 668 1015 c 256
 692 1015 712 1000 722 983 c 256
 731 968 744 953 761 937 c 256
 803 898 839 865 887 825 c 257
 913 802 931 786 942 776 c 257
 949 768 957 764 962 764 c 256
 969 764 974 770 974 785 c 256
 974 812 992 838 1007 853 c 257
 1026 874 1063 884 1100 884 c 256
 1149 884 1177 849 1177 797 c 256
 1177 769 1164 750 1151 737 c 257
 1144 731 1131 726 1114 726 c 257
 1114 726 l 257
1091 347 m 257
 1091 365 1093 382 1093 403 c 256
 1093 412 1093 421 1093 431 c 257
 1091 493 1057 542 1028 581 c 256
 1013 602 997 625 982 651 c 256
 967 677 943 704 910 733 c 256
 849 785 817 806 766 859 c 256
 727 900 699 922 666 966 c 257
 647 961 628 951 611 937 c 256
 571 903 526 874 484 835 c 256
 431 786 377 727 330 666 c 256
 304 632 285 605 274 585 c 256
 255 551 236 497 236 442 c 256
 236 428 238 413 238 400 c 256
 238 380 234 364 227 353 c 256
 202 315 169 284 131 250 c 256
 88 213 60 162 60 88 c 256
 60 22 86 -48 109 -94 c 256
 123 -122 146 -150 177 -177 c 256
 232 -226 275 -257 355 -272 c 256
 367 -274 379 -276 391 -276 c 256
 411 -276 430 -272 448 -265 c 256
 477 -254 506 -245 536 -237 c 256
 565 -229 587 -224 602 -224 c 256
 654 -224 712 -241 758 -261 c 256
 785 -272 810 -278 832 -278 c 256
 837 -278 842 -278 847 -277 c 257
 921 -269 988 -245 1052 -213 c 256
 1129 -173 1162 -122 1183 -28 c 257
 1192 18 1197 63 1197 108 c 256
 1197 152 1193 191 1186 222 c 257
 1178 253 1168 273 1155 281 c 257
 1142 290 1128 298 1112 307 c 256
 1098 315 1091 328 1091 347 c 257
 1091 347 l 257
276 383 m 257
 276 404 271 434 271 454 c 256
 271 470 273 484 277 494 c 257
 283 512 291 534 303 562 c 256
 315 589 334 618 361 647 c 256
 415 705 475 764 533 818 c 256
 563 845 584 864 596 876 c 256
 607 887 617 901 624 918 c 257
 630 934 638 942 647 942 c 256
 658 942 664 934 664 919 c 256
 664 905 676 890 698 873 c 257
 749 836 782 814 832 771 c 256
 900 711 964 640 1011 563 c 256
 1028 535 1045 487 1045 443 c 256
 1045 415 1039 392 1031 371 c 256
 1027 361 1026 353 1026 345 c 256
 1026 321 1042 305 1064 296 c 257
 1082 288 1101 277 1120 264 c 257
 1160 235 1173 196 1173 127 c 256
 1173 35 1148 -66 1109 -117 c 256
 1076 -159 1002 -201 945 -219 c 256
 915 -228 873 -234 833 -234 c 256
 743 -234 680 -198 634 -157 c 257
 583 -189 512 -230 418 -230 c 256
 371 -230 327 -219 289 -206 c 256
 262 -197 235 -182 208 -160 c 257
 180 -139 159 -115 147 -87 c 257
 121 -32 99 9 99 83 c 256
 99 158 134 215 180 249 c 256
 215 275 252 303 269 341 c 257
 274 351 276 365 276 383 c 257
 276 383 l 257
647 860 m 257
 606 820 578 779 538 742 c 256
 520 725 498 706 471 685 c 256
 423 646 381 587 353 533 c 256
 338 505 323 461 323 419 c 256
 323 405 325 391 329 378 c 256
 331 371 332 364 332 358 c 256
 332 344 327 330 318 317 c 257
 294 280 251 231 212 211 c 256
 173 190 153 140 153 85 c 256
 153 51 161 17 169 -9 c 256
 182 -49 216 -100 245 -123 c 256
 282 -152 332 -177 396 -177 c 256
 469 -177 539 -150 587 -129 c 256
 601 -123 612 -115 622 -105 c 256
 631 -96 637 -92 643 -92 c 256
 650 -92 656 -98 664 -110 c 257
 695 -153 752 -191 827 -191 c 256
 841 -191 856 -190 872 -187 c 256
 958 -171 1026 -131 1065 -67 c 256
 1092 -24 1120 39 1120 107 c 256
 1120 125 1118 144 1114 162 c 256
 1103 207 1091 222 1056 240 c 256
 1029 254 997 271 980 294 c 257
 975 300 973 309 973 320 c 256
 973 326 973 333 975 340 c 257
 980 366 986 398 986 431 c 256
 986 450 984 471 979 487 c 256
 964 538 945 566 920 607 c 256
 890 654 834 708 787 743 c 257
 727 785 694 803 647 860 c 257
 647 860 l 257
EndSplineSet
PickledDataWithLists: "(dp0
Vpublic.postscript.hints
p1
(dp2
VformatVersion
p3
V1
p4
sVhintSetList
p5
(lp6
(dp7
Vstems
p8
(lp9
Vhstem -329 51
p10
aVhstem -275 51
p11
aVhstem -234 43
p12
aVhstem -230 53
p13
aVhstem 108 68
p14
aVhstem 437 20
p15
aVhstem 554 37
p16
aVhstem 680 43
p17
aVhstem 792 -21
p18
aVhstem 841 43
p19
aVhstem 842 52
p20
aVvstem 0 60
p21
aVvstem 99 54
p22
aVvstem 199 64
p23
aVvstem 271 52
p24
aVvstem 276 56
p25
aVvstem 490 90
p26
aVvstem 590 53
p27
aVvstem 781 74
p28
aVvstem 973 53
p29
aVvstem 974 37
p30
aVvstem 986 59
p31
aVvstem 1075 102
p32
aVvstem 1093 61
p33
aVvstem 1120 53
p34
aVvstem 1197 53
p35
asasVid
p36
Va3d3502845ae977c349be915b9b81311e377eca0a8537dbff1ed8a4679952d5b4cd6c0a740360753f7d210fa554b9b3ef763fddd6c85a6d4ce6ee5d10f840b56
p37
ss."
EndChar

StartChar: u1F545.bmp
Encoding: 352 62469 98
GlifName: u1F_545.bmp
Width: 747
VWidth: 0
Flags: W
LayerCount: 2
Fore
SplineSet
385 774 m 257
 462 774 501 733 501 655 c 256
 501 602 470 588 419 588 c 256
 397 588 375 592 353 600 c 257
 353 462 l 257
 264 462 l 257
 264 653 l 258
 264 730 300 774 372 774 c 256
 377 774 381 774 385 774 c 257
 385 774 l 257
353 626 m 257
 362 625 370 625 378 625 c 256
 416 625 442 637 448 662 c 257
 450 668 448 673 448 678 c 256
 448 700 433 720 402 730 c 257
 397 732 393 730 388 730 c 256
 364 730 352 702 352 648 c 256
 352 641 353 634 353 626 c 257
 353 626 l 257
712 1039 m 257
 700 970 702 963 677 921 c 256
 653 881 618 856 571 844 c 256
 558 841 545 839 531 839 c 256
 496 839 451 849 434 859 c 256
 400 878 369 901 347 921 c 258
 307 956 l 257
 292 970 277 979 263 981 c 257
 253 981 l 258
 214 981 202 953 190 922 c 257
 187 913 186 897 183 874 c 258
 177 829 l 257
 159 832 l 258
 152 833 145 834 139 834 c 258
 132 834 l 258
 113 834 103 833 103 832 c 257
 79 829 l 257
 72 827 64 826 57 825 c 257
 54 830 l 257
 54 886 86 945 119 971 c 257
 144 992 157 1002 203 1013 c 257
 222 1016 248 1018 281 1018 c 256
 301 1018 318 1015 332 1010 c 256
 335 1009 351 1000 380 981 c 256
 408 962 431 937 458 913 c 257
 475 899 497 886 526 886 c 258
 539 886 l 257
 557 890 566 911 569 930 c 257
 576 958 l 257
 581 996 l 257
 584 1014 585 1029 585 1039 c 258
 585 1044 l 257
 614 1038 l 257
 620 1037 628 1036 639 1036 c 258
 661 1036 l 258
 672 1036 680 1038 686 1040 c 257
 709 1044 l 257
 712 1039 l 257
45 0 m 257
 45 761 l 257
 167 761 l 257
 167 450 l 257
 211 450 256 426 299 381 c 257
 343 337 367 306 372 288 c 257
 378 309 402 339 448 377 c 257
 490 414 530 435 563 440 c 257
 563 761 l 257
 685 761 l 257
 685 0 l 257
 563 0 l 257
 563 401 l 257
 544 395 518 379 486 352 c 256
 461 332 443 308 433 281 c 257
 433 0 l 257
 311 0 l 257
 311 281 l 257
 289 336 228 393 168 404 c 257
 168 0 l 257
 45 0 l 257
EndSplineSet
PickledDataWithLists: "(dp0
Vpublic.postscript.hints
p1
(dp2
VformatVersion
p3
V1
p4
sVhintSetList
p5
(lp6
(dp7
Vstems
p8
(lp9
Vhstem 21 -21
p10
aVhstem 588 37
p11
aVhstem 730 44
p12
aVhstem 839 47
p13
aVhstem 981 37
p14
aVvstem 45 123
p15
aVvstem 264 89
p16
aVvstem 311 122
p17
aVvstem 448 53
p18
aVvstem 563 122
p19
asasVid
p20
V8f1c7f0320c02e493c48b6c34187a6b9054287a283e892c859e5dd06470447b1208726c8017ecaa09749344b5ca8bb3b1755e5b81a8f8db8dd8139c4d17ac2ff
p21
ss."
Comment: "+AAoA-Duplicates of Typicon symbols in BMP for legacy app support+AAoA-"
EndChar

StartChar: u1F900
Encoding: 353 129280 99
GlifName: u1F_900
Width: 843
VWidth: 0
Flags: W
LayerCount: 2
Fore
SplineSet
587 132 m 257
 636 161 676 201 703 245 c 257
 671 333 580 385 476 385 c 256
 466 385 456 385 446 385 c 257
 446 368 l 258
 446 257 497 164 587 132 c 257
 587 132 l 257
268 126 m 257
 330 149 360 208 381 270 c 257
 389 291 393 323 393 366 c 258
 393 385 l 257
 376 385 l 258
 268 385 172 329 140 246 c 257
 170 197 224 151 268 126 c 257
 268 126 l 257
704 586 m 257
 676 633 639 670 597 696 c 257
 551 683 513 652 484 603 c 256
 459 562 446 526 446 493 c 256
 446 474 446 456 446 437 c 257
 463 437 l 257
 595 437 656 498 685 542 c 257
 692 554 699 569 704 586 c 257
 704 586 l 257
132 578 m 257
 135 569 143 560 148 552 c 257
 192 474 266 437 370 437 c 258
 393 437 l 257
 394 441 394 447 394 453 c 256
 394 584 335 670 243 695 c 257
 200 668 160 628 132 578 c 257
 132 578 l 257
421 778 m 257
 482 778 541 762 599 730 c 257
 699 678 782 558 782 416 c 256
 782 354 766 294 735 236 c 256
 680 138 564 56 421 56 c 256
 278 56 163 138 108 236 c 256
 76 294 60 354 60 416 c 256
 60 560 144 678 244 730 c 257
 301 762 360 778 421 778 c 257
 421 778 l 257
201 559 m 257
 201 595 230 624 266 624 c 256
 302 624 330 595 330 559 c 256
 330 523 302 494 266 494 c 256
 230 494 201 523 201 559 c 257
 201 559 l 257
509 559 m 257
 509 595 538 624 574 624 c 256
 610 624 638 595 638 559 c 256
 638 523 610 494 574 494 c 256
 538 494 509 523 509 559 c 257
 509 559 l 257
201 259 m 257
 201 295 230 324 266 324 c 256
 302 324 330 295 330 259 c 256
 330 223 302 194 266 194 c 256
 230 194 201 223 201 259 c 257
 201 259 l 257
499 261 m 257
 499 297 528 326 564 326 c 256
 600 326 628 297 628 261 c 256
 628 225 600 196 564 196 c 256
 528 196 499 225 499 261 c 257
 499 261 l 257
EndSplineSet
PickledDataWithLists: "(dp0
Vpublic.postscript.hints
p1
(dp2
VformatVersion
p3
V1
p4
sVhintSetList
p5
(lp6
(dp7
Vstems
p8
(lp9
Vhstem 194 130
p10
aVhstem 385 52
p11
aVhstem 494 130
p12
aVhstem 758 20
p13
aVvstem 201 129
p14
aVvstem 393 53
p15
aVvstem 499 129
p16
aVvstem 509 129
p17
asasVid
p18
Vf8d7329c6bbdb4a6a74f0d3554387da41a6052b8be0cc47fe4e43599da458fa41bec0193475374d1190a7d41600cd0ebca41a887f513d98f09e7f3d4d9b8f844
p19
ss."
EndChar

StartChar: u1F901
Encoding: 354 129281 100
GlifName: u1F_901
Width: 843
VWidth: 0
Flags: W
LayerCount: 2
Fore
SplineSet
515.221 567.25 m 257
 515.221 603.25 544.221 632.25 580.221 632.25 c 256
 616.221 632.25 644.221 603.25 644.221 567.25 c 256
 644.221 531.25 616.221 502.25 580.221 502.25 c 256
 544.221 502.25 515.221 531.25 515.221 567.25 c 257
 515.221 567.25 l 257
205.221 561.25 m 257
 205.221 597.25 234.221 626.25 270.221 626.25 c 256
 306.221 626.25 334.221 597.25 334.221 561.25 c 256
 334.221 525.25 306.221 496.25 270.221 496.25 c 256
 234.221 496.25 205.221 525.25 205.221 561.25 c 257
 205.221 561.25 l 257
421.221 777.5 m 257
 482.221 777.5 541.221 762.5 599.221 730.5 c 257
 699.221 677.5 782.221 558.5 782.221 416.5 c 256
 782.221 353.5 766.221 293.5 735.221 236.5 c 256
 680.221 137.5 564.221 55.5 421.221 55.5 c 256
 278.221 55.5 163.221 137.5 108.221 236.5 c 256
 76.2207 293.5 60.2207 353.5 60.2207 416.5 c 256
 60.2207 559.5 144.221 678.5 244.221 730.5 c 257
 301.221 762.5 360.221 777.5 421.221 777.5 c 257
 421.221 777.5 l 257
132.221 578.25 m 257
 135.358 568.936 143.275 560.098 147.84 551.88 c 256
 191.64 474.5 266.1 436.54 369.76 436.54 c 258
 393.12 436.54 l 257
 393.646 441.012 393.888 446.622 393.888 452.96 c 256
 393.888 481.796 388.885 525.691 382.9 546.04 c 256
 358.427 626.452 311.629 676.166 242.505 695.182 c 257
 199.847 667.657 159.567 627.713 132.221 578.25 c 257
 132.221 578.25 l 257
704.056 586.386 m 257
 676.359 632.608 638.714 670.269 597.374 696.117 c 257
 551.38 682.662 513.289 651.689 483.64 602.979 c 256
 458.82 562.1 445.68 525.6 445.68 493.479 c 256
 445.68 474.5 445.68 455.52 445.68 436.54 c 257
 463.2 436.54 l 257
 594.6 438 655.92 497.859 685.12 541.66 c 257
 692.397 554.03 698.952 568.938 704.056 586.386 c 257
 704.056 586.386 l 257
268.221 126.25 m 257
 329.656 148.822 359.653 208.005 381.44 270.1 c 256
 388.74 290.54 393.12 322.66 393.12 366.46 c 258
 393.12 385.439 l 257
 375.6 385.439 l 258
 314.28 385.439 258.8 369.38 212.08 335.8 c 256
 177.481 312.127 153.942 282.157 139.941 246.398 c 257
 169.504 197.388 223.775 151.349 268.221 126.25 c 257
 268.221 126.25 l 257
586.572 132.081 m 257
 636.244 160.855 676.25 201.007 702.683 244.813 c 257
 671.192 333.213 579.967 385.439 476.34 385.439 c 256
 466.12 385.439 455.9 385.439 445.68 385.439 c 257
 445.68 367.92 l 258
 445.68 257.343 497.132 163.586 586.572 132.081 c 257
 586.572 132.081 l 257
EndSplineSet
PickledDataWithLists: "(dp0
Vpublic.postscript.hints
p1
(dp2
VformatVersion
p3
V1
p4
sVhintSetList
p5
(lp6
(dp7
Vstems
p8
(lp9
Vhstem 385 52
p10
aVhstem 496 130
p11
aVhstem 758 20
p12
aVvstem 205 129
p13
aVvstem 393 53
p14
aVvstem 515 129
p15
asasVid
p16
V9ff4bbe188ae5cc60bab3028c076618dfb088c07548fb9c8a100272c4ed8997edb4f994eb829b11512a36459b6bcc29d188f493755dde706d902ad1ea6a9138d
p17
ss."
EndChar

StartChar: u1F902
Encoding: 355 129282 101
GlifName: u1F_902
Width: 842
VWidth: 0
Flags: W
LayerCount: 2
Fore
SplineSet
421.221 777.5 m 257
 482.221 777.5 541.221 762.5 599.221 730.5 c 257
 699.221 677.5 782.221 558.5 782.221 416.5 c 256
 782.221 353.5 766.221 293.5 735.221 236.5 c 256
 680.221 137.5 564.221 55.5 421.221 55.5 c 256
 278.221 55.5 163.221 137.5 108.221 236.5 c 256
 76.2207 293.5 60.2207 353.5 60.2207 416.5 c 256
 60.2207 559.5 144.221 678.5 244.221 730.5 c 257
 301.221 762.5 360.221 777.5 421.221 777.5 c 257
 421.221 777.5 l 257
132.221 578.25 m 257
 135.358 568.936 143.275 560.098 147.84 551.88 c 256
 191.64 474.5 266.1 436.54 369.76 436.54 c 258
 393.12 436.54 l 257
 393.646 441.012 393.888 446.622 393.888 452.96 c 256
 393.888 481.796 388.885 525.691 382.9 546.04 c 256
 358.427 626.452 311.629 676.166 242.505 695.182 c 257
 199.847 667.657 159.567 627.713 132.221 578.25 c 257
 132.221 578.25 l 257
704.056 586.386 m 257
 676.359 632.608 638.714 670.269 597.374 696.117 c 257
 551.38 682.662 513.289 651.689 483.64 602.979 c 256
 458.82 562.1 445.68 525.6 445.68 493.479 c 256
 445.68 474.5 445.68 455.52 445.68 436.54 c 257
 463.2 436.54 l 257
 594.6 438 655.92 497.859 685.12 541.66 c 257
 692.397 554.03 698.952 568.938 704.056 586.386 c 257
 704.056 586.386 l 257
268.221 126.25 m 257
 329.656 148.822 359.653 208.005 381.44 270.1 c 256
 388.74 290.54 393.12 322.66 393.12 366.46 c 258
 393.12 385.439 l 257
 375.6 385.439 l 258
 314.28 385.439 258.8 369.38 212.08 335.8 c 256
 177.481 312.127 153.942 282.157 139.941 246.398 c 257
 169.504 197.388 223.775 151.349 268.221 126.25 c 257
 268.221 126.25 l 257
586.572 132.081 m 257
 636.244 160.855 676.25 201.007 702.683 244.813 c 257
 671.192 333.213 579.967 385.439 476.34 385.439 c 256
 466.12 385.439 455.9 385.439 445.68 385.439 c 257
 445.68 367.92 l 258
 445.68 257.343 497.132 163.586 586.572 132.081 c 257
 586.572 132.081 l 257
EndSplineSet
PickledDataWithLists: "(dp0
Vpublic.postscript.hints
p1
(dp2
VformatVersion
p3
V1
p4
sVhintSetList
p5
(lp6
(dp7
Vstems
p8
(lp9
Vhstem 385 52
p10
aVhstem 758 20
p11
aVvstem 393 53
p12
asasVid
p13
V90d518c0e053c818ad58492e43d0fade7cfd7c02984d8a5d2be61eff0cf6f92b0647e952954d801bab867b2eea74c3101034c9d483f636a5ec62028424b030bf
p14
ss."
EndChar

StartChar: u1F903
Encoding: 356 129283 102
GlifName: u1F_903
Width: 566
VWidth: 0
Flags: W
LayerCount: 2
Fore
SplineSet
414.5 488.8 m 257
 414.5 524.8 443.5 553.8 479.5 553.8 c 256
 515.5 553.8 543.5 524.8 543.5 488.8 c 256
 543.5 452.8 515.5 423.8 479.5 423.8 c 256
 443.5 423.8 414.5 452.8 414.5 488.8 c 257
 414.5 488.8 l 257
414.5 250.8 m 257
 414.5 286.8 443.5 315.8 479.5 315.8 c 256
 515.5 315.8 543.5 286.8 543.5 250.8 c 256
 543.5 214.8 515.5 185.8 479.5 185.8 c 256
 443.5 185.8 414.5 214.8 414.5 250.8 c 257
 414.5 250.8 l 257
220.5 488.8 m 257
 220.5 524.8 249.5 553.8 285.5 553.8 c 256
 321.5 553.8 349.5 524.8 349.5 488.8 c 256
 349.5 452.8 321.5 423.8 285.5 423.8 c 256
 249.5 423.8 220.5 452.8 220.5 488.8 c 257
 220.5 488.8 l 257
220.5 250.8 m 257
 220.5 286.8 249.5 315.8 285.5 315.8 c 256
 321.5 315.8 349.5 286.8 349.5 250.8 c 256
 349.5 214.8 321.5 185.8 285.5 185.8 c 256
 249.5 185.8 220.5 214.8 220.5 250.8 c 257
 220.5 250.8 l 257
399 32 m 257
 399 0 l 257
 256 0 141 82 86 181 c 256
 54 238 38 298 38 361 c 256
 38 504 122 623 222 675 c 257
 279 707 338 722 399 722 c 257
 399 691 l 257
 344 691 290 677 238 649 c 256
 147 599 70 492 70 361 c 256
 70 231 146 125 236 75 c 256
 288 47 342 32 399 32 c 257
 399 32 l 257
EndSplineSet
PickledDataWithLists: "(dp0
Vpublic.postscript.hints
p1
(dp2
VformatVersion
p3
V1
p4
sVhintSetList
p5
(lp6
(dp7
Vstems
p8
(lp9
Vhstem 0 32
p10
aVhstem 186 130
p11
aVhstem 424 130
p12
aVhstem 691 31
p13
aVvstem 38 32
p14
aVvstem 220 130
p15
aVvstem 414 130
p16
asasVid
p17
Vc6b39bcd4ec8dc87ad18d5dc31a1bb5a77880c22100a5319b78cbc5eff4e7a9fdde637a58a9a1af403f8356455580b848c25d791eb8368e0e7521137441449e2
p18
ss."
EndChar

StartChar: u1F904
Encoding: 357 129284 103
GlifName: u1F_904
Width: 554
VWidth: 0
Flags: W
LayerCount: 2
Fore
SplineSet
304 446.8 m 257
 264 446.8 234 477.8 234 517.8 c 256
 234 556.8 265 588.8 304 588.8 c 256
 343 588.8 376 556.8 376 517.8 c 256
 376 477.8 344 446.8 304 446.8 c 257
 304 446.8 l 257
304 138.8 m 257
 264 138.8 234 169.8 234 209.8 c 256
 234 249.8 264 281.8 304 281.8 c 256
 344 281.8 376 249.8 376 209.8 c 256
 376 169.8 344 138.8 304 138.8 c 257
 304 138.8 l 257
460.5 296.8 m 257
 421.5 296.8 388.5 328.8 388.5 367.8 c 256
 388.5 407.8 420.5 439.8 460.5 439.8 c 256
 500.5 439.8 530.5 407.8 530.5 367.8 c 256
 530.5 328.8 499.5 296.8 460.5 296.8 c 257
 460.5 296.8 l 257
399 32 m 257
 399 0 l 257
 256 0 141 82 86 181 c 256
 54 238 38 298 38 361 c 256
 38 504 122 623 222 675 c 257
 279 707 338 722 399 722 c 257
 399 691 l 257
 344 691 290 677 238 649 c 256
 147 599 70 492 70 361 c 256
 70 231 146 125 236 75 c 256
 288 47 342 32 399 32 c 257
 399 32 l 257
EndSplineSet
PickledDataWithLists: "(dp0
Vpublic.postscript.hints
p1
(dp2
VformatVersion
p3
V1
p4
sVhintSetList
p5
(lp6
(dp7
Vstems
p8
(lp9
Vhstem 0 32
p10
aVhstem 139 143
p11
aVhstem 297 143
p12
aVhstem 447 142
p13
aVhstem 691 31
p14
aVvstem 38 32
p15
aVvstem 234 142
p16
aVvstem 388 143
p17
asasVid
p18
V89e9f90d0af0fa4209b49956bc72101a80f42bf6f2486f203c61b0bc6e516a198b0087ea8a0e151f273873e8192ee283632671bac4e910d897ffcd00f3587e39
p19
ss."
EndChar

StartChar: u1F905
Encoding: 358 129285 104
GlifName: u1F_905
Width: 417
VWidth: 0
Flags: W
LayerCount: 2
Fore
SplineSet
220.5 488.8 m 257
 220.5 524.8 249.5 553.8 285.5 553.8 c 256
 321.5 553.8 349.5 524.8 349.5 488.8 c 256
 349.5 452.8 321.5 423.8 285.5 423.8 c 256
 249.5 423.8 220.5 452.8 220.5 488.8 c 257
 220.5 488.8 l 257
220.5 250.8 m 257
 220.5 286.8 249.5 315.8 285.5 315.8 c 256
 321.5 315.8 349.5 286.8 349.5 250.8 c 256
 349.5 214.8 321.5 185.8 285.5 185.8 c 256
 249.5 185.8 220.5 214.8 220.5 250.8 c 257
 220.5 250.8 l 257
399 32 m 257
 399 0 l 257
 256 0 141 82 86 181 c 256
 54 238 38 298 38 361 c 256
 38 504 122 623 222 675 c 257
 279 707 338 722 399 722 c 257
 399 691 l 257
 344 691 290 677 238 649 c 256
 147 599 70 492 70 361 c 256
 70 231 146 125 236 75 c 256
 288 47 342 32 399 32 c 257
 399 32 l 257
EndSplineSet
PickledDataWithLists: "(dp0
Vpublic.postscript.hints
p1
(dp2
VformatVersion
p3
V1
p4
sVhintSetList
p5
(lp6
(dp7
Vstems
p8
(lp9
Vhstem 0 32
p10
aVhstem 186 130
p11
aVhstem 424 130
p12
aVhstem 691 31
p13
aVvstem 38 32
p14
aVvstem 220 130
p15
asasVid
p16
V253b73cfe9d9a706e142fd1b839e38e247b365fd4d40632cd90b7cf550c3554c81dea9a1077b2fe2b36126f69ab2c451c05a8b14ee343026971805390249cc42
p17
ss."
EndChar

StartChar: u1F906
Encoding: 359 129286 105
GlifName: u1F_906
Width: 494
VWidth: 0
Flags: W
LayerCount: 2
Fore
SplineSet
326.5 356.8 m 257
 326.5 392.8 355.5 421.8 391.5 421.8 c 256
 427.5 421.8 455.5 392.8 455.5 356.8 c 256
 455.5 320.8 427.5 291.8 391.5 291.8 c 256
 355.5 291.8 326.5 320.8 326.5 356.8 c 257
 326.5 356.8 l 257
399 32 m 257
 399 0 l 257
 256 0 141 82 86 181 c 256
 54 238 38 298 38 361 c 256
 38 504 122 623 222 675 c 257
 279 707 338 722 399 722 c 257
 399 691 l 257
 344 691 290 677 238 649 c 256
 147 599 70 492 70 361 c 256
 70 231 146 125 236 75 c 256
 288 47 342 32 399 32 c 257
 399 32 l 257
EndSplineSet
PickledDataWithLists: "(dp0
Vpublic.postscript.hints
p1
(dp2
VformatVersion
p3
V1
p4
sVhintSetList
p5
(lp6
(dp7
Vstems
p8
(lp9
Vhstem 0 32
p10
aVhstem 292 130
p11
aVhstem 691 31
p12
aVvstem 38 32
p13
aVvstem 326 130
p14
asasVid
p15
V70a23b2d9967b6fa71aea6d78402c7e2b8d27a51a9ad34e99063331a8b22a7168071cac6d139035936bce6499f01a30f5c9fccc5d4dac0af952f925ecbfd4bda
p16
ss."
EndChar

StartChar: u1F907
Encoding: 360 129287 106
GlifName: u1F_907
Width: 417
VWidth: 0
Flags: W
LayerCount: 2
Fore
SplineSet
399 32 m 257
 399 0 l 257
 256 0 141 82 86 181 c 256
 54 238 38 298 38 361 c 256
 38 504 122 623 222 675 c 257
 279 707 338 722 399 722 c 257
 399 691 l 257
 344 691 290 677 238 649 c 256
 147 599 70 492 70 361 c 256
 70 231 146 125 236 75 c 256
 288 47 342 32 399 32 c 257
 399 32 l 257
EndSplineSet
PickledDataWithLists: "(dp0
Vpublic.postscript.hints
p1
(dp2
VformatVersion
p3
V1
p4
sVhintSetList
p5
(lp6
(dp7
Vstems
p8
(lp9
Vhstem 0 32
p10
aVhstem 691 31
p11
aVvstem 38 32
p12
asasVid
p13
V2f93a79323f4b0117a79dc108806f2dda2aa6009e3301cd8a4753064ced7198c40de4427efa24d6232389d4ee20664e796028333757145b568f12e9a21e4ae22
p14
ss."
EndChar

StartChar: u1F908
Encoding: 361 129288 107
GlifName: u1F_908
Width: 450
VWidth: 0
Flags: W
AnchorPoint: "Numeral" 228 396 basechar 0
LayerCount: 2
Fore
SplineSet
172 585 m 257
 198 595 220 596 235 596 c 256
 263 596 281 591 301 585 c 257
 326 580 375 548 395 513 c 257
 408 483 411 479 414 463 c 257
 418 449 419 427 419 405 c 256
 419 399 419 398 419 395 c 256
 419 392 419 386 416 362 c 257
 409 314 401 299 392 268 c 257
 370 205 324 144 269 91 c 257
 206 32 167 8 77 -43 c 258
 49 -59 l 257
 10 -59 l 257
 10 -22 l 257
 36 -8 l 258
 82 17 70 13 102 31 c 257
 147 62 190 98 231 134 c 257
 231 134 252 155 270 178 c 257
 270 178 296 203 317 244 c 257
 340 300 l 257
 350 351 354 388 354 415 c 256
 354 476 334 492 314 515 c 257
 287 532 258 542 228 542 c 256
 203 542 177 535 153 517 c 256
 130 500 120 474 110 448 c 256
 101 425 98 401 98 377 c 256
 98 345 104 312 112 279 c 257
 49 279 l 257
 43 311 39 337 39 364 c 256
 39 405 45 443 65 481 c 257
 88 521 l 257
 112 548 l 257
 137 570 144 570 172 585 c 257
 172 585 l 257
EndSplineSet
PickledDataWithLists: "(dp0
Vpublic.postscript.hints
p1
(dp2
VformatVersion
p3
V1
p4
sVhintSetList
p5
(lp6
(dp7
Vstems
p8
(lp9
Vhstem 542 54
p10
aVvstem 39 59
p11
aVvstem 49 63
p12
aVvstem 353.5 65.5
p13
asasVid
p14
V56c51e86fd19ecb28866fc48533ef09a1cc32751e95f95e0ab9b2e2407d8585ed304bb1a4ede8c624cdf234893effaaaa2c26ce9a18cc8442cc8e58a475ecdcc
p15
ss."
EndChar

StartChar: u1F909
Encoding: 362 129289 108
GlifName: u1F_909
Width: 450
VWidth: 0
Flags: W
AnchorPoint: "Numeral" 228 396 basechar 0
LayerCount: 2
Fore
SplineSet
93 94 m 257
 90 97 90 100 90 104 c 256
 90 115 97 124 109 124 c 256
 115 124 120 121 124 117 c 257
 158 71 l 257
 197 100 195 102 231 134 c 257
 231 134 252 155 270 178 c 257
 270 178 296 203 317 244 c 257
 340 300 l 257
 350 351 354 388 354 415 c 256
 354 476 334 492 314 515 c 257
 287 532 258 542 228 542 c 256
 203 542 177 535 153 517 c 256
 130 500 120 474 110 448 c 256
 101 425 98 401 98 377 c 256
 98 345 104 312 112 279 c 257
 49 279 l 257
 43 311 39 337 39 364 c 256
 39 405 45 443 65 481 c 257
 88 521 l 257
 112 548 l 257
 137 570 144 570 172 585 c 257
 198 595 220 596 235 596 c 256
 263 596 281 591 301 585 c 257
 326 580 375 548 395 513 c 257
 408 483 411 479 414 463 c 257
 418 449 419 427 419 405 c 258
 419 395 l 258
 419 350 400 295 392 268 c 257
 348 156 286 105 190 29 c 257
 221 -15 l 257
 223 -19 225 -23 225 -27 c 256
 225 -38 216 -47 205 -47 c 256
 198 -47 192 -44 188 -38 c 257
 155 7 l 257
 144 1 91 -35 77 -43 c 258
 49 -59 l 257
 10 -59 l 257
 10 -22 l 257
 36 -8 l 258
 69 10 112 42 124 49 c 257
 93 94 l 257
EndSplineSet
PickledDataWithLists: "(dp0
Vpublic.postscript.hints
p1
(dp2
VformatVersion
p3
V1
p4
sVhintSetList
p5
(lp6
(dp7
Vstems
p8
(lp9
Vhstem 542 54
p10
aVvstem 39 59
p11
aVvstem 49 63
p12
aVvstem 353.5 65.5
p13
asasVid
p14
Vd911d30d62d27280b2d3dd6d7cc3bdb3410afb64cbee44237c9a15975067a69433c4bbaed53d8c56612a221cc56818c27e8e10fa4349dcf629934d80f661b496
p15
ss."
EndChar

StartChar: u1F90A
Encoding: 363 129290 109
GlifName: u1F_90A_
Width: 450
VWidth: 0
Flags: W
AnchorPoint: "Numeral" 228 396 basechar 0
LayerCount: 2
Fore
SplineSet
179.5 387.5 m 257
 179.5 415.5 204.5 440.5 232.5 440.5 c 256
 260.5 440.5 285.5 415.5 285.5 387.5 c 256
 285.5 359.5 260.5 335.5 232.5 335.5 c 256
 204.5 335.5 179.5 359.5 179.5 387.5 c 257
 179.5 387.5 l 257
172 585 m 257
 198 595 220 596 235 596 c 256
 263 596 281 591 301 585 c 257
 326 580 375 548 395 513 c 257
 408 483 411 479 414 463 c 257
 418 449 419 427 419 405 c 256
 419 399 419 398 419 395 c 256
 419 392 419 386 416 362 c 257
 409 314 401 299 392 268 c 257
 370 205 324 144 269 91 c 257
 206 32 167 8 77 -43 c 258
 49 -59 l 257
 10 -59 l 257
 10 -22 l 257
 36 -8 l 258
 82 17 70 13 102 31 c 257
 147 62 190 98 231 134 c 257
 231 134 252 155 270 178 c 257
 270 178 296 203 317 244 c 257
 340 300 l 257
 350 351 354 388 354 415 c 256
 354 476 334 492 314 515 c 257
 287 532 258 542 228 542 c 256
 203 542 177 535 153 517 c 256
 130 500 120 474 110 448 c 256
 101 425 98 401 98 377 c 256
 98 345 104 312 112 279 c 257
 49 279 l 257
 43 311 39 337 39 364 c 256
 39 405 45 443 65 481 c 257
 88 521 l 257
 112 548 l 257
 137 570 144 570 172 585 c 257
 172 585 l 257
EndSplineSet
PickledDataWithLists: "(dp0
Vpublic.postscript.hints
p1
(dp2
VformatVersion
p3
V1
p4
sVhintSetList
p5
(lp6
(dp7
Vstems
p8
(lp9
Vhstem 333.5 105
p10
aVhstem 542 54
p11
aVvstem 39 59
p12
aVvstem 49 63
p13
aVvstem 181.5 106
p14
aVvstem 353.5 65.5
p15
asasVid
p16
Vb679961e73cb7d49143924da5bbbe45b26d9ef9e047b07dd7a1c4555c53433465f6a84d2fe9e7c071457c121774b62ab38bc30ea27b0f342d1449091551c93f8
p17
ss."
EndChar

